<svg
  width="67"
  height="82"
  viewBox="0 0 67 82"
  fill="none"
  xmlns="http://www.w3.org/2000/svg"
>
  <style>
    @media (prefers-color-scheme: light) {
      svg {
        background-color: #fff !important;
      }
    }
    @media (prefers-color-scheme: dark) {
      svg {
        background-color: #0c0d1d !important;
      }
    }
  </style>
  <g clip-path="url(#clip0_62_177)">
    <path
      d="M7.59991 33.2995V32.9995H7.69991V32.5995H7.79991V32.3995L7.89991 32.2995V32.0995H7.99991V31.9995L8.09991 31.8995V31.6995H8.19991V31.5995L8.29991 31.4995V31.3995L8.39991 31.2995L8.49991 31.1995V30.9995L8.59991 30.8995L8.69991 30.7995V30.6995L8.79991 30.5995C8.83315 30.5661 8.86649 30.5327 8.89991 30.4995L8.99991 30.3995L9.09991 30.1995H9.19991V30.0995L9.29991 29.8995H9.39991V29.7995L9.49991 29.6995H9.59991V29.5995H9.69991V29.4995L9.79991 29.3995L9.89991 29.2995L9.99991 29.1995L10.0999 29.0995L10.1999 28.9995L10.2999 28.8995L10.3999 28.7995V28.6995H10.4999L10.5999 28.5995V28.4995H10.6999L10.7999 28.3995V28.2995H10.8999L10.9999 28.1995V28.0995H11.0999L11.1999 27.9995H11.2999L11.3999 27.8995V27.7995H11.4999L11.5999 27.6995V27.5995H11.7999V27.4995L11.8999 27.3995L12.0999 27.2995V27.1995H12.1999V26.9995L12.2999 26.8995H12.3999V26.7995H12.5999V26.6995L12.6999 26.5995H12.7999V26.4995L12.9999 26.3995L13.0999 26.2995L13.1999 26.1995H13.2999L13.3999 26.0995V25.9995H13.5999L13.6999 25.8995H13.7999L13.8999 25.7995L13.9999 25.6995L14.1999 25.5995V25.4995H14.3999V25.3995L14.4999 25.2995H14.5999L14.6999 25.1995L14.7999 25.0995H14.8999L14.9999 24.9995L15.0999 24.8995H15.1999V24.7995L15.3999 24.6995L15.5999 24.5995V24.4995H15.7999V24.3995L15.9999 24.2995L16.1999 24.1995V23.9995H16.3999L16.5999 23.8995L16.7999 23.7995V23.6995H16.9999V23.5995L17.1999 23.4995L17.3999 23.3995L17.4999 23.2995H17.5999L17.6999 23.1995H17.7999L17.8999 22.9995H18.0999L18.1999 22.7995H18.3999L18.5999 22.5995H18.7999L18.8999 22.3995H19.0999L19.1999 22.1995H19.3999L19.5999 21.9995H19.7999L19.8999 21.7995H20.1999V21.6995L20.3999 21.5995H20.4999L20.6999 21.3995H20.8999L20.9999 21.1995H21.1999L21.3999 20.9995H21.5999L21.6999 20.7995H21.9999L22.0999 20.5995H22.3999L22.4999 20.3995H22.7999V20.1995H23.1999L23.3999 19.9995H23.5999L23.6999 19.8995L23.8999 19.7995H23.9999L24.0999 19.6995H24.2999L24.3999 19.5995L24.4999 19.4995H24.6999L24.7999 19.3995H24.8999L25.0999 19.2995L25.1999 19.1995C25.3018 19.1723 25.402 19.1389 25.4999 19.0995H25.5999L25.7999 18.9995V18.8995H25.9999L26.1999 18.7995H26.2999L26.4999 18.6995V18.5995H26.6999L26.8999 18.4995H26.9999L27.0999 18.3995L27.2999 18.2995H27.3999L27.5999 18.1995H27.6999L27.7999 18.0995L27.9999 17.9995H28.0999L28.2999 17.8995H28.3999L28.5999 17.7995L28.6999 17.6995H28.8999L28.9999 17.5995H29.1999L29.2999 17.4995L29.4999 17.3995H29.5999L29.6999 17.2995H29.8999L29.9999 17.1995H30.1999L30.2999 16.9995H30.4999L30.6999 16.8995H30.7999L30.9999 16.6995H31.2999L31.3999 16.5995C31.5372 16.5409 31.6707 16.4742 31.7999 16.3995H31.8999C32.0013 16.3704 32.1014 16.3371 32.1999 16.2995H32.3999C32.5031 16.2377 32.6032 16.171 32.6999 16.0995H32.7999L32.9999 15.9995H33.0999C33.2331 15.9325 33.3664 15.8659 33.4999 15.7995H33.5999L33.7999 15.6995H33.8999L34.0999 15.5995L34.2999 15.4995H34.3999L34.5999 15.3995H34.6999L34.8999 15.2995L35.0999 15.1995H35.1999L35.3999 15.0995H35.4999L35.6999 14.9995L35.8999 14.8995H35.9999L36.1999 14.7995H36.3999L36.4999 14.6995L36.6999 14.5995H36.8999L36.9999 14.4995H37.1999L37.3999 14.3995L37.4999 14.2995H37.6999L37.8999 14.1995H37.9999L38.1999 14.0995L38.3999 13.9995H38.4999L38.6999 13.8995H38.8999L38.9999 13.7995H39.1999L39.3999 13.6995H39.5999L39.6999 13.5995L39.8999 13.4995H40.0999L40.1999 13.3995H40.3999L40.5999 13.2995H40.7999L40.8999 13.1995H41.0999L41.2999 13.0995H41.4999L41.5999 12.9995H41.6999L41.8999 12.8995H42.0999L42.2999 12.7995H42.3999L42.5999 12.6995H42.7999L42.9999 12.5995H43.0999L43.2999 12.4995H43.4999L43.6999 12.3995H43.8999L43.9999 12.2995L44.1999 12.1995H44.3999L44.5999 12.0995H44.7999L44.9999 11.9995H45.0999L45.2999 11.8995H45.4999L45.6999 11.7995H45.8999L46.0999 11.6995H46.2999L46.3999 11.5995H46.5999L46.7999 11.4995H46.9999L47.1999 11.3995L47.3999 11.2995H47.5999L47.6999 11.1995H47.8999L48.0999 11.0995H48.2999L48.4999 10.9995H48.6999L48.8999 10.8995H49.0999L49.2999 10.7995H49.4999L49.5999 10.6995H49.7999L49.9999 10.5995L50.1999 10.4995H50.5999L50.7999 10.3995H50.9999L51.1999 10.2995H51.3999L51.5999 10.1995H51.7999L51.9999 9.99949H52.0999L52.2999 9.89949H52.4999L52.6999 9.79949H53.0999L53.2999 9.69949H53.4999L53.6999 9.59949H53.8999L54.0999 9.49949H54.2999L54.4999 9.39949H54.6999L54.8999 9.29949H55.0999L55.2999 9.19949H55.4999L55.6999 9.09949H56.0999L56.2999 8.99949H56.4999L56.6999 8.89949H56.8999L57.0999 8.79949H57.2999L57.4999 8.69949H57.7999L57.9999 8.59949H58.1999L58.3999 8.49949H58.7999L58.9999 8.39949H59.1999L59.3999 8.29949H59.5999L59.7999 8.19949H59.9999L60.1999 8.09949C60.3338 8.06857 60.4672 8.03523 60.5999 7.99949H60.9999L61.2999 7.89949H61.4999L61.6999 7.79949H62.0999L62.2999 7.69949H62.4999L62.6999 7.59949H63.1999L63.3999 7.49949C64.2619 7.30058 65.0095 6.7674 65.4783 6.01726C65.9472 5.26711 66.0988 4.36144 65.8999 3.49949C65.701 2.63754 65.1678 1.8899 64.4177 1.42106C63.6675 0.952222 62.7619 0.800578 61.8999 0.99949H61.5999L61.3999 1.09949H61.1999L60.9999 1.19949H60.5999L60.3999 1.29949H60.1999L59.8999 1.39949H59.4999L59.2999 1.49949H59.0999L58.8999 1.59949H58.6999L58.4999 1.69949H58.2999L57.9999 1.99949H57.5999L57.3999 2.09949H57.1999L56.9999 2.19949H56.7999L56.5999 2.29949H56.3999L56.1999 2.39949H55.9999L55.7999 2.49949H55.5999L55.3999 2.59949H54.9999L54.7999 2.69949H54.4999L54.2999 2.79949H54.0999L53.8999 2.89949H53.6999L53.4999 2.99949H53.2999L53.0999 3.09949H52.9999L52.7999 3.19949H52.5999L52.3999 3.29949H51.9999L51.7999 3.39949H51.5999L51.3999 3.49949H51.1999L50.9999 3.59949H50.7999L50.5999 3.69949H50.3999L50.1999 3.79949H49.9999L49.8999 3.89949H49.4999L49.2999 3.99949L49.0999 4.09949H48.8999L48.6999 4.19949H48.4999L48.2999 4.29949H47.9999L47.7999 4.39949H47.5999L47.3999 4.49949H47.2999L47.0999 4.59949H46.8999L46.6999 4.69949H46.4999L46.2999 4.79949L46.0999 4.89949H45.8999L45.6999 4.99949H45.4999L45.3999 5.09949H45.1999L44.9999 5.19949H44.7999L44.5999 5.29949H44.3999L44.1999 5.39949H43.9999L43.8999 5.49949H43.6999L43.4999 5.59949H43.2999L43.0999 5.69949L42.8999 5.79949H42.6999L42.5999 5.89949H42.3999L42.1999 5.99949H41.9999L41.7999 6.09949H41.6999L41.4999 6.19949H41.2999L41.0999 6.29949H40.9999L40.8999 6.39949H40.6999L40.4999 6.49949H40.2999L40.0999 6.59949L39.4999 6.79949H39.2999L39.1999 6.89949L38.9999 6.99949H38.7999L38.5999 7.09949H38.3999L38.2999 7.19949H37.9999L37.7999 7.29949H37.5999L37.4999 7.39949L37.2999 7.49949H37.0999L36.9999 7.59949H36.7999L36.5999 7.69949L36.3999 7.79949H36.2999L36.0999 7.89949H35.8999L35.6999 7.99949H35.5999L35.3999 8.19949H35.0999L34.8999 8.29949H34.6999L34.5999 8.49949H34.1999L34.0999 8.59949H33.8999L33.6999 8.79949H33.3999L33.1999 8.89949H33.0999L32.8999 9.09949H32.5999L32.3999 9.19949H32.1999L32.0999 9.29949L31.8999 9.39949H31.7999L31.5999 9.49949H31.3999L31.2999 9.59949L31.0999 9.69949H30.9999L30.7999 9.79949H30.5999L30.4999 9.89949L30.2999 9.99949H29.7999L29.6999 10.0995L29.4999 10.1995C29.2998 10.2659 29.0998 10.3326 28.8999 10.3995L28.7999 10.4995H28.5999L28.3999 10.5995H28.2999L28.0999 10.6995L27.9999 10.7995H27.7999L27.6999 10.8995H27.4999L27.3999 10.9995L27.1999 11.0995H27.0999L26.8999 11.1995H26.7999C26.6963 11.2606 26.5962 11.3274 26.4999 11.3995C26.3984 11.428 26.2983 11.4614 26.1999 11.4995C26.0984 11.528 25.9983 11.5614 25.8999 11.5995L25.6999 11.6995H25.5999L25.4999 11.7995H25.2999L25.1999 11.8995L24.9999 11.9995C24.9036 12.0716 24.8035 12.1383 24.6999 12.1995H24.2999L24.1999 12.3995H23.8999L23.6999 12.4995H23.5999L23.4999 12.6995H23.1999L22.9999 12.7995L22.8999 12.8995H22.7999L22.5999 12.9995L22.4999 13.0995H22.2999L22.1999 13.1995L22.0999 13.2995H21.8999L21.7999 13.3995L21.6999 13.4995H21.4999V13.5995L21.2999 13.6995H20.9999V13.7995L20.7999 13.8995H20.5999V13.9995L20.3999 14.0995H20.1999V14.1995L19.9999 14.2995L19.7999 14.3995L19.6999 14.4995H19.5999L19.3999 14.5995V14.6995H19.1999L19.0999 14.7995L18.8999 14.8995L18.6999 14.9995L18.5999 15.0995H18.3999V15.1995L18.1999 15.2995H17.9999L17.7999 15.3995V15.4995H17.5999L17.4999 15.5995L17.3999 15.6995H17.2999L16.6999 16.0995H16.5999L16.3999 16.1995L16.1999 16.2995L16.0999 16.3995H15.9999L15.8999 16.4995L15.6999 16.5995L15.4999 16.6995L15.3999 16.7995H15.2999L15.1999 16.8995L15.0999 16.9995H14.9999V17.0995L14.7999 17.1995H14.6999L14.5999 17.2995L14.4999 17.3995H14.3999L14.2999 17.4995L14.0999 17.5995L13.8999 17.6995V17.7995H13.6999V17.8995L13.4999 17.9995H13.3999L13.2999 18.0995H13.1999L13.0999 18.2995H12.8999L12.7999 18.4995H12.5999L12.4999 18.6995H12.2999L12.1999 18.8995H11.9999L11.8999 19.0995H11.6999L11.5999 19.2995H11.3999L11.2999 19.4995H10.9999L10.8999 19.6995H10.6999L10.5999 19.8995H10.3999V20.0995H10.1999L9.99991 20.2995L9.89991 20.4995H9.69991V20.5995L9.49991 20.6995L9.39991 20.7995L9.29991 20.8995H9.19991L8.99991 20.9995V21.0995H8.79991V21.1995L8.69991 21.2995H8.59991L8.49991 21.3995V21.4995H8.29991V21.5995L7.79991 22.0995H7.59991V22.1995L7.39991 22.2995L7.29991 22.3995L7.19991 22.4995L7.09991 22.5995L6.99991 22.6995L6.79991 22.7995V22.8995H6.69991V22.9995L6.49991 23.0995L6.39991 23.1995V23.2995H6.29991L6.19991 23.3995V23.4995H6.09991L5.99991 23.5995V23.6995L5.89991 23.7995V23.8995H5.79991L5.69991 23.9995V24.0995H5.59991L5.49991 24.1995V24.2995H5.39991V24.3995L5.29991 24.4995H5.19991V24.5995L5.09991 24.6995L4.99991 24.7995L4.89991 24.8995L4.79991 24.9995V25.0995H4.69991V25.1995L4.59991 25.2995H4.49991L4.09991 25.8995H3.99991V26.0995H3.89991L3.79991 26.2995H3.69991V26.4995H3.59991L3.49991 26.6995H3.39991V26.8995H3.29991V27.0995H3.19991L3.09991 27.2995H2.99991V27.4995H2.89991V27.6995H2.79991V27.8995H2.69991V27.9995L2.59991 28.0995C2.43569 28.3138 2.30114 28.5492 2.19991 28.7995V28.8995L1.99991 28.9995V29.0995L1.89991 29.1995V29.3995H1.79991V29.5995L1.69991 29.6995V29.7995L1.59991 29.8995V30.1995H1.49991V30.3995C1.39984 30.6328 1.29984 30.8661 1.19991 31.0995V31.4995L1.09991 31.5995V31.9995L0.999908 32.1995V32.3995C0.932981 32.6609 0.899381 32.9297 0.899908 33.1995V34.1995C0.901395 34.4692 0.934964 34.7377 0.999908 34.9995V35.3995L1.09991 35.4995V35.5995L1.39991 36.2995V36.5995L1.49991 36.6995V36.7995L1.59991 36.8995V36.9995L1.69991 37.0995V37.1995H1.99991V37.3995L2.29991 37.8995L2.39991 37.9995V38.0995L2.49991 38.1995V38.2995H2.59991V38.3995L2.69991 38.4995V38.5995H2.79991V38.6995L2.89991 38.7995L2.99991 38.8995V38.9995L3.09991 39.0995L3.19991 39.1995V39.2995L3.69991 39.7995L3.79991 39.8995V39.9995H3.89991V40.0995H3.99991V40.1995L4.09991 40.2995L4.19991 40.3995L4.29991 40.4995L4.39991 40.5995L4.49991 40.6995L4.59991 40.7995H4.69991V40.8995H4.79991V40.9995L4.89991 41.0995L4.99991 41.1995L5.09991 41.2995H5.19991V41.3995H5.29991V41.4995H5.39991L5.89991 41.8995V41.9995H5.99991V42.0995L6.09991 42.1995H6.19991V42.2995H6.39991V42.3995H6.49991V42.4995H6.69991V42.5995L6.89991 42.6995V42.7995H7.09991V42.8995H7.19991L7.39991 42.9995L7.49991 43.0995L7.59991 43.1995H7.69991V43.2995H7.99991V43.4995H8.19991V43.5995H8.39991V43.6995H8.59991V43.7995H8.69991L8.79991 43.8995L8.99991 43.9995L9.09991 44.0995H9.19991V44.1995H9.39991V44.2995H9.59991C9.79991 44.4995 9.89991 44.5995 10.0999 44.5995L10.1999 44.6995H10.2999L10.3999 44.7995H10.4999V44.8995H10.6999V44.9995H10.8999L10.9999 45.0995H11.0999V45.1995H11.2999V45.2995H11.4999V45.3995H11.6999V45.4995H11.7999L11.8999 45.5995H11.9999L12.0999 45.6995H12.2999L12.3999 45.7995L12.5999 45.8995L12.7999 45.9995L12.9999 46.0995L13.1999 46.1995H13.3999V46.2995H13.5999V46.3995H13.7999C13.8996 46.4666 13.9996 46.5333 14.0999 46.5995H14.2999C14.3644 46.6369 14.4312 46.6703 14.4999 46.6995H14.5999L14.6999 46.7995H14.8999L14.9999 46.8995H15.0999L15.2999 46.9995H15.4999V47.0995H15.6999V47.1995H15.9999L16.0999 47.2995H16.1999L16.2999 47.3995H16.4999L16.6999 47.4995H16.7999L16.8999 47.5995H17.0999L17.2999 47.6995C17.3684 47.7291 17.4352 47.7625 17.4999 47.7995C17.6022 47.8256 17.7024 47.859 17.7999 47.8995H17.8999L18.0999 47.9995H18.2999L18.3999 48.0995H18.4999L18.6999 48.1995H18.8999L18.9999 48.2995H19.0999L19.1999 48.3995H19.3999L19.5999 48.4995C19.8658 48.6015 20.1325 48.7015 20.3999 48.7995H20.5999C20.6981 48.8381 20.7982 48.8715 20.8999 48.8995C20.9652 48.9355 21.0319 48.9688 21.0999 48.9995H21.2999L21.4999 49.0995H21.5999L21.7999 49.1995H21.9999L22.0999 49.2995H22.3999L22.4999 49.3995H22.7999L22.8999 49.4995H23.1999L23.2999 49.5995H23.5999L23.6999 49.6995H23.9999L24.0999 49.7995H24.3999L24.4999 49.8995H24.7999L24.8999 49.9995H25.1999L25.2999 50.0995H25.6999L25.8999 50.1995H26.1999V50.2995H26.5999L26.6999 50.3995H26.9999L27.0999 50.4995H27.3999L27.4999 50.5995H27.7999L27.9999 50.6995H28.2999L28.3999 50.7995H28.6999L28.8999 50.8995H29.0999L29.2999 50.9995H29.5999L29.6999 51.0995H29.9999L30.1999 51.1995H30.4999L30.5999 51.2995H30.8999L31.0999 51.3995H31.3999L31.4999 51.4995H31.9999L32.0999 51.5995H32.5999L32.6999 51.6995H33.1999L33.2999 51.7995H33.7999L33.9999 51.8995H34.2999L34.3999 51.9995H34.8999L35.0999 52.0995H35.5999L35.6999 52.1995H36.1999L36.3999 52.2995H36.6999L36.7999 52.3995H37.2999L37.4999 52.4995H37.9999L38.0999 52.5995H38.5999L38.7999 52.6995H38.9999L39.1999 52.7995H39.6999L39.8999 52.8995H40.4999L40.6999 52.9995H41.3999L41.4999 53.0995H42.1999L42.3999 53.1995H43.0999L43.2999 53.2995H43.8999L44.0999 53.3995H44.7999L44.9999 53.4995H45.6999L45.8999 53.5995H46.5999L46.7999 53.6995H47.5999L47.7999 53.7995H48.4999L48.6999 53.8995H49.3999L49.5999 53.9995H50.2999L50.4999 54.0995H51.4999L51.6999 54.1995H52.9999L53.1999 54.2995H54.2999L54.4999 54.3995H55.7999L55.9999 54.4995H57.2999L57.4999 54.5995H58.5999L58.7999 54.6995H60.1999L60.2999 54.7995H61.4999C61.7651 54.7995 62.0195 54.6941 62.207 54.5066C62.3946 54.3191 62.4999 54.0647 62.4999 53.7995C62.4999 53.5343 62.3946 53.2799 62.207 53.0924C62.0195 52.9048 61.7651 52.7995 61.4999 52.7995H59.7999L59.5999 52.6995H58.7999L58.5999 52.5995H57.9999L57.7999 52.4995H56.9999L56.7999 52.3995H56.0999L55.8999 52.2995H54.9999V51.9995H53.2999L53.0999 51.8995H52.3999L52.1999 51.7995H51.4999L51.2999 51.6995H50.7999L50.5999 51.5995H50.1999L50.0999 51.4995H49.4999L49.2999 51.3995H48.7999L48.5999 51.2995H48.0999L47.8999 51.1995H47.5999L47.3999 51.0995H46.9999L46.7999 50.9995H46.2999L46.0999 50.8995H45.5999L45.3999 50.7995H44.8999L44.7999 50.6995H44.3999L44.1999 50.5995H43.6999L43.5999 50.4995H42.9999L42.7999 50.3995H42.4999L42.2999 50.2995H41.9999L41.7999 50.1995H41.4999L41.2999 50.0995H40.9999L40.7999 49.9995H40.4999L40.2999 49.8995H39.9999L39.7999 49.7995H39.4999L39.3999 49.6995H38.9999L38.8999 49.5995H38.5999L38.3999 49.4995H38.0999L37.8999 49.3995H37.5999L37.3999 49.2995H37.0999L36.9999 49.1995H36.6999L36.4999 49.0995H36.1999L35.9999 48.9995H35.6999L35.5999 48.8995H35.2999L35.0999 48.7995H34.7999L34.6999 48.6995H34.2999L34.1999 48.5995H33.9999L33.8999 48.4995H33.5999L33.3999 48.3995H33.2999L33.0999 48.2995H32.7999L32.6999 48.1995H32.4999L32.3999 48.0995H32.0999L31.9999 47.9995H31.7999L31.6999 47.8995H31.3999C31.2376 47.8224 31.0706 47.7556 30.8999 47.6995H30.5999L30.4999 47.5995H30.3999L30.1999 47.4995H29.9999L29.8999 47.3995H29.6999V47.2995H29.2999L29.1999 47.1995H28.9999L28.7999 47.0995H28.4999L28.3999 46.9995H28.2999L28.0999 46.8995H27.7999L27.6999 46.7995H27.5999L27.3999 46.6995H27.2999L27.0999 46.5995H26.7999V46.4995H26.3999V46.3995H26.1999L25.9999 46.2995H25.7999L25.5999 46.1995L25.3999 46.0995H25.2999L24.9999 45.9995H24.7999L24.6999 45.8995H24.4999V45.7995H24.2999L24.1999 45.6995H23.9999L23.8999 45.5995H23.7999L23.5999 45.4995L23.3999 45.3995H23.2999L23.0999 45.2995H22.9999L22.8999 45.1995H22.7999L22.5999 45.0995L22.3999 44.9995H22.2999L22.1999 44.8995H21.9999V44.7995H21.7999L21.6999 44.6995H21.3999V44.5995H21.1999L21.0999 44.4995H20.9999L20.8999 44.3995H20.6999V44.2995H20.4999V44.1995H20.2999L20.1999 44.0995H19.9999V43.9995H19.7999L19.5999 43.8995L19.3999 43.7995H19.2999L19.1999 43.6995H18.9999L18.8999 43.5995H18.7999L18.5999 43.4995L18.3999 43.3995H18.1999V43.2995H17.9999L17.8999 43.1995H17.7999L17.6999 43.0995H17.5999L17.4999 42.9995H17.3999L17.2999 42.8995H17.1999L17.0999 42.7995H16.9999L16.8999 42.6995H16.6999L16.5999 42.5995H16.4999L16.3999 42.4995H16.2999L16.1999 42.3995L16.0999 42.2995H15.9999L15.8999 42.1995H15.7999L15.6999 42.0995H15.5999L15.4999 41.9995H15.3999L15.2999 41.8995L15.1999 41.7995H15.0999L14.9999 41.6995L14.8999 41.5995H14.7999V41.4995H14.5999V41.3995H14.4999L14.3999 41.2995H14.2999L14.1999 41.1995L13.9999 41.0995V40.9995H13.8999L13.7999 40.8995H13.6999L13.5999 40.7995L13.3999 40.6995L13.2999 40.5995H13.1999V40.4995H12.9999V40.3995H12.8999L12.7999 40.2995L12.5999 40.1995V39.9995H12.4999L12.3999 39.8995L12.1999 39.7995L12.0999 39.6995L11.8999 39.5995L11.7999 39.4995L11.6999 39.3995H11.5999V39.2995L11.3999 39.1995L11.2999 39.0995L11.1999 38.9995H10.9999L10.8999 38.8995L10.7999 38.7995L10.6999 38.6995H10.5999V38.5995H10.4999V38.4995H10.3999L10.2999 38.3995L10.1999 38.2995V38.1995H9.99991V37.9995L9.89991 37.8995L9.79991 37.7995L9.69991 37.6995L9.59991 37.5995L9.49991 37.4995L9.39991 37.3995L9.29991 37.2995L9.19991 37.1995V37.0995H8.99991V36.9995H8.89991V36.8995H8.79991V36.7995L8.69991 36.6995V36.5995L8.59991 36.4995L8.49991 36.3995V36.2995H8.39991V36.1995L8.29991 36.0995V35.9995H8.19991V35.8995L8.09991 35.7995V35.6995L7.99991 35.5995V35.4995L7.89991 35.3995V35.1995L7.79991 35.0995V34.6995H7.69991V33.1995L7.59991 33.2995Z"
      fill="#0C0D1D"
    />
    <path
      d="M7.60006 40.0003V39.8003H7.70006V39.4003L7.80006 39.3003V39.0003H8.00006V38.9003L8.10006 38.8003V38.6003H8.20006V38.4003L8.30006 38.3003V38.2003H8.40006V38.0003H8.50006V37.9003H8.60006V37.7003H8.70006V37.6003H8.80006V37.4003H8.90006V37.3003H9.00006V37.0003L9.10006 36.9003L9.20006 36.8003V36.7003L9.30006 36.6003L9.40006 36.5003V36.4003H9.50006L9.60006 36.3003L9.70006 36.2003V36.1003H9.80006V36.0003H10.0001V35.9003H10.1001V35.8003L10.2001 35.7003H10.3001V35.6003L10.4001 35.5003L10.5001 35.4003L10.6001 35.3003L10.7001 35.2003L10.8001 35.1003L10.9001 35.0003L11.0001 34.9003L11.1001 34.8003L11.2001 34.7003L11.3001 34.6003L11.4001 34.5003L11.5001 34.4003L11.6001 34.3003L11.8001 34.2003V34.0003H11.9001L12.1001 33.9003L12.2001 33.8003V33.7003H12.3001L12.4001 33.6003L12.6001 33.5003V33.4003H12.7001L12.8001 33.3003V33.2003H13.0001V33.0003L13.1001 32.9003H13.2001L13.3001 32.8003L13.4001 32.7003L13.6001 32.6003V32.5003H13.7001L13.8001 32.4003L13.9001 32.3003H14.0001V32.2003L14.2001 32.1003L14.4001 32.0003H14.5001L14.6001 31.9003L14.7001 31.8003H14.8001L14.9001 31.7003L15.0001 31.6003H15.1001L15.2001 31.5003V31.4003H15.4001V31.3003L15.6001 31.2003L15.8001 31.1003V31.0003H16.0001V30.9003L16.2001 30.8003L16.4001 30.7003V30.6003H16.6001V30.5003H16.8001V30.3003H17.0001L17.2001 30.1003H17.4001L17.5001 29.9003H17.7001L17.8001 29.7003H18.0001L18.1001 29.5003H18.4001V29.3003H18.6001L18.8001 29.1003H19.0001L19.1001 28.9003H19.4001V28.7003H19.8001L19.9001 28.5003H20.1001L20.3001 28.3003H20.5001L20.6001 28.1003H20.8001L21.0001 27.9003H21.2001L21.3001 27.7003H21.5001L21.7001 27.5003H22.0001L22.1001 27.3003H22.3001L22.5001 27.1003H22.7001L22.9001 26.9003H23.1001L23.2001 26.7003H23.4001L23.6001 26.5003H23.8001L23.9001 26.4003H24.0001L24.2001 26.3003L24.3001 26.2003H24.4001L24.6001 26.1003H24.7001L24.8001 26.0003L25.0001 25.9003H25.1001L25.2001 25.8003H25.4001L25.5001 25.7003L25.7001 25.6003L25.9001 25.5003H26.1001L26.2001 25.4003L26.4001 25.3003L26.6001 25.2003H26.8001L26.9001 25.1003L27.0001 25.0003H27.2001L27.3001 24.9003H27.5001L27.6001 24.8003L27.7001 24.7003H27.9001L28.0001 24.6003H28.2001L28.3001 24.5003L28.5001 24.4003H28.6001L28.8001 24.3003H28.9001L29.1001 24.2003L29.2001 24.1003H29.4001L29.5001 24.0003H29.6001L29.8001 23.9003L29.9001 23.8003H30.1001L30.2001 23.7003H30.4001L30.5001 23.6003L30.7001 23.5003H30.8001L31.0001 23.4003H31.1001L31.3001 23.3003L31.4001 23.2003C31.5351 23.1744 31.6687 23.141 31.8001 23.1003H31.9001C32.0033 23.0385 32.1034 22.9718 32.2001 22.9003H32.4001L32.5001 22.8003H32.7001L32.8001 22.7003H33.0001L33.1001 22.5003H33.5001L33.6001 22.4003H33.8001L33.9001 22.2003H34.3001L34.4001 22.1003H34.6001L34.7001 22.0003L34.9001 21.9003H35.1001L35.2001 21.8003H35.4001L35.5001 21.7003L35.7001 21.6003H35.9001L36.0001 21.5003H36.2001L36.4001 21.4003L36.5001 21.3003H36.7001L36.9001 21.2003H37.0001L37.2001 21.1003L37.4001 21.0003H37.5001L37.7001 20.9003H37.9001L38.0001 20.8003L38.2001 20.7003H38.4001L38.5001 20.6003H38.7001L38.9001 20.5003L39.0001 20.4003H39.2001L39.4001 20.3003H39.6001L39.7001 20.2003H39.9001L40.1001 20.1003H40.2001L40.4001 20.0003H40.6001L40.8001 19.9003H40.9001L41.1001 19.8003H41.3001L41.5001 19.7003H41.6001L41.7001 19.6003H41.9001L42.1001 19.5003H42.3001L42.4001 19.4003H42.6001L42.8001 19.3003H43.0001L43.1001 19.2003L43.3001 19.1003H43.5001L43.7001 19.0003H43.9001L44.0001 18.9003H44.2001L44.4001 18.8003H44.6001L44.8001 18.7003H45.0001L45.1001 18.6003H45.3001L45.5001 18.5003H45.7001L45.9001 18.4003H46.1001L46.3001 18.3003L46.4001 18.2003H46.6001L46.8001 18.1003H47.0001L47.2001 18.0003H47.4001L47.6001 17.9003H47.7001L47.9001 17.8003H48.1001L48.3001 17.7003H48.5001L48.7001 17.6003H48.9001L49.1001 17.5003L49.3001 17.4003H49.5001L49.6001 17.3003H49.8001L50.0001 17.2003H50.2001L50.4001 17.1003H50.6001L50.8001 17.0003H51.2001L51.4001 16.9003H51.6001L51.8001 16.8003H52.0001L52.1001 16.7003H52.3001L52.5001 16.6003H52.7001L52.9001 16.5003H53.1001L53.3001 16.4003H53.5001L53.7001 16.3003H54.1001L54.3001 16.2003H54.5001L54.7001 16.1003H54.9001L55.1001 16.0003H55.3001L55.5001 15.9003H55.7001L55.9001 15.8003H56.1001L56.3001 15.7003H56.7001L56.9001 15.6003H57.1001L57.3001 15.5003H57.5001L57.8001 15.4003H58.0001L58.2001 15.3003H58.4001L58.6001 15.2003H58.8001L59.0001 15.1003H59.2001L59.4001 15.0003H59.8001L60.0001 14.9003H60.2001L60.4001 14.8003H60.6001L60.8001 14.7003H61.3001L61.5001 14.6003H61.7001L61.9001 14.5003H62.3001L62.5001 14.4003H62.7001L63.0001 14.3003H63.4001C64.262 14.1014 65.0096 13.5682 65.4785 12.818C65.9473 12.0679 66.099 11.1622 65.9001 10.3003C65.7012 9.43832 65.168 8.69069 64.4178 8.22184C63.6677 7.753 62.762 7.60136 61.9001 7.80027H61.4001L61.2001 7.90027H60.8001L60.6001 8.00027H60.2001L59.9001 8.10027H59.7001L59.5001 8.20027H59.3001L59.1001 8.30027H58.7001L58.5001 8.40027H58.3001L58.0001 8.50027H57.8001L57.6001 8.60027H57.4001L57.2001 8.70027H57.0001L56.8001 8.80027H56.6001L56.4001 8.90027H56.2001L56.0001 9.00027H55.6001L55.4001 9.10027H55.2001L55.0001 9.20027H54.8001L54.5001 9.30027H54.3001L54.1001 9.40027H54.0001L53.8001 9.50027H53.6001L53.4001 9.60027H53.0001L52.8001 9.70027H52.6001L52.4001 9.80027H52.2001L52.0001 10.0003H51.8001L51.6001 10.1003H51.4001L51.2001 10.2003H51.0001L50.8001 10.3003H50.6001L50.4001 10.4003H50.0001L49.9001 10.5003H49.7001L49.5001 10.6003H49.3001L49.1001 10.7003H48.9001L48.7001 10.8003L48.5001 10.9003H48.3001L48.1001 11.0003H47.9001L47.7001 11.1003H47.5001L47.4001 11.2003H47.0001L46.8001 11.3003H46.6001L46.4001 11.4003H46.2001L46.0001 11.5003H45.8001L45.6001 11.6003H45.4001L45.3001 11.7003L45.1001 11.8003H45.0001L44.8001 11.9003H44.6001L44.4001 12.0003H44.2001L44.0001 12.1003L43.8001 12.2003H43.6001L43.4001 12.3003H43.2001L43.0001 12.4003H42.8001L42.7001 12.5003H42.5001L42.3001 12.6003L42.1001 12.7003H41.9001L41.8001 12.8003H41.6001L41.4001 12.9003H41.2001L41.0001 13.0003H40.9001L40.7001 13.1003H40.5001L40.3001 13.2003H40.0001L39.4001 13.5003H39.1001L38.9001 13.6003H38.7001L38.5001 13.7003L38.3001 13.8003H38.2001L38.0001 13.9003H37.8001L37.6001 14.0003H37.5001L37.3001 14.1003H37.1001L37.0001 14.3003H36.6001L36.4001 14.4003H36.3001L36.1001 14.6003H35.7001L35.6001 14.7003H35.4001L35.2001 14.9003H35.0001L34.8001 15.0003H34.7001L34.5001 15.1003L34.3001 15.2003H34.2001L34.0001 15.3003H33.8001L33.7001 15.4003L33.5001 15.5003H33.3001L33.2001 15.6003H33.0001L32.8001 15.7003L32.7001 15.8003H32.5001L32.3001 15.9003H32.2001L32.0001 16.0003L31.9001 16.1003H31.7001L31.5001 16.2003H31.4001L31.2001 16.3003L31.1001 16.4003H30.9001L30.7001 16.5003H30.6001L30.4001 16.6003L30.3001 16.7003H30.0001L29.8001 16.8003H29.7001L29.5001 16.9003L29.4001 17.0003H29.2001L29.1001 17.1003H28.9001L28.8001 17.2003L28.6001 17.3003H28.4001L28.3001 17.4003H28.1001L28.0001 17.5003L27.8001 17.6003H27.7001L27.5001 17.7003H27.4001L27.2001 17.8003L27.1001 17.9003H26.9001L26.8001 18.0003H26.6001C26.4965 18.0614 26.3963 18.1282 26.3001 18.2003C26.1985 18.2288 26.0984 18.2622 26.0001 18.3003L25.8001 18.4003H25.7001L25.6001 18.6003H25.2001L25.0001 18.7003C24.9038 18.7724 24.8036 18.8391 24.7001 18.9003H24.5001L24.4001 19.0003H24.3001L24.1001 19.2003H23.7001L23.6001 19.3003H23.5001L23.3001 19.5003H23.0001L22.9001 19.6003L22.8001 19.7003H22.6001L22.5001 19.8003L22.3001 19.9003H22.2001L22.1001 20.0003L21.9001 20.1003H21.8001L21.7001 20.2003L21.5001 20.3003L21.3001 20.4003L21.1001 20.5003L20.9001 20.6003L20.7001 20.7003L20.5001 20.8003L20.3001 20.9003L20.1001 21.0003L20.0001 21.1003H19.8001L19.7001 21.2003L19.6001 21.3003H19.4001V21.4003L19.2001 21.5003H19.1001L18.9001 21.6003V21.7003H18.7001L18.6001 21.8003L18.4001 21.9003L18.2001 22.0003L18.1001 22.1003H17.9001V22.2003L17.7001 22.3003H17.6001L17.5001 22.4003L17.4001 22.5003L16.8001 22.8003H16.7001L16.5001 22.9003V23.0003H16.3001L16.2001 23.1003L16.1001 23.2003H16.0001L15.8001 23.3003V23.4003H15.6001L15.5001 23.5003L15.4001 23.6003H15.3001L15.2001 23.7003L15.0001 23.8003L14.8001 23.9003L14.7001 24.0003H14.6001L14.5001 24.1003L14.4001 24.2003H14.3001L14.1001 24.3003V24.4003H13.9001V24.5003L13.7001 24.6003L13.5001 24.7003L13.4001 24.8003H13.3001L13.2001 24.9003L13.1001 25.0003H13.0001L12.9001 25.1003L12.8001 25.2003H12.7001L12.6001 25.3003L12.5001 25.4003H12.4001L12.3001 25.5003H12.2001L12.1001 25.7003H11.9001L11.8001 25.9003H11.6001L11.5001 26.1003H11.3001L11.2001 26.3003H11.0001L10.9001 26.5003H10.7001V26.7003H10.5001L10.3001 26.9003H10.0001V27.1003H9.80006L9.70006 27.3003H9.60006L9.40006 27.5003H9.30006L9.20006 27.7003H9.00006V27.9003H8.80006L8.70006 28.0003L8.60006 28.1003H8.50006V28.2003L8.30006 28.3003L7.80006 28.8003H7.70006L7.60006 28.9003L7.40006 29.1003H7.30006L7.20006 29.3003H7.10006L7.00006 29.5003H6.80006V29.6003L6.70006 29.7003L6.50006 29.8003V29.9003H6.40006V30.0003L6.30006 30.1003H6.20006V30.2003L6.10006 30.3003H6.00006V30.4003L5.90006 30.5003H5.80006V30.6003L5.70006 30.7003H5.60006V30.8003L5.50006 30.9003H5.40006V31.0003L5.30006 31.1003L5.20006 31.2003L5.10006 31.3003L5.00006 31.4003V31.5003L4.90006 31.6003V31.7003H4.80006V31.8003L4.70006 31.9003L4.60006 32.0003L4.50006 32.1003L4.10006 32.6003L4.00006 32.7003L3.90006 32.9003H3.80006V33.1003H3.70006L3.60006 33.3003H3.50006V33.5003H3.40006L3.30006 33.7003L3.20006 33.9003H3.00006V34.3003H2.90006L2.80006 34.5003L2.70006 34.7003L2.60006 34.9003C2.44309 35.0835 2.30879 35.2849 2.20006 35.5003V35.6003L2.10006 35.7003V35.8003L2.00006 35.9003V36.1003L1.90006 36.2003V36.4003H1.70006V36.6003H1.60006V36.9003L1.50006 37.0003V37.1003L1.20006 37.8003V38.3003H1.10006V38.7003H1.00006V39.0003C0.933135 39.2617 0.899535 39.5305 0.900062 39.8003V40.8003C0.893117 41.1034 0.926749 41.4061 1.00006 41.7003V42.0003L1.10006 42.1003V42.3003L1.40006 42.9003V43.2003L1.50006 43.3003V43.5003H1.60006V43.7003H1.70006V43.8003L1.80006 43.9003V44.0003L2.10006 44.6003H2.20006V44.7003L2.30006 44.8003V44.9003L2.40006 45.0003V45.1003H2.50006V45.2003L2.60006 45.3003V45.4003H2.70006V45.5003H3.00006V45.6003L3.10006 45.7003V45.8003H3.20006V45.9003L3.70006 46.4003V46.5003H3.80006V46.6003L3.90006 46.7003L4.00006 46.8003L4.10006 46.9003L4.20006 47.0003V47.1003H4.30006V47.2003H4.40006V47.3003H4.50006V47.4003H4.60006L4.70006 47.5003L4.80006 47.6003L4.90006 47.7003L5.00006 47.8003L5.10006 47.9003L5.20006 48.0003L5.30006 48.1003L5.40006 48.2003L5.90006 48.6003L6.10006 48.7003L6.20006 48.8003H6.30006V48.9003H6.40006L6.50006 49.0003L6.60006 49.1003L6.80006 49.2003V49.3003H7.00006V49.4003H7.20006V49.5003H7.30006V49.6003H7.50006V49.7003H7.60006V49.8003H7.70006L7.80006 49.9003L8.00006 50.0003L8.10006 50.1003H8.30006V50.2003H8.40006L8.50006 50.3003L8.70006 50.4003L8.80006 50.5003H8.90006V50.6003H9.00006V50.7003H9.20006V50.8003H9.40006V50.9003H9.50006L9.60006 51.0003L10.1001 51.3003H10.2001L10.3001 51.4003H10.4001L10.5001 51.5003H10.7001V51.6003H10.8001L10.9001 51.7003H11.0001L11.1001 51.8003L11.3001 51.9003L11.5001 52.0003L11.7001 52.1003H11.8001L11.9001 52.2003H12.0001L12.1001 52.3003H12.2001L12.3001 52.4003H12.4001V52.5003H12.6001V52.6003H12.8001V52.7003H13.0001V52.8003H13.2001L13.4001 52.9003L13.6001 53.0003H13.8001V53.1003H14.0001C14.0666 53.1339 14.1333 53.1672 14.2001 53.2003H14.3001L14.4001 53.3003C14.4646 53.3377 14.5314 53.3711 14.6001 53.4003H14.8001L14.9001 53.5003H15.0001L15.1001 53.6003H15.3001L15.5001 53.7003L15.7001 53.8003H15.9001L16.0001 53.9003H16.1001L16.2001 54.0003H16.3001C16.3973 54.0415 16.4976 54.0749 16.6001 54.1003L16.8001 54.2003H17.0001L17.1001 54.3003H17.3001V54.4003H17.5001L17.7001 54.5003H17.9001L18.1001 54.6003L18.3001 54.7003H18.5001L18.7001 54.8003C18.7668 54.8334 18.8335 54.8668 18.9001 54.9003H19.1001L19.2001 55.0003H19.4001V55.1003H19.8001L20.2001 55.3003H20.4001V55.4003H20.7001L20.9001 55.5003C20.9655 55.5361 21.0322 55.5694 21.1001 55.6003H21.3001V55.7003C21.3982 55.739 21.4983 55.7724 21.6001 55.8003H21.8001L22.0001 55.9003H22.3001L22.4001 56.0003H22.6001L22.8001 56.1003H23.0001L23.2001 56.2003H23.4001L23.6001 56.3003H23.8001L24.0001 56.4003H24.2001L24.4001 56.5003H24.6001L24.8001 56.6003H25.0001L25.2001 56.7003H25.5001V56.8003H25.9001L26.0001 56.9003H26.2001L26.4001 57.0003H26.7001L26.8001 57.1003H27.1001L27.3001 57.2003H27.5001L27.7001 57.3003H28.0001L28.1001 57.4003H28.6001L28.7001 57.5003H29.0001L29.1001 57.6003H29.4001L29.6001 57.7003H29.9001L30.0001 57.8003H30.3001L30.5001 57.9003H30.8001L30.9001 58.0003H31.2001L31.4001 58.1003H31.8001L32.0001 58.2003H32.4001L32.6001 58.3003H32.9001L33.0001 58.4003H33.5001L33.7001 58.5003H34.1001L34.3001 58.6003H34.8001L34.9001 58.7003H35.2001L35.4001 58.8003H35.9001L36.0001 58.9003H36.5001L36.7001 59.0003H37.1001L37.3001 59.1003H37.8001L38.0001 59.2003H38.3001L38.5001 59.3003H39.0001L39.1001 59.4003H39.6001L39.8001 59.5003H40.3001L40.5001 59.6003H41.1001L41.3001 59.7003H42.0001L42.1001 59.8003H42.8001L43.0001 59.9003H43.7001L43.9001 60.0003H44.6001L44.7001 60.1003H45.4001L45.6001 60.2003H46.3001L46.5001 60.3003H47.3001L47.5001 60.4003H48.2001L48.3001 60.5003H49.0001L49.2001 60.6003H49.9001L50.1001 60.7003H51.2001L51.4001 60.8003H52.5001L52.6001 60.9003H54.0001L54.2001 61.0003H55.3001L55.5001 61.1003H56.8001L57.0001 61.2003H58.2001L58.3001 61.3003H59.7001L59.9001 61.4003H61.0001L61.1001 61.5003H61.5001C61.7653 61.5003 62.0196 61.3949 62.2072 61.2074C62.3947 61.0198 62.5001 60.7655 62.5001 60.5003C62.5001 60.2351 62.3947 59.9807 62.2072 59.7932C62.0196 59.6056 61.7653 59.5003 61.5001 59.5003H60.4001L60.2001 59.4003H59.4001L59.2001 59.3003H58.4001L58.3001 59.2003H57.5001L57.3001 59.1003H56.6001L56.4001 59.0003H55.7001L55.5001 58.9003H54.8001L54.6001 58.8003H53.8001L53.6001 58.7003H53.0001L52.8001 58.6003H52.0001L51.8001 58.5003H51.3001L51.1001 58.4003H50.6001L50.4001 58.3003H50.0001L49.8001 58.2003H49.3001L49.0001 58.0003H48.6001L48.4001 57.9003H48.0001L47.9001 57.8003H47.2001L47.1001 57.7003H46.6001L46.4001 57.6003H46.0001L45.9001 57.5003H45.3001L45.2001 57.4003H44.7001L44.5001 57.3003H44.0001L43.8001 57.2003H43.5001L43.3001 57.1003H42.8001L42.6001 57.0003H42.3001L42.1001 56.9003H41.8001L41.6001 56.8003H41.3001L41.1001 56.7003H40.8001L40.7001 56.6003H40.3001L40.2001 56.5003H39.8001L39.7001 56.4003H39.4001L39.2001 56.3003H38.9001L38.7001 56.2003H38.4001L38.2001 56.1003H38.0001L37.9001 56.0003H37.5001L37.4001 55.9003H37.0001L36.8001 55.8003H36.5001L36.3001 55.7003H36.0001L35.9001 55.6003H35.6001L35.4001 55.5003H35.1001L35.0001 55.4003H34.7001L34.5001 55.3003H34.3001L34.2001 55.2003H33.9001L33.7001 55.1003H33.4001L33.3001 55.0003H33.0001L32.9001 54.9003H32.7001L32.5001 54.8003H32.4001L32.3001 54.7003H32.0001L31.8001 54.6003H31.7001L31.5001 54.5003C31.3684 54.4606 31.2349 54.4272 31.1001 54.4003H30.9001L30.8001 54.3003H30.5001L30.4001 54.2003H30.2001L30.1001 54.1003H29.8001L29.6001 54.0003L29.4001 53.9003H29.0001L28.9001 53.8003H28.7001L28.6001 53.7003H28.4001L28.3001 53.6003H28.0001L27.9001 53.5003H27.7001L27.6001 53.4003H27.4001L27.3001 53.3003H27.0001L26.9001 53.2003H26.7001L26.5001 53.1003H26.3001V53.0003H26.0001V52.9003H25.8001L25.6001 52.8003H25.4001L25.3001 52.7003H25.0001V52.6003H24.8001L24.7001 52.5003H24.5001V52.4003H24.2001L24.0001 52.3003L23.9001 52.2003H23.7001V52.0003H23.5001L23.4001 51.9003H23.2001V51.8003H23.0001L22.9001 51.7003H22.6001V51.6003H22.4001L22.3001 51.5003H22.2001L22.0001 51.4003L21.8001 51.3003H21.7001L21.6001 51.2003H21.4001V51.1003H21.2001L21.1001 51.0003H20.9001L20.7001 50.9003L20.5001 50.8003L20.3001 50.7003H20.2001L20.1001 50.6003H20.0001L19.8001 50.5003L19.6001 50.4003H19.4001L19.3001 50.3003H19.2001L19.1001 50.2003H19.0001L18.9001 50.1003H18.7001V50.0003H18.3001V49.9003H18.0001L17.9001 49.8003H17.7001L17.6001 49.7003H17.5001L17.4001 49.6003H17.3001L17.2001 49.5003H17.1001L17.0001 49.4003L16.9001 49.3003H16.8001L16.7001 49.2003H16.6001L16.5001 49.1003H16.4001L16.3001 49.0003H16.2001L16.1001 48.9003H16.0001L15.9001 48.8003H15.8001L15.7001 48.7003H15.6001L15.5001 48.6003H15.4001V48.5003H15.3001L15.2001 48.4003H15.0001L14.9001 48.3003H14.8001L14.7001 48.2003L14.5001 48.1003L14.4001 48.0003H14.3001L14.2001 47.9003L14.1001 47.8003L13.9001 47.7003L13.8001 47.6003H13.7001L13.6001 47.5003H13.5001V47.4003H13.3001V47.3003H13.2001L13.1001 47.2003L12.9001 47.1003V47.0003H12.8001L12.7001 46.9003L12.5001 46.8003L12.4001 46.7003H12.3001V46.6003H12.1001V46.5003H12.0001V46.4003H11.8001V46.3003H11.7001V46.2003L11.6001 46.1003H11.5001V46.0003H11.3001V45.9003H11.2001V45.8003H11.1001L11.0001 45.7003L10.9001 45.6003H10.8001V45.5003H10.7001V45.4003H10.6001L10.5001 45.3003L10.4001 45.2003V45.0003H10.3001L10.2001 44.9003L10.1001 44.8003L10.0001 44.7003V44.6003H9.90006V44.5003H9.80006V44.4003H9.70006V44.3003H9.60006V44.2003L9.50006 44.1003L9.40006 44.0003L9.30006 43.9003H9.20006V43.8003L9.10006 43.7003L9.00006 43.6003L8.90006 43.5003L8.80006 43.4003V43.3003L8.70006 43.2003V43.1003H8.60006V43.0003H8.50006L8.40006 42.9003V42.8003H8.30006V42.7003L8.20006 42.6003V42.5003H8.00006V42.0003L7.90006 41.9003V41.7003H7.80006V41.4003L7.70006 41.3003V40.0003H7.60006Z"
      fill="#0433FF"
    />
    <path
      d="M7.60008 46.5999V46.4999L7.70008 46.3999V45.9999H7.80008V45.5999H8.00008V45.3999L8.10008 45.2999V45.1999L8.20008 45.0999V44.9999H8.30008V44.8999L8.40008 44.7999V44.6999L8.50008 44.5999L8.60008 44.4999V44.3999L8.70008 44.2999L8.80008 44.1999V43.9999L8.90008 43.8999L9.00008 43.7999V43.5999H9.10008V43.4999L9.20008 43.3999V43.2999H9.30008V43.1999L9.40008 43.0999L9.50008 42.9999H9.60008L9.70008 42.8999L9.80008 42.7999V42.6999H10.0001L10.1001 42.5999L10.2001 42.4999V42.3999H10.3001L10.4001 42.2999V42.1999H10.5001V41.9999L10.6001 41.8999C10.6668 41.8666 10.7335 41.8333 10.8001 41.7999V41.6999H10.9001V41.5999L11.0001 41.4999H11.1001V41.3999L11.2001 41.2999H11.3001V41.1999L11.4001 41.0999H11.5001V40.9999L11.6001 40.8999H11.7001V40.7999L11.9001 40.6999L12.0001 40.5999V40.4999H12.2001V40.3999L12.3001 40.2999L12.4001 40.1999H12.5001V40.0999L12.7001 39.9999L12.8001 39.8999L12.9001 39.7999L13.1001 39.6999V39.5999H13.2001L13.3001 39.4999L13.4001 39.3999H13.5001V39.2999L13.7001 39.1999L13.8001 39.0999L13.9001 38.9999H14.0001L14.1001 38.8999V38.7999H14.3001V38.6999L14.5001 38.5999L14.6001 38.4999L14.7001 38.3999H14.8001L14.9001 38.2999H15.0001L15.1001 38.0999H15.2001L15.4001 37.8999H15.6001V37.6999H15.8001L16.0001 37.4999H16.2001V37.2999H16.4001L16.6001 37.0999H16.8001V36.9999H17.0001L17.2001 36.7999H17.4001L17.5001 36.5999H17.7001L17.8001 36.3999H18.0001L18.1001 36.1999H18.3001L18.5001 35.9999H18.7001V35.7999H19.0001L19.1001 35.6999L19.2001 35.5999H19.3001L19.5001 35.4999V35.3999H19.7001L19.8001 35.2999L19.9001 35.1999H20.0001L20.1001 35.0999L20.3001 34.9999L20.5001 34.7999H20.7001L20.9001 34.5999H21.1001L21.2001 34.3999H21.4001V34.2999L21.6001 34.1999H21.7001L21.9001 34.0999L22.0001 33.9999H22.1001L22.2001 33.8999L22.4001 33.7999H22.5001L22.6001 33.6999L22.8001 33.5999L23.0001 33.4999L23.1001 33.3999H23.3001V33.2999L23.5001 33.1999H23.6001L23.8001 33.0999H23.9001L24.0001 32.8999H24.3001L24.4001 32.7999H24.6001L24.7001 32.6999L24.8001 32.5999H25.0001L25.1001 32.4999C25.2021 32.4729 25.3023 32.4395 25.4001 32.3999L25.5001 32.2999H25.7001V32.1999H25.9001L26.1001 32.0999L26.2001 31.9999H26.4001V31.8999H26.6001L26.8001 31.7999L26.9001 31.6999H27.0001L27.2001 31.5999C27.3001 31.5666 27.4001 31.5333 27.5001 31.4999L27.6001 31.3999H27.7001C27.7965 31.3279 27.8966 31.2612 28.0001 31.1999H28.2001L28.3001 31.0999H28.5001L28.6001 30.9999H28.8001L28.9001 30.8999L29.1001 30.7999H29.2001L29.4001 30.6999H29.5001L29.6001 30.5999L29.8001 30.4999H29.9001L30.1001 30.3999H30.2001L30.4001 30.2999L30.5001 30.1999H30.7001L30.8001 30.0999H31.0001L31.1001 29.9999L31.3001 29.8999H31.4001L31.6001 29.7999H31.8001C31.9033 29.7381 32.0034 29.6714 32.1001 29.5999H32.2001L32.4001 29.4999H32.5001L32.7001 29.3999H32.8001L33.0001 29.1999H33.3001L33.5001 29.0999H33.6001L33.8001 28.8999H34.0001L34.2001 28.7999H34.3001L34.5001 28.5999H34.9001L35.1001 28.4999H35.2001L35.4001 28.3999L35.5001 28.2999H35.7001L35.9001 28.1999H36.0001L36.2001 28.0999L36.4001 27.9999H36.5001L36.7001 27.8999H36.9001L37.0001 27.7999L37.2001 27.6999H37.4001L37.5001 27.5999H37.7001L37.9001 27.4999L38.0001 27.3999H38.2001L38.4001 27.2999H38.5001L38.7001 27.1999L38.9001 27.0999H39.0001L39.2001 26.9999H39.4001L39.6001 26.8999H39.7001L39.9001 26.7999H40.1001L40.2001 26.6999H40.4001L40.6001 26.5999H40.8001L40.9001 26.4999H41.1001L41.3001 26.3999L41.5001 26.2999H41.7001L41.9001 26.1999H42.1001L42.3001 26.0999H42.4001L42.6001 25.9999L42.8001 25.8999H43.0001L43.1001 25.7999H43.3001L43.5001 25.6999H43.7001L43.9001 25.5999H44.0001L44.2001 25.4999H44.4001L44.6001 25.3999H44.8001L45.0001 25.2999H45.1001L45.3001 25.1999H45.5001L45.7001 25.0999L45.9001 24.9999H46.1001L46.3001 24.8999H46.4001L46.6001 24.7999H46.8001L47.0001 24.6999H47.2001L47.4001 24.5999H47.6001L47.7001 24.4999H47.9001L48.1001 24.3999H48.3001L48.5001 24.2999L48.7001 24.1999H48.9001L49.1001 24.0999H49.3001L49.5001 23.9999H49.6001L49.8001 23.8999H50.0001L50.2001 23.7999H50.4001L50.6001 23.6999H50.8001L51.0001 23.5999H51.2001L51.4001 23.4999H51.8001L52.0001 23.3999H52.1001L52.3001 23.2999H52.5001L52.7001 23.1999H52.9001L53.1001 23.0999H53.3001L53.5001 22.9999H53.7001L53.9001 22.8999H54.1001L54.3001 22.7999H54.7001L54.9001 22.6999H55.1001L55.3001 22.5999H55.5001L55.7001 22.4999H55.9001L56.1001 22.3999H56.3001L56.5001 22.2999H56.7001L56.9001 22.1999H57.3001L57.5001 22.0999H57.8001L58.0001 21.9999H58.2001L58.4001 21.8999H58.6001L58.8001 21.7999H59.0001L59.2001 21.6999H59.4001L59.6001 21.5999H59.8001L60.0001 21.4999H60.4001L60.6001 21.3999H60.8001L61.0001 21.2999H61.5001L61.7001 21.1999H61.9001L62.1001 21.0999H62.5001L62.7001 20.9999H63.0001L63.2001 20.8999H63.4001C63.8269 20.8014 64.2301 20.6198 64.5867 20.3655C64.9433 20.1111 65.2464 19.7891 65.4785 19.4176C65.7106 19.0462 65.8674 18.6327 65.9397 18.2007C66.012 17.7687 65.9986 17.3267 65.9001 16.8999C65.8016 16.4731 65.62 16.0699 65.3657 15.7132C65.1113 15.3566 64.7893 15.0536 64.4178 14.8214C64.0464 14.5893 63.6329 14.4326 63.2009 14.3602C62.7689 14.2879 62.3269 14.3014 61.9001 14.3999C61.6659 14.4266 61.4324 14.46 61.2001 14.4999H61.0001L60.8001 14.5999H60.4001L60.2001 14.6999H59.9001L59.7001 14.7999H59.3001L59.1001 14.8999H58.9001L58.7001 14.9999H58.5001L58.3001 15.0999H58.0001L57.8001 15.1999H57.6001L57.4001 15.2999H57.2001L57.0001 15.3999H56.8001L56.6001 15.4999H56.2001L56.0001 15.5999H55.8001L55.6001 15.6999H55.4001L55.2001 15.7999H55.0001L54.8001 15.8999H54.5001L54.3001 15.9999H54.1001L53.9001 16.0999H53.5001L53.3001 16.1999H53.1001L52.9001 16.2999H52.7001L52.5001 16.3999H52.3001L52.1001 16.4999H52.0001L51.8001 16.5999H51.6001L51.4001 16.6999H51.2001L51.0001 16.7999H50.6001L50.4001 16.8999H50.2001L50.0001 16.9999H49.9001L49.7001 17.0999H49.5001L49.3001 17.1999H49.0001L48.8001 17.2999H48.6001L48.4001 17.3999H48.2001L48.0001 17.4999H47.8001L47.6001 17.5999L47.4001 17.6999H47.3001L47.1001 17.7999H46.9001L46.7001 17.8999H46.5001L46.3001 17.9999H46.0001L45.8001 18.0999H45.6001L45.4001 18.1999H45.3001L45.1001 18.2999H45.0001L44.8001 18.3999L44.6001 18.4999H44.4001L44.2001 18.5999H44.0001L43.9001 18.6999H43.7001L43.5001 18.7999H43.3001L43.1001 18.8999H43.0001L42.8001 18.9999H42.7001L42.5001 19.0999H42.3001L42.1001 19.1999H41.9001L41.8001 19.2999L41.6001 19.3999H41.4001L41.2001 19.4999H41.0001L40.9001 19.5999H40.7001L40.5001 19.6999H40.3001L40.1001 19.7999L39.5001 19.9999H39.3001L39.2001 20.0999H39.0001L38.8001 20.1999H38.6001L38.4001 20.2999H38.3001L38.1001 20.3999H37.9001L37.7001 20.5999H37.3001L37.1001 20.6999H37.0001L36.8001 20.8999H36.4001L36.3001 20.9999H36.0001L35.8001 21.1999H35.6001L35.4001 21.2999H35.2001L35.1001 21.3999L34.9001 21.4999H34.7001L34.6001 21.5999H34.4001L34.2001 21.6999L34.1001 21.7999H33.9001L33.7001 21.8999H33.6001L33.4001 21.9999L33.2001 22.0999H33.1001L32.9001 22.1999H32.7001L32.6001 22.2999L32.4001 22.3999H32.2001L32.1001 22.4999H31.9001L31.8001 22.5999L31.6001 22.6999H31.4001L31.3001 22.7999H31.0001L30.9001 22.8999L30.7001 22.9999H30.5001L30.4001 23.0999H30.2001L30.1001 23.1999L29.9001 23.2999H29.7001L29.6001 23.3999H29.4001L29.3001 23.4999C29.1969 23.5616 29.0968 23.6284 29.0001 23.6999H28.8001L28.6001 23.7999C28.4969 23.8616 28.3968 23.9284 28.3001 23.9999H28.0001L27.8001 24.0999L27.7001 24.1999H27.5001L27.4001 24.2999H27.2001L27.1001 24.3999L26.9001 24.4999H26.8001C26.6964 24.5608 26.5962 24.6276 26.5001 24.6999C26.4001 24.6953 26.3 24.6953 26.2001 24.6999C26.0964 24.7608 25.9962 24.8276 25.9001 24.8999H25.7001L25.6001 24.9999H25.5001L25.3001 25.1999H25.0001L24.9001 25.2999H24.7001L24.6001 25.4999H24.3001L24.2001 25.5999H24.0001L23.9001 25.6999L23.7001 25.7999H23.6001L23.5001 25.8999H23.3001L23.2001 26.0999H22.9001L22.8001 26.2999H22.5001L22.3001 26.4999H22.1001L21.9001 26.6999H21.7001L21.5001 26.8999H21.3001L21.1001 27.0999H20.9001L20.7001 27.1999V27.2999H20.5001L20.3001 27.3999V27.4999H20.0001L19.9001 27.5999L19.7001 27.6999H19.6001L19.5001 27.7999L19.3001 27.8999L19.1001 27.9999L19.0001 28.0999H18.8001V28.1999L18.6001 28.2999H18.5001L18.3001 28.3999V28.4999H18.1001L18.0001 28.5999L17.8001 28.6999L17.6001 28.7999L17.5001 28.8999H17.4001L17.3001 28.9999L16.7001 29.2999L16.6001 29.3999H16.4001V29.4999L16.2001 29.5999H16.1001L16.0001 29.6999L15.9001 29.7999H15.7001V29.8999L15.5001 29.9999H15.4001L15.3001 30.0999L15.2001 30.1999H15.1001L14.9001 30.2999V30.3999H14.7001L14.6001 30.4999L14.5001 30.5999H14.4001L14.3001 30.6999L14.2001 30.7999H14.0001V30.8999L13.8001 30.9999L13.6001 31.0999V31.1999H13.4001L13.3001 31.2999L13.2001 31.3999H13.1001L13.0001 31.4999L12.9001 31.5999H12.8001L12.7001 31.6999L12.6001 31.7999H12.5001L12.4001 31.8999L12.3001 31.9999H12.2001L12.1001 32.0999L12.0001 32.1999L11.9001 32.2999L11.8001 32.3999H11.7001L11.6001 32.4999L11.5001 32.5999H11.4001L11.3001 32.6999L11.2001 32.7999H11.0001L10.9001 32.8999L10.8001 32.9999H10.7001L10.6001 33.0999V33.1999H10.4001V33.2999H10.2001V33.4999H10.0001L9.90008 33.6999H9.70008L9.60008 33.8999H9.40008V34.0999H9.20008L9.10008 34.2999H9.00008L8.80008 34.4999H8.70008L8.60008 34.6999H8.50008L8.30008 34.8999L7.80008 35.2999H7.70008L7.60008 35.4999H7.40008V35.6999H7.20008V35.8999H7.00008V36.0999H6.80008L6.70008 36.2999H6.50008V36.4999H6.40008L6.30008 36.6999H6.20008L6.10008 36.8999H6.00008L5.90008 37.0999H5.80008L5.70008 37.1999L5.60008 37.2999L5.50008 37.3999L5.40008 37.4999L5.30008 37.5999V37.6999H5.20008L5.10008 37.7999V37.8999H5.00008V37.9999L4.90008 38.0999H4.80008V38.1999L4.70008 38.2999L4.60008 38.3999V38.4999H4.50008L4.40008 38.5999L4.00008 39.0999V39.2999L3.90008 39.3999L3.80008 39.4999V39.5999H3.70008V39.6999L3.60008 39.7999L3.50008 39.8999V39.9999H3.40008V40.0999L3.30008 40.1999V40.2999L3.20008 40.3999L3.10008 40.4999L3.00008 40.6999L2.90008 40.8999H2.80008V41.0999H2.70008V41.2999H2.60008V41.4999C2.4431 41.6831 2.3088 41.8845 2.20008 42.0999V42.1999H2.00008V42.5999L1.90008 42.7999V42.9999H1.70008V43.0999L1.60008 43.1999V43.3999L1.50008 43.4999V43.6999C1.30008 43.8999 1.30008 44.0999 1.20008 44.3999V44.7999L1.10008 44.8999V45.2999L1.00008 45.3999V45.6999L0.900076 46.3999V47.3999C0.868594 47.6656 0.868594 47.9341 0.900076 48.1999H1.00008V48.6999H1.10008V48.8999C1.17093 49.1446 1.27169 49.3798 1.40008 49.5999V49.8999H1.50008V50.0999L1.60008 50.1999V50.2999L1.70008 50.3999V50.4999H2.00008V50.5999L2.30008 51.1999L2.40008 51.2999V51.3999H2.50008V51.4999L2.60008 51.5999V51.6999L2.70008 51.7999V51.8999H2.80008V51.9999L2.90008 52.0999L3.00008 52.1999V52.3999H3.10008V52.4999L3.60008 52.9999V53.0999L3.70008 53.1999V53.2999H3.80008V53.3999H4.00008V53.5999H4.10008V53.6999H4.20008V53.7999H4.30008V53.8999L4.40008 53.9999L4.50008 54.0999H4.60008V54.1999H4.70008V54.2999H4.80008V54.3999H5.00008V54.4999L5.10008 54.5999L5.20008 54.6999V54.7999H5.30008L5.80008 55.1999L6.00008 55.2999V55.3999H6.10008L6.20008 55.4999L6.30008 55.5999H6.40008V55.6999H6.50008V55.7999H6.70008V55.8999H7.00008V55.9999L7.20008 56.0999L7.30008 56.1999L7.50008 56.2999L7.60008 56.3999L7.70008 56.4999H7.80008L8.00008 56.5999L8.10008 56.6999L8.30008 56.7999L8.40008 56.8999H8.50008V56.9999H8.70008V57.0999H8.80008L8.90008 57.1999H9.00008V57.2999H9.10008L9.20008 57.3999L9.40008 57.4999L9.50008 57.5999H9.60008L10.1001 57.8999L10.2001 57.9999H10.4001L10.5001 58.0999L10.7001 58.1999L10.8001 58.2999H10.9001L11.0001 58.3999H11.1001V58.4999H11.3001V58.5999H11.5001L11.7001 58.6999L11.8001 58.7999H11.9001L12.0001 58.8999H12.1001L12.2001 58.9999H12.3001L12.4001 59.0999L12.6001 59.1999L12.8001 59.2999H13.0001V59.3999H13.2001V59.4999H13.4001V59.5999H13.6001L13.8001 59.6999L14.0001 59.7999H14.2001L14.3001 59.8999H14.4001C14.4646 59.9373 14.5314 59.9707 14.6001 59.9999H14.7001L14.8001 60.0999H14.9001L15.0001 60.1999H15.3001V60.2999H15.5001V60.3999H15.7001C15.7939 60.4754 15.8943 60.5424 16.0001 60.5999C16.0667 60.6029 16.1334 60.6029 16.2001 60.5999H16.3001L16.5001 60.6999C16.5648 60.7369 16.6316 60.7703 16.7001 60.7999H16.9001L17.0001 60.8999H17.1001C17.2023 60.9263 17.3025 60.9597 17.4001 60.9999C17.4686 61.0294 17.5353 61.0628 17.6001 61.0999H17.8001L17.9001 61.1999H18.1001V61.2999H18.5001L18.6001 61.3999H18.8001V61.4999C18.9001 61.4996 19.0001 61.4996 19.1001 61.4999L19.2001 61.5999H19.3001L19.5001 61.6999H19.7001L19.8001 61.7999L20.2001 61.9999H20.4001C20.4667 62 20.5334 62 20.6001 61.9999L20.7001 62.0999H20.9001C20.9655 62.1357 21.0322 62.169 21.1001 62.1999H21.2001L21.4001 62.2999L21.6001 62.3999H21.8001V62.4999H22.2001L22.4001 62.5999H22.6001L22.7001 62.6999H23.0001L23.1001 62.7999H23.3001L23.4001 62.8999H23.7001L23.8001 62.9999H24.1001L24.2001 63.0999H24.5001L24.6001 63.1999H25.0001L25.1001 63.2999H25.3001L25.5001 63.3999H25.7001L25.9001 63.4999H26.2001V63.5999H26.6001L26.7001 63.6999H27.0001L27.1001 63.7999H27.4001L27.5001 63.8999H27.8001L28.0001 63.9999H28.3001L28.4001 64.0999H28.7001L28.9001 64.1999H29.1001L29.3001 64.2999H29.6001L29.7001 64.3999H30.0001L30.2001 64.4999H30.5001L30.6001 64.5999H31.1001L31.2001 64.6999H31.5001L31.7001 64.7999H32.1001L32.3001 64.8999H32.7001L32.9001 64.9999H33.3001L33.5001 65.0999H33.8001L34.0001 65.1999H34.4001L34.6001 65.2999H35.1001L35.2001 65.3999H35.7001L35.9001 65.4999H36.4001L36.5001 65.5999H36.8001L37.0001 65.6999H37.5001L37.6001 65.7999H38.1001L38.3001 65.8999H38.8001L39.0001 65.9999H39.3001L39.5001 66.0999H40.0001L40.1001 66.1999H40.8001L41.0001 66.2999H41.6001L41.8001 66.3999H42.5001L42.7001 66.4999H43.4001L43.5001 66.5999H44.2001L44.4001 66.6999H45.3001L45.4001 66.7999H46.1001L46.3001 66.8999H47.0001L47.2001 66.9999H47.9001L48.1001 67.0999H48.8001L49.0001 67.1999H49.7001L49.8001 67.2999H50.7001L50.9001 67.3999H52.0001L52.2001 67.4999H53.4001L53.6001 67.5999H54.7001L54.9001 67.6999H56.2001L56.3001 67.7999H57.5001L57.7001 67.8999H59.0001L59.2001 67.9999H60.5001L60.6001 68.0999H61.6001C61.8653 68.0999 62.1196 67.9945 62.3072 67.807C62.4947 67.6194 62.6001 67.3651 62.6001 67.0999C62.6001 66.8347 62.4947 66.5803 62.3072 66.3928C62.1196 66.2052 61.8653 66.0999 61.6001 66.0999H60.0001L59.8001 65.9999H59.0001L58.8001 65.8999H58.1001L57.9001 65.7999H57.2001L57.0001 65.6999H56.2001L56.1001 65.5999H55.3001L55.1001 65.4999H54.4001L54.2001 65.3999H53.5001L53.3001 65.2999H52.6001L52.4001 65.1999H51.7001L51.5001 65.0999H51.0001L50.8001 64.9999H50.4001L50.2001 64.8999H49.7001L49.5001 64.7999H49.0001L48.8001 64.6999H48.3001L48.1001 64.5999H47.6001L47.4001 64.4999H47.1001L46.9001 64.3999H46.4001L46.2001 64.2999H45.7001L45.5001 64.1999H45.0001L44.8001 64.0999H44.5001L44.3001 63.9999H43.8001L43.6001 63.8999H43.1001L43.0001 63.7999H42.6001L42.5001 63.6999H42.0001L41.9001 63.5999H41.5001L41.4001 63.4999H41.0001L40.9001 63.3999H40.7001L40.5001 63.2999H40.2001L40.0001 62.9999H39.7001L39.5001 62.8999H39.2001L39.0001 62.7999H38.7001L38.6001 62.6999H38.2001L38.1001 62.5999H37.8001L37.6001 62.4999H37.3001L37.1001 62.3999H36.8001L36.6001 62.2999H36.3001L36.2001 62.1999H35.9001L35.7001 62.0999H35.4001L35.3001 61.9999H35.0001L34.8001 61.8999H34.5001L34.3001 61.7999H34.2001L34.0001 61.6999H33.7001L33.6001 61.5999H33.4001L33.3001 61.4999H33.0001L32.8001 61.3999H32.5001L32.4001 61.2999H32.3001L32.1001 61.1999H31.8001L31.7001 61.0999C31.5378 61.0228 31.3708 60.956 31.2001 60.8999H30.8001L30.6001 60.7999H30.4001L30.2001 60.6999H30.1001L29.9001 60.5999H29.6001V60.4999H29.4001L29.2001 60.3999H29.0001L28.8001 60.2999H28.7001L28.5001 60.1999H28.3001L28.1001 60.0999H28.0001L27.8001 59.9999H27.6001L27.4001 59.8999H27.3001L27.1001 59.7999H27.0001L26.8001 59.6999H26.6001L26.4001 59.5999L26.2001 59.4999H26.0001L25.8001 59.3999H25.6001V59.2999H25.2001L25.0001 59.1999L24.8001 59.0999H24.7001L24.5001 58.9999L24.3001 58.8999H24.2001L24.0001 58.7999L23.8001 58.6999L23.6001 58.5999H23.5001L23.3001 58.4999L23.1001 58.3999H23.0001L22.9001 58.2999H22.7001V58.1999H22.2001L22.1001 58.0999H22.0001V57.9999H21.8001L21.7001 57.8999H21.6001L21.4001 57.7999L21.2001 57.6999H21.1001L21.0001 57.5999H20.9001L20.7001 57.4999H20.5001V57.3999H20.3001L20.2001 57.2999H20.0001L19.9001 57.1999H19.7001V57.0999H19.5001V56.9999H19.3001L19.2001 56.8999H19.0001L18.9001 56.7999H18.8001L18.6001 56.6999L18.4001 56.5999L18.2001 56.4999L18.0001 56.3999L17.9001 56.2999H17.8001L17.7001 56.1999H17.5001L17.4001 56.0999H17.3001L17.2001 55.9999H16.9001L16.8001 55.8999H16.7001L16.6001 55.7999H16.5001L16.4001 55.6999H16.3001L16.2001 55.5999H16.0001L15.9001 55.4999H15.8001L15.7001 55.3999H15.6001L15.5001 55.2999H15.4001L15.3001 55.1999V54.9999H15.0001L14.9001 54.8999H14.8001V54.7999L14.6001 54.6999L14.5001 54.5999H14.4001L14.3001 54.4999H14.2001V54.3999H14.0001V54.2999H13.9001L13.8001 54.1999H13.7001L13.6001 54.0999L13.4001 53.9999L13.3001 53.8999L13.2001 53.7999L13.0001 53.6999L12.9001 53.5999H12.8001V53.4999H12.6001V53.3999H12.5001L12.4001 53.2999L12.2001 53.1999L12.1001 53.0999V52.9999H11.9001V52.8999H11.8001V52.7999H11.7001L11.6001 52.6999L11.4001 52.5999L11.3001 52.4999L11.2001 52.3999H11.0001V52.2999L10.9001 52.1999V51.9999H10.8001L10.7001 51.8999L10.6001 51.7999L10.5001 51.6999L10.4001 51.5999H10.3001V51.4999H10.2001V51.3999H10.0001L9.90008 51.2999L9.80008 51.1999L9.70008 51.0999L9.60008 50.9999H9.50008V50.8999H9.40008V50.7999H9.30008V50.6999H9.20008L9.10008 50.5999V50.4999H9.00008V50.2999L8.90008 50.1999L8.80008 50.0999V49.9999H8.70008V49.8999L8.60008 49.7999L8.50008 49.6999V49.5999H8.40008V49.4999L8.30008 49.3999V49.2999L8.20008 49.1999V48.9999H8.00008V48.5999H7.90008V48.3999L7.80008 48.2999V47.9999H7.70008V46.4999L7.60008 46.5999Z"
      fill="#9CADFF"
    />
    <path
      d="M7.59991 53.1999V52.9999L7.69991 52.8999V52.4999H7.79991V52.2999L7.89991 52.1999V51.9999H7.99991V51.6999H8.09991V51.5999L8.19991 51.3999L8.29991 51.2999V51.1999H8.39991V50.9999H8.59991V50.8999L8.69991 50.7999V50.6999H8.79991C8.83321 50.6332 8.86654 50.5666 8.89991 50.4999L8.99991 50.3999L9.09991 50.2999V50.1999H9.19991V49.9999L9.29991 49.8999V49.7999H9.39991V49.6999L9.49991 49.5999H9.59991V49.4999H9.69991V49.3999L9.79991 49.2999L9.89991 49.1999H9.99991V49.0999L10.0999 48.9999L10.1999 48.8999L10.2999 48.7999L10.3999 48.6999V48.5999H10.4999L10.5999 48.4999V48.3999H10.6999L10.7999 48.2999V48.1999H10.8999L10.9999 48.0999V47.9999H11.0999L11.1999 47.8999V47.7999H11.2999L11.3999 47.6999V47.5999H11.4999L11.5999 47.4999V47.3999H11.7999V47.2999L11.8999 47.1999L12.0999 47.0999V46.9999H12.2999L12.3999 46.8999V46.7999H12.5999V46.6999L12.6999 46.5999H12.7999V46.4999L12.9999 46.3999L13.0999 46.2999L13.1999 46.1999H13.2999L13.3999 46.0999V45.9999H13.5999V45.8999L13.6999 45.7999H13.7999L13.8999 45.6999L13.9999 45.5999L14.1999 45.4999V45.3999H14.3999V45.2999L14.4999 45.1999H14.5999L14.6999 45.0999L14.7999 44.9999H14.8999L14.9999 44.8999L15.0999 44.7999H15.1999V44.6999H15.3999V44.4999H15.5999L15.7999 44.2999H15.9999V43.9999H16.1999L16.3999 43.7999H16.5999V43.5999H16.7999L16.9999 43.3999H17.1999V43.1999H17.5999L17.6999 42.9999H17.8999L17.9999 42.7999H18.1999L18.2999 42.5999H18.4999L18.6999 42.3999H18.8999L18.9999 42.1999H19.1999L19.2999 42.0999L19.4999 41.9999L19.6999 41.8999L19.7999 41.7999H19.8999L19.9999 41.6999L20.0999 41.5999H20.2999V41.4999L20.4999 41.3999H20.5999L20.7999 41.1999H20.9999L21.0999 40.9999H21.2999L21.4999 40.7999H21.6999L21.7999 40.6999L21.9999 40.5999H22.0999L22.1999 40.4999L22.2999 40.3999H22.4999L22.5999 40.2999L22.6999 40.1999H22.8999V40.0999L23.0999 39.9999H23.1999L23.3999 39.8999V39.7999H23.5999L23.6999 39.6999L23.8999 39.5999H23.9999L24.0999 39.4999H24.2999L24.3999 39.3999L24.4999 39.2999H24.6999L24.7999 39.1999H24.8999L25.0999 39.0999L25.1999 38.9999C25.3018 38.9727 25.402 38.9393 25.4999 38.8999H25.5999L25.7999 38.7999L25.9999 38.5999H26.1999L26.3999 38.4999L26.5999 38.2999H26.9999L27.0999 38.1999H27.2999L27.3999 37.9999H27.5999L27.6999 37.8999H27.8999L27.9999 37.7999L28.1999 37.6999H28.2999L28.4999 37.5999H28.5999L28.7999 37.4999L28.8999 37.3999H29.0999L29.1999 37.2999H29.3999L29.4999 37.1999L29.5999 37.0999H29.7999L29.8999 36.9999H30.0999L30.1999 36.8999L30.3999 36.7999H30.4999L30.6999 36.6999H30.7999L30.9999 36.5999L31.0999 36.4999H31.2999L31.3999 36.3999C31.535 36.3741 31.6685 36.3407 31.7999 36.2999C31.9031 36.2382 32.0032 36.1714 32.0999 36.0999H32.3999L32.4999 35.9999L32.6999 35.8999H32.7999L32.9999 35.7999H33.0999L33.2999 35.6999L33.4999 35.5999H33.5999L33.7999 35.4999H33.8999L34.0999 35.3999L34.2999 35.2999H34.3999L34.5999 35.1999H34.6999L34.8999 35.0999L35.0999 34.9999H35.1999L35.3999 34.8999H35.4999L35.6999 34.7999L35.8999 34.6999H35.9999L36.1999 34.5999H36.3999L36.4999 34.4999H36.6999L36.8999 34.2999H37.1999L37.3999 34.1999H37.4999L37.6999 33.9999H37.9999L38.1999 33.8999H38.3999L38.4999 33.6999H38.8999L38.9999 33.5999H39.1999L39.3999 33.4999H39.5999L39.6999 33.3999H39.8999L40.0999 33.2999L40.1999 33.1999H40.3999L40.5999 33.0999H40.7999L40.8999 32.9999H41.0999L41.2999 32.8999H41.4999L41.5999 32.7999H41.6999L41.8999 32.6999H42.0999L42.2999 32.5999H42.3999L42.5999 32.4999H42.7999L42.9999 32.3999H43.0999L43.2999 32.2999H43.4999L43.6999 32.1999H43.8999L43.9999 32.0999H44.1999L44.3999 31.9999L44.5999 31.8999H44.7999L44.9999 31.7999H45.0999L45.2999 31.6999H45.4999L45.6999 31.5999H45.8999L46.0999 31.4999H46.2999L46.3999 31.3999H46.5999L46.7999 31.2999H46.9999L47.1999 31.1999H47.3999L47.5999 31.0999L47.6999 30.9999H47.8999L48.0999 30.8999H48.2999L48.4999 30.7999H48.6999L48.8999 30.6999H49.0999L49.2999 30.5999H49.4999L49.5999 30.4999H49.7999L49.9999 30.3999H50.1999L50.3999 30.2999H50.5999L50.7999 30.1999H50.9999L51.1999 30.0999H51.3999L51.5999 29.9999H51.7999L51.9999 29.8999H52.0999L52.2999 29.7999H52.6999L52.8999 29.6999H53.0999L53.2999 29.5999H53.4999L53.6999 29.4999H53.8999L54.0999 29.3999H54.2999L54.4999 29.2999H54.6999L54.8999 29.1999H55.0999L55.2999 29.0999H55.6999L55.8999 28.9999H56.0999L56.2999 28.8999H56.4999L56.6999 28.7999H56.8999L57.0999 28.6999H57.2999L57.4999 28.5999H57.7999L57.9999 28.4999H58.3999L58.5999 28.3999H58.7999L58.9999 28.2999H59.1999L59.3999 28.1999H59.5999L59.7999 28.0999H59.9999L60.1999 27.9999H60.5999L60.7999 27.8999H60.9999L61.2999 27.7999H61.6999L61.8999 27.6999H62.0999L62.2999 27.5999H62.6999L62.9999 27.4999H63.1999L63.3999 27.3999C63.865 27.3562 64.3155 27.2141 64.7216 26.9833C65.1276 26.7524 65.4801 26.438 65.7556 26.0608C66.0311 25.6835 66.2234 25.2521 66.3197 24.795C66.4161 24.3379 66.4143 23.8656 66.3144 23.4093C66.2146 22.9529 66.019 22.523 65.7407 22.1479C65.4623 21.7727 65.1074 21.461 64.6996 21.2332C64.2917 21.0055 63.8402 20.8669 63.3748 20.8267C62.9094 20.7865 62.4408 20.8455 61.9999 20.9999H61.4999L61.2999 21.0999H61.0999L60.8999 21.1999H60.4999L60.2999 21.2999H60.0999L59.7999 21.3999H59.3999L59.1999 21.4999H58.9999L58.7999 21.5999H58.5999L58.3999 21.6999H58.1999L57.8999 21.7999H57.6999L57.4999 21.8999H57.0999L56.8999 21.9999H56.6999L56.4999 22.0999H56.2999L56.0999 22.1999H55.9999L55.7999 22.2999H55.5999L55.3999 22.3999H55.1999L54.9999 22.4999H54.4999L54.2999 22.5999H54.0999L53.8999 22.6999H53.6999L53.4999 22.7999H53.2999L53.0999 22.8999H52.9999L52.7999 22.9999H52.5999L52.3999 23.0999H52.1999L51.9999 23.1999H51.5999L51.3999 23.2999H51.1999L50.9999 23.3999H50.7999L50.5999 23.4999H50.3999L50.1999 23.5999H49.9999L49.8999 23.6999H49.6999L49.4999 23.7999H49.2999L49.0999 23.8999H48.8999L48.6999 23.9999H48.4999L48.2999 24.0999H47.9999L47.7999 24.1999H47.5999L47.3999 24.2999H47.2999L47.0999 24.3999H46.8999L46.6999 24.4999L46.4999 24.5999H46.2999L46.0999 24.6999H45.8999L45.6999 24.7999H45.4999L45.3999 24.8999H45.1999L44.9999 24.9999H44.7999L44.5999 25.0999H44.3999L44.1999 25.1999H43.9999L43.8999 25.2999H43.6999L43.4999 25.3999L43.2999 25.4999H43.0999L42.8999 25.5999H42.6999L42.5999 25.6999H42.3999L42.1999 25.7999H41.9999L41.7999 25.8999H41.6999L41.4999 25.9999H41.2999L41.0999 26.0999H40.9999L40.8999 26.1999L40.6999 26.2999H40.4999L40.2999 26.3999H39.9999L39.3999 26.5999L39.1999 26.6999H39.0999L38.8999 26.7999H38.6999L38.4999 26.8999H38.2999L38.1999 26.9999H37.9999L37.7999 27.0999H37.5999L37.4999 27.1999L37.2999 27.2999H37.0999L36.9999 27.3999H36.7999L36.5999 27.4999L36.3999 27.5999H36.2999L36.0999 27.6999H35.8999L35.6999 27.7999L35.5999 27.8999H35.3999L35.1999 27.9999H35.0999L34.8999 28.0999L34.6999 28.1999H34.5999L34.3999 28.2999H34.1999L34.0999 28.3999L33.8999 28.4999H33.6999L33.5999 28.5999H33.3999L33.1999 28.6999L33.0999 28.7999H32.8999L32.6999 28.8999H32.5999L32.3999 28.9999L32.1999 29.0999H32.0999L31.8999 29.1999H31.7999L31.5999 29.2999L31.3999 29.3999H31.2999L31.0999 29.4999H30.9999L30.7999 29.5999H30.5999L30.4999 29.7999H30.1999L29.9999 29.8999H29.7999L29.6999 30.0999H29.3999L29.1999 30.1999C29.0967 30.2617 28.9966 30.3284 28.8999 30.3999H28.5999C28.4967 30.4617 28.3966 30.5284 28.2999 30.5999H28.0999L27.9999 30.6999H27.7999L27.6999 30.7999H27.4999L27.3999 30.8999L27.1999 30.9999H27.0999L26.8999 31.0999H26.7999C26.6963 31.1611 26.5962 31.2278 26.4999 31.2999C26.3984 31.3285 26.2983 31.3618 26.1999 31.3999C26.0983 31.4283 25.9982 31.4617 25.8999 31.4999L25.6999 31.5999H25.5999L25.4999 31.6999H25.2999L25.1999 31.7999L24.9999 31.8999C24.9036 31.972 24.8035 32.0388 24.6999 32.0999H24.4999L24.3999 32.1999H24.2999L24.0999 32.2999H23.9999C23.9001 32.3668 23.8001 32.4335 23.6999 32.4999H23.5999L23.3999 32.5999H23.2999L23.0999 32.7999H22.8999L22.6999 32.9999H22.2999L22.1999 33.1999H21.8999L21.7999 33.3999H21.4999V33.4999L21.2999 33.5999H20.9999V33.6999L20.7999 33.7999H20.5999V33.8999L20.3999 33.9999H20.1999V34.0999L19.9999 34.1999L19.7999 34.2999L19.6999 34.3999H19.5999L19.3999 34.4999V34.5999H19.1999L19.0999 34.6999L18.8999 34.7999L18.6999 34.8999L18.5999 34.9999H18.3999V35.0999L18.1999 35.1999H17.9999L17.7999 35.2999V35.3999H17.5999L17.4999 35.4999L17.3999 35.5999H17.2999L16.6999 35.9999H16.5999L16.3999 36.0999L16.1999 36.1999L16.0999 36.2999H15.9999L15.8999 36.3999L15.6999 36.4999L15.4999 36.5999L15.3999 36.6999H15.2999L15.1999 36.7999L15.0999 36.8999H14.9999V36.9999L14.7999 37.0999H14.6999L14.5999 37.1999L14.4999 37.2999H14.3999L14.2999 37.3999L14.0999 37.4999L13.8999 37.5999V37.6999H13.6999V37.7999L13.4999 37.8999H13.3999L13.2999 37.9999L13.1999 38.0999H12.9999L12.8999 38.1999L12.7999 38.2999H12.6999L12.5999 38.3999L12.4999 38.4999H12.3999L12.2999 38.5999L12.1999 38.6999H12.0999L11.9999 38.7999L11.8999 38.8999H11.7999L11.6999 38.9999L11.5999 39.0999H11.4999L11.3999 39.1999L11.2999 39.2999H11.1999L11.0999 39.3999L10.9999 39.4999L10.8999 39.5999H10.7999L10.6999 39.7999H10.4999V39.9999H10.2999L10.0999 40.1999H9.99991L9.89991 40.3999H9.69991V40.5999H9.49991L9.39991 40.7999H9.19991L8.99991 40.9999H8.79991V41.1999H8.59991L8.49991 41.3999H8.29991V41.5999C8.09991 41.5999 7.89991 41.7999 7.79991 41.9999H7.59991V42.1999H7.39991L7.29991 42.3999H7.19991L7.09991 42.5999H6.99991L6.79991 42.7999H6.69991V42.9999H6.49991L6.39991 43.1999H6.29991L6.19991 43.3999H6.09991L5.99991 43.5999L5.89991 43.6999V43.7999H5.79991L5.69991 43.8999V43.9999H5.59991L5.49991 44.0999V44.1999H5.39991V44.2999L5.29991 44.3999H5.19991V44.4999L5.09991 44.5999L4.99991 44.6999L4.89991 44.7999L4.79991 44.8999V44.9999H4.69991V45.0999L4.59991 45.1999H4.49991L4.09991 45.7999L3.99991 45.8999L3.89991 45.9999V46.0999H3.79991V46.1999L3.69991 46.2999L3.59991 46.3999V46.4999H3.49991V46.5999L3.39991 46.6999L3.29991 46.7999V46.8999L3.19991 46.9999L3.09991 47.1999H2.99991V47.3999H2.89991V47.5999H2.79991V47.7999H2.69991V47.9999H2.59991C2.43569 48.2142 2.30114 48.4497 2.19991 48.6999V48.8999H1.99991V49.2999H1.79991V49.4999L1.69991 49.5999V49.6999L1.59991 49.7999V50.0999H1.49991V50.2999C1.39984 50.5332 1.29984 50.7666 1.19991 50.9999V51.3999L1.09991 51.4999V51.8999H0.999908V52.2999C0.932981 52.5613 0.899381 52.8301 0.899908 53.0999V53.9999C0.901395 54.2696 0.934964 54.5382 0.999908 54.7999V55.1999L1.09991 55.2999V55.3999L1.39991 56.0999V56.3999L1.49991 56.4999V56.5999L1.59991 56.6999V56.7999L1.69991 56.8999V56.9999L1.79991 57.0999V57.1999L2.09991 57.6999V57.7999H2.19991V57.8999L2.29991 57.9999V58.0999H2.39991V58.1999L2.49991 58.2999V58.3999H2.59991V58.4999L2.69991 58.5999V58.6999H2.99991V58.7999L3.09991 58.8999L3.19991 58.9999V59.0999L3.69991 59.5999L3.79991 59.6999V59.7999L3.89991 59.8999L3.99991 59.9999L4.09991 60.0999L4.19991 60.1999L4.29991 60.2999L4.39991 60.3999L4.49991 60.4999L4.59991 60.5999H4.69991V60.6999L4.79991 60.7999L4.89991 60.8999L4.99991 60.9999L5.09991 61.0999H5.19991V61.1999H5.29991V61.2999H5.39991L5.89991 61.6999V61.7999H5.99991V61.8999L6.09991 61.9999H6.19991V62.0999H6.29991L6.39991 62.1999H6.49991V62.2999H6.69991V62.3999L6.89991 62.4999V62.5999H7.09991V62.6999H7.19991V62.7999H7.39991V62.8999H7.49991L7.59991 62.9999H7.69991V63.0999H7.99991V63.2999H8.19991V63.3999H8.29991L8.39991 63.4999H8.59991V63.5999H8.69991L8.79991 63.6999L8.99991 63.7999L9.09991 63.8999H9.19991V63.9999H9.39991V64.0999H9.49991L9.59991 64.1999L10.0999 64.3999L10.1999 64.4999H10.2999L10.3999 64.5999H10.4999V64.6999H10.6999V64.7999H10.7999L10.8999 64.8999H11.0999V64.9999H11.2999V65.0999H11.4999V65.1999H11.6999V65.2999H11.7999L11.8999 65.3999H11.9999L12.0999 65.4999H12.1999L12.2999 65.5999H12.3999L12.5999 65.6999L12.7999 65.7999L12.9999 65.8999L13.1999 65.9999H13.3999V66.0999H13.5999V66.1999H13.7999L13.9999 66.2999C14.0664 66.3335 14.1331 66.3669 14.1999 66.3999H14.3999C14.4612 66.4717 14.5281 66.5386 14.5999 66.5999H14.9999L15.0999 66.6999H15.1999L15.3999 66.7999H15.5999V66.8999H15.7999V66.9999C15.8998 67.0074 16 67.0074 16.0999 66.9999L16.1999 67.0999H16.2999L16.3999 67.1999H16.5999C16.6647 67.237 16.7314 67.2704 16.7999 67.2999H16.8999L16.9999 67.3999H17.1999C17.305 67.4586 17.4053 67.5255 17.4999 67.5999H17.7999L17.8999 67.6999H17.9999L18.1999 67.7999H18.3999L18.4999 67.8999H18.5999L18.7999 67.9999C18.9 68.033 19 68.0663 19.0999 68.0999H19.1999L19.2999 68.1999H19.4999L19.6999 68.2999C19.8669 68.3658 20.0336 68.4325 20.1999 68.4999H20.3999L20.5999 68.5999H20.7999V68.6999H20.9999L21.0999 68.7999H21.2999L21.4999 68.8999H21.5999L21.7999 68.9999H21.9999L22.0999 69.0999H22.3999L22.4999 69.1999H22.7999L22.8999 69.2999H23.1999L23.2999 69.3999H23.5999L23.6999 69.4999H23.9999L24.0999 69.5999H24.3999L24.4999 69.6999H24.7999L24.8999 69.7999H25.1999L25.2999 69.8999H25.4999L25.6999 69.9999H25.9999L26.1999 70.0999H26.3999L26.5999 70.1999H26.7999L26.9999 70.2999H27.2999L27.3999 70.3999H27.6999L27.7999 70.4999H28.0999L28.2999 70.5999H28.5999L28.6999 70.6999H28.9999L29.0999 70.7999H29.3999L29.5999 70.8999H29.8999L29.9999 70.9999H30.2999L30.4999 71.0999H30.7999L30.8999 71.1999H31.3999L31.4999 71.2999H31.9999L32.0999 71.3999H32.5999L32.6999 71.4999H32.9999L33.1999 71.5999H33.6999L33.7999 71.6999H34.2999L34.3999 71.7999H34.8999L35.0999 71.8999H35.5999L35.6999 71.9999H35.9999L36.1999 72.0999H36.6999L36.7999 72.1999H37.2999L37.4999 72.2999H37.9999L38.0999 72.3999H38.4999L38.5999 72.4999H39.0999L39.2999 72.5999H39.7999L39.9999 72.6999H40.5999L40.7999 72.7999H41.4999L41.5999 72.8999H42.2999L42.4999 72.9999H43.1999L43.3999 73.0999H43.9999L44.1999 73.1999H44.8999L45.0999 73.2999H45.7999L45.9999 73.3999H46.6999L46.8999 73.4999H47.5999L47.7999 73.5999H48.4999L48.6999 73.6999H49.3999L49.5999 73.7999H50.2999L50.4999 73.8999H51.4999L51.6999 73.9999H52.7999L52.9999 74.0999H54.2999L54.4999 74.1999H55.5999L55.7999 74.2999H57.0999L57.2999 74.3999H58.3999L58.5999 74.4999H59.9999L60.1999 74.5999H61.4999C61.6501 74.6493 61.8099 74.6623 61.9661 74.638C62.1223 74.6137 62.2705 74.5527 62.3986 74.4599C62.5266 74.3672 62.6309 74.2455 62.7028 74.1047C62.7747 73.9639 62.8122 73.808 62.8122 73.6499C62.8122 73.4918 62.7747 73.336 62.7028 73.1952C62.6309 73.0544 62.5266 72.9326 62.3986 72.8399C62.2705 72.7472 62.1223 72.6862 61.9661 72.6618C61.8099 72.6375 61.6501 72.6506 61.4999 72.6999H60.6999L60.4999 72.5999H59.7999L59.5999 72.4999H58.7999L58.5999 72.3999H57.9999L57.7999 72.2999H56.7999L56.5999 72.1999H55.9999L55.7999 72.0999H54.9999L54.8999 71.9999H53.9999L53.7999 71.8999H53.0999L52.8999 71.7999H52.1999L51.9999 71.6999H51.4999L51.2999 71.5999H50.7999L50.5999 71.4999H49.9999L49.7999 71.3999H49.3999L49.1999 71.2999H48.6999L48.4999 71.1999H47.9999L47.7999 71.0999H47.2999L47.0999 70.9999H46.5999L46.4999 70.8999H46.0999L45.8999 70.7999H45.3999L45.1999 70.6999H44.6999L44.5999 70.5999H43.9999L43.8999 70.4999H43.4999L43.3999 70.3999H42.9999L42.7999 70.2999H42.4999L42.2999 70.1999H41.9999L41.7999 70.0999H41.4999L41.2999 69.9999H40.9999L40.7999 69.8999H40.4999L40.2999 69.7999H39.9999L39.7999 69.6999H39.4999L39.3999 69.5999H38.9999L38.8999 69.4999H38.5999L38.3999 69.3999H38.0999L37.8999 69.2999H37.5999L37.3999 69.1999H37.0999L36.9999 68.9999H36.6999L36.4999 68.8999H36.1999L35.9999 68.7999H35.6999L35.5999 68.6999H35.2999L35.0999 68.5999H34.7999L34.6999 68.4999H34.2999L34.1999 68.3999H33.9999L33.8999 68.2999H33.5999L33.3999 68.1999H33.2999L33.0999 68.0999H32.7999L32.6999 67.9999H32.4999L32.3999 67.8999H32.0999L31.9999 67.7999H31.7999L31.6999 67.6999C31.5354 67.6567 31.3684 67.6233 31.1999 67.5999H31.0999L30.8999 67.4999H30.5999L30.4999 67.3999H30.3999L30.1999 67.2999H29.9999L29.8999 67.1999H29.6999V67.0999H29.2999L29.1999 66.9999H28.9999L28.7999 66.8999H28.4999L28.3999 66.7999H28.2999L28.0999 66.6999H27.7999L27.6999 66.5999H27.3999L27.2999 66.4999H26.9999L26.8999 66.3999H26.6999V66.2999H26.2999V66.1999H26.0999L25.8999 66.0999H25.6999L25.4999 65.9999L25.2999 65.8999H24.9999V65.7999H24.7999L24.6999 65.6999H24.4999V65.5999H24.2999L24.1999 65.4999H23.9999L23.8999 65.3999H23.7999L23.5999 65.2999L23.3999 65.1999H23.1999V65.0999H22.9999L22.8999 64.9999H22.7999L22.5999 64.8999L22.3999 64.7999H22.2999L22.1999 64.6999H21.9999V64.5999H21.5999L21.4999 64.4999H21.2999V64.3999H21.0999L20.9999 64.2999L20.8999 64.1999H20.6999V64.0999H20.4999V63.9999H20.2999L20.1999 63.8999H19.9999L19.7999 63.7999L19.5999 63.6999L19.3999 63.5999H19.2999L19.1999 63.4999H18.9999L18.8999 63.3999H18.7999L18.5999 63.2999H18.3999V63.1999H18.1999V63.0999H17.9999V62.9999H17.8999L17.7999 62.8999H17.6999L17.5999 62.7999H17.4999L17.3999 62.6999H17.2999L17.1999 62.5999H16.9999L16.8999 62.4999H16.7999L16.6999 62.3999H16.5999L16.4999 62.2999H16.3999L16.2999 62.1999H16.1999L16.0999 62.0999H15.9999L15.8999 61.9999L15.7999 61.8999H15.6999L15.5999 61.7999H15.4999L15.3999 61.6999H15.2999L15.1999 61.5999L15.0999 61.4999H14.9999L14.8999 61.3999H14.7999V61.2999H14.5999V61.1999H14.4999L14.3999 61.0999H14.2999L14.1999 60.9999L13.9999 60.8999L13.8999 60.7999L13.7999 60.6999H13.6999L13.5999 60.5999L13.3999 60.4999L13.2999 60.3999H13.1999V60.2999H12.9999V60.1999H12.8999L12.7999 60.0999L12.5999 59.9999L12.4999 59.8999L12.3999 59.7999L12.1999 59.6999L12.0999 59.5999L11.8999 59.4999L11.7999 59.3999L11.6999 59.2999H11.5999V59.1999H11.3999V59.0999H11.2999V58.9999L11.1999 58.8999H10.9999V58.7999L10.8999 58.6999L10.7999 58.5999L10.6999 58.4999H10.5999V58.3999H10.4999V58.2999H10.3999L10.2999 58.1999L10.1999 58.0999L9.99991 57.9999L9.89991 57.8999L9.79991 57.7999L9.69991 57.6999L9.59991 57.5999L9.49991 57.4999L9.39991 57.3999L9.29991 57.2999H9.19991V56.9999H8.99991V56.8999H8.89991V56.7999H8.79991V56.6999L8.69991 56.5999V56.4999H8.59991V56.3999H8.49991V56.1999H8.39991V55.9999L8.29991 55.8999V55.7999H8.19991V55.6999L8.09991 55.5999V55.4999L7.99991 55.3999V55.2999L7.89991 55.1999V54.9999L7.79991 54.8999V54.5999H7.69991V53.0999L7.59991 53.1999Z"
      fill="#F5F3E6"
    />
    <path
      d="M7.60006 59.9007V59.7007H7.70006V59.3007L7.80006 59.2007V59.0007L7.90006 58.9007V58.8007L8.00006 58.7007V58.5007H8.10006V58.3007L8.20006 58.2007V58.0007H8.30006L8.40006 57.8007H8.50006V57.7007L8.60006 57.5007H8.70006V57.4007L8.80006 57.2007H9.00006V56.8007H9.10006L9.20006 56.7007V56.6007L9.30006 56.5007L9.40006 56.4007V56.3007H9.50006L9.60006 56.2007L9.70006 56.1007V56.0007H10.0001L10.1001 55.8007H10.2001V55.7007L10.3001 55.6007H10.4001V55.5007L10.5001 55.4007L10.6001 55.3007L10.7001 55.2007L10.8001 55.1007L10.9001 55.0007L11.0001 54.9007L11.1001 54.8007L11.2001 54.7007L11.3001 54.6007L11.4001 54.5007L11.5001 54.4007L11.6001 54.3007L11.7001 54.2007L11.9001 54.1007V54.0007H12.0001V53.9007L12.2001 53.8007L12.3001 53.7007L12.4001 53.5007H12.5001L12.7001 53.4007V53.3007H12.8001L12.9001 53.2007V53.0007H13.1001L13.2001 52.9007H13.3001L13.4001 52.8007L13.5001 52.7007L13.7001 52.6007V52.5007H13.8001L13.9001 52.4007L14.0001 52.3007H14.1001V52.2007H14.3001V52.0007H14.5001L14.6001 51.8007H14.8001L14.9001 51.6007H15.1001L15.2001 51.4007H15.4001V51.2007H15.6001L15.8001 51.0007H16.0001V50.8007H16.2001L16.4001 50.6007H16.6001V50.4007H16.8001L17.0001 50.2007H17.2001V50.0007H17.5001L17.6001 49.8007H17.8001L17.9001 49.7007L18.0001 49.6007H18.1001L18.2001 49.5007L18.3001 49.4007H18.5001V49.3007L18.7001 49.2007L18.9001 49.1007L19.0001 49.0007H19.1001L19.2001 48.9007L19.3001 48.8007H19.5001V48.7007L19.7001 48.6007H19.8001L19.9001 48.5007L20.0001 48.4007H20.1001L20.3001 48.3007V48.2007H20.5001L20.6001 48.1007L20.7001 48.0007H20.9001V47.9007L21.1001 47.8007H21.2001L21.3001 47.7007L21.5001 47.6007L21.7001 47.5007L21.8001 47.4007H22.0001L22.1001 47.3007L22.2001 47.2007H22.3001L22.5001 47.1007L22.6001 47.0007H22.7001L22.9001 46.9007V46.8007H23.1001L23.2001 46.7007L23.4001 46.6007L23.6001 46.5007L23.7001 46.4007H23.9001L24.0001 46.3007H24.1001L24.3001 46.2007L24.4001 46.1007H24.5001L24.7001 46.0007H24.8001L24.9001 45.9007L25.1001 45.8007H25.2001C25.3046 45.741 25.4048 45.6742 25.5001 45.6007H25.6001L25.8001 45.5007L26.0001 45.4007H26.2001L26.3001 45.3007L26.5001 45.2007L26.7001 45.1007H26.9001L27.0001 45.0007H27.1001L27.3001 44.8007H27.5001L27.6001 44.7007H27.7001C27.7963 44.6286 27.8965 44.5618 28.0001 44.5007H28.2001L28.3001 44.4007H28.5001L28.6001 44.2007H29.0001L29.2001 44.1007H29.3001L29.5001 43.9007H29.7001L29.9001 43.8007H30.0001L30.2001 43.7007L30.3001 43.6007H30.5001L30.6001 43.5007H30.8001L30.9001 43.4007L31.1001 43.3007H31.2001L31.4001 43.2007H31.5001L31.7001 43.1007L31.9001 43.0007H32.0001L32.2001 42.9007H32.3001L32.5001 42.8007C32.6033 42.7389 32.7034 42.6722 32.8001 42.6007H33.0001L33.1001 42.5007L33.3001 42.4007H33.5001L33.6001 42.3007H33.8001L33.9001 42.2007L34.1001 42.1007H34.3001L34.4001 42.0007H34.6001L34.7001 41.9007L34.9001 41.8007H35.1001L35.2001 41.7007H35.4001L35.5001 41.6007L35.7001 41.5007H35.9001L36.0001 41.4007H36.2001L36.4001 41.3007L36.5001 41.2007H36.7001L36.9001 41.1007H37.0001L37.2001 41.0007L37.4001 40.9007H37.5001L37.7001 40.8007H37.9001L38.0001 40.7007L38.2001 40.6007H38.4001L38.5001 40.5007H38.7001L38.9001 40.4007H39.0001L39.2001 40.3007H39.4001L39.6001 40.2007L39.7001 40.1007H39.9001L40.1001 40.0007H40.2001L40.4001 39.9007H40.6001L40.8001 39.8007H40.9001L41.1001 39.7007H41.3001L41.5001 39.6007H41.6001L41.7001 39.5007H41.9001L42.1001 39.4007H42.3001L42.4001 39.3007H42.6001L42.8001 39.2007H43.0001L43.1001 39.1007H43.3001L43.5001 39.0007H43.7001L43.9001 38.9007L44.0001 38.8007H44.2001L44.4001 38.7007H44.6001L44.8001 38.6007H45.0001L45.1001 38.5007H45.3001L45.5001 38.4007H45.7001L45.9001 38.3007H46.1001L46.3001 38.2007H46.4001L46.6001 38.1007L46.8001 38.0007H47.0001L47.2001 37.9007H47.4001L47.6001 37.8007H47.7001L47.9001 37.7007H48.1001L48.3001 37.6007H48.5001L48.7001 37.5007H48.9001L49.1001 37.4007H49.3001L49.5001 37.3007H49.6001L49.8001 37.2007L50.0001 37.1007H50.2001L50.4001 37.0007H50.8001L51.0001 36.9007H51.2001L51.4001 36.8007H51.6001L51.8001 36.7007H52.0001L52.1001 36.6007H52.3001L52.5001 36.5007H52.7001L52.9001 36.4007H53.1001L53.3001 36.3007H53.7001L53.9001 36.2007H54.1001L54.3001 36.1007H54.5001L54.7001 36.0007H54.9001L55.1001 35.9007H55.3001L55.5001 35.8007H55.7001L55.9001 35.7007H56.3001L56.5001 35.6007H56.7001L56.9001 35.5007H57.1001L57.3001 35.4007H57.5001L57.8001 35.3007H58.0001L58.2001 35.2007H58.4001L58.6001 35.1007H58.8001L59.0001 35.0007H59.4001L59.6001 34.9007H59.8001L60.0001 34.8007H60.2001C60.3348 34.7368 60.4681 34.6701 60.6001 34.6007H61.3001L61.5001 34.5007H61.9001L62.1001 34.4007H62.3001L62.5001 34.3007H63.0001L63.2001 34.2007H63.4001C64.262 34.0017 65.0096 33.4686 65.4785 32.7184C65.9473 31.9683 66.099 31.0626 65.9001 30.2007C65.7012 29.3387 65.168 28.5911 64.4178 28.1222C63.6677 27.6534 62.762 27.5017 61.9001 27.7007H61.4001L61.2001 27.8007H60.8001L60.6001 27.9007H60.4001L60.2001 28.0007H59.7001L59.5001 28.1007H59.3001L59.1001 28.2007H58.9001L58.7001 28.3007H58.3001L58.0001 28.4007H57.8001L57.6001 28.5007H57.4001L57.2001 28.6007H57.0001L56.8001 28.7007H56.6001L56.4001 28.8007H56.2001L56.0001 28.9007H55.8001L55.6001 29.0007H55.2001L55.0001 29.1007H54.8001L54.5001 29.2007H54.3001L54.1001 29.3007H54.0001L53.8001 29.4007H53.6001L53.4001 29.5007H53.2001L53.0001 29.6007H52.6001L52.4001 29.7007H52.2001L52.0001 29.8007H51.8001L51.6001 29.9007H51.4001L51.2001 30.0007H51.0001L50.8001 30.1007H50.6001L50.4001 30.2007H50.2001L50.0001 30.3007H49.6001L49.4001 30.4007H49.2001L49.0001 30.5007L48.8001 30.6007H48.6001L48.4001 30.7007H48.2001L48.0001 30.8007H47.8001L47.6001 30.9007H47.4001L47.3001 31.0007H47.0001L46.8001 31.1007H46.6001L46.4001 31.2007H46.2001L46.0001 31.3007H45.8001L45.6001 31.4007L45.4001 31.5007H45.3001L45.1001 31.6007H45.0001L44.8001 31.7007H44.6001L44.4001 31.8007H44.2001L44.0001 31.9007L43.8001 32.0007H43.6001L43.4001 32.1007H43.2001L43.0001 32.2007L42.8001 32.3007H42.7001L42.5001 32.4007H42.3001L42.1001 32.5007H41.9001L41.8001 32.6007H41.6001L41.4001 32.7007H41.2001L41.0001 32.8007H40.9001L40.7001 32.9007H40.5001L40.3001 33.0007H40.0001L39.4001 33.3007H39.1001L38.9001 33.4007L38.7001 33.5007H38.5001L38.3001 33.6007H38.2001L38.0001 33.7007H37.8001L37.6001 33.8007H37.5001L37.3001 33.9007L37.1001 34.0007H37.0001L36.8001 34.1007H36.6001L36.4001 34.2007L36.3001 34.3007H36.0001L35.8001 34.4007H35.6001L35.5001 34.5007L35.3001 34.6007H35.1001L35.0001 34.7007H34.8001L34.6001 34.8007L34.5001 34.9007H34.3001L34.1001 35.0007H34.0001L33.8001 35.1007L33.6001 35.2007H33.5001L33.3001 35.3007H33.1001L33.0001 35.4007H32.8001L32.6001 35.6007H32.4001L32.2001 35.7007H32.1001L31.9001 35.9007H31.6001L31.4001 36.0007H31.3001L31.1001 36.2007H30.8001L30.6001 36.3007H30.5001L30.3001 36.5007H30.0001L29.8001 36.6007H29.7001L29.5001 36.7007L29.4001 36.8007C29.2987 36.8297 29.1986 36.8631 29.1001 36.9007C28.9987 36.9297 28.8986 36.9631 28.8001 37.0007L28.6001 37.1007C28.4987 37.1297 28.3986 37.1631 28.3001 37.2007H28.0001L27.9001 37.3007L27.7001 37.4007H27.6001L27.4001 37.5007H27.3001L27.1001 37.6007L27.0001 37.7007H26.8001L26.7001 37.8007C26.5985 37.8292 26.4984 37.8626 26.4001 37.9007L26.2001 38.0007H26.1001C25.9965 38.0618 25.8963 38.1286 25.8001 38.2007H25.6001L25.5001 38.3007H25.4001L25.2001 38.4007H25.1001L24.9001 38.5007L24.8001 38.6007H24.6001L24.5001 38.7007C24.4018 38.7389 24.3016 38.7723 24.2001 38.8007L24.1001 38.9007H24.0001L23.9001 39.0007H23.7001L23.6001 39.1007L23.5001 39.2007H23.3001L23.2001 39.3007H23.0001L22.9001 39.5007H22.6001L22.5001 39.7007H22.2001L22.1001 39.9007H21.8001L21.7001 40.1007H21.5001L21.3001 40.3007H21.0001L20.8001 40.5007H20.6001L20.4001 40.7007H20.2001L20.0001 40.9007H19.8001L19.7001 41.0007L19.6001 41.1007H19.4001V41.2007L19.2001 41.3007H19.1001L18.9001 41.4007V41.5007H18.7001L18.6001 41.6007L18.4001 41.7007L18.2001 41.8007L18.1001 41.9007H17.9001V42.0007L17.7001 42.1007H17.6001L17.5001 42.2007L17.4001 42.3007L16.8001 42.6007H16.7001L16.5001 42.7007V42.8007H16.3001L16.2001 42.9007L16.1001 43.0007H16.0001L15.8001 43.1007V43.2007H15.6001L15.5001 43.3007L15.4001 43.4007H15.3001L15.2001 43.5007L15.0001 43.6007L14.8001 43.7007L14.7001 43.8007H14.6001L14.5001 43.9007L14.4001 44.0007H14.3001L14.1001 44.1007V44.2007H13.9001V44.3007L13.7001 44.4007L13.5001 44.5007L13.4001 44.6007H13.3001L13.2001 44.7007L13.1001 44.8007H13.0001L12.9001 44.9007L12.8001 45.0007H12.7001L12.6001 45.1007L12.5001 45.2007H12.4001L12.3001 45.3007L12.2001 45.4007H12.0001L11.9001 45.5007L11.8001 45.6007H11.7001L11.6001 45.7007L11.5001 45.8007H11.4001L11.3001 45.9007L11.2001 46.0007H11.1001L11.0001 46.1007L10.9001 46.2007H10.8001L10.7001 46.3007L10.6001 46.4007L10.4001 46.5007V46.6007H10.2001V46.7007L10.0001 46.8007L9.90006 46.9007L9.80006 47.0007H9.70006L9.60006 47.1007L9.40006 47.3007H9.30006L9.20006 47.5007H9.00006V47.7007H8.80006L8.70006 47.9007H8.50006V48.1007H8.30006L7.80006 48.6007H7.70006L7.60006 48.7007L7.40006 48.9007H7.30006L7.20006 49.1007H7.10006L7.00006 49.3007H6.80006V49.5007H6.70006L6.50006 49.7007H6.40006V49.9007H6.20006V50.1007H6.00006V50.3007H5.80006V50.5007H5.60006V50.7007H5.40006V50.9007H5.30006L5.20006 51.1007H5.10006L5.00006 51.2007V51.3007L4.90006 51.4007V51.5007H4.80006V51.6007L4.70006 51.7007L4.60006 51.8007L4.50006 51.9007L4.10006 52.4007L4.00006 52.5007V52.6007H3.90006V52.7007L3.80006 52.8007L3.70006 52.9007V53.0007H3.60006V53.1007L3.50006 53.2007L3.40006 53.3007V53.4007H3.30006V53.6007H3.20006V53.7007L3.10006 53.8007L3.00006 53.9007V54.0007L2.90006 54.1007V54.2007H2.80006V54.4007H2.70006V54.5007L2.60006 54.7007C2.44309 54.8839 2.30879 55.0853 2.20006 55.3007V55.4007L2.10006 55.6007L2.00006 55.8007V56.0007H1.80006V56.2007H1.70006V56.4007H1.60006V56.8007H1.50006V57.0007L1.20006 57.6007V58.1007H1.10006V58.5007L1.00006 58.6007V58.8007L0.900062 59.6007V60.7007C0.893117 61.0038 0.926749 61.3065 1.00006 61.6007V61.9007L1.10006 62.0007V62.2007C1.17091 62.4454 1.27167 62.6805 1.40006 62.9007V63.2007H1.50006V63.4007H1.60006V63.6007H1.70006V63.7007L1.80006 63.8007V63.9007L2.10006 64.5007H2.20006V64.6007L2.30006 64.7007V64.8007L2.40006 64.9007V65.0007H2.50006V65.1007L2.60006 65.2007V65.3007H2.70006V65.4007H3.00006V65.7007H3.10006V65.8007L3.60006 66.3007V66.4007H3.70006V66.5007L3.80006 66.6007L3.90006 66.7007L4.00006 66.8007V66.9007H4.10006V67.0007H4.20006V67.1007H4.30006V67.2007H4.40006V67.3007H4.50006L4.60006 67.4007L4.70006 67.5007L4.80006 67.6007L4.90006 67.7007V67.8007H5.00006L5.10006 67.9007L5.20006 68.0007L5.30006 68.1007L5.80006 68.5007L6.00006 68.6007V68.7007H6.10006L6.20006 68.8007H6.30006L6.40006 68.9007L6.50006 69.0007L6.70006 69.1007V69.2007H7.00006V69.3007L7.20006 69.4007H7.30006V69.5007H7.50006V69.6007H7.60006V69.7007H7.70006L7.80006 69.8007L8.00006 69.9007L8.10006 70.0007L8.30006 70.1007H8.40006L8.50006 70.2007L8.70006 70.3007L8.80006 70.4007H8.90006V70.5007H9.00006V70.6007H9.10006L9.20006 70.7007H9.40006V70.8007H9.50006L9.60006 70.9007L10.1001 71.2007H10.2001L10.3001 71.3007H10.4001L10.5001 71.4007L10.7001 71.5007H10.8001L10.9001 71.6007H11.0001L11.1001 71.7007L11.3001 71.8007L11.5001 71.9007L11.7001 72.0007L11.8001 72.1007H12.0001L12.1001 72.2007H12.2001L12.3001 72.3007H12.4001V72.4007H12.6001V72.5007H12.8001V72.6007H13.0001V72.7007H13.2001L13.4001 72.8007L13.6001 72.9007H13.8001V73.0007H14.0001V73.1007H14.2001C14.2646 73.1381 14.3314 73.1715 14.4001 73.2007H14.5001L14.6001 73.3007H14.8001L14.9001 73.4007H15.0001L15.1001 73.5007H15.3001L15.5001 73.6007L15.7001 73.7007H15.9001C15.9626 73.7714 16.0294 73.8382 16.1001 73.9007H16.2001C16.2999 73.9082 16.4002 73.9082 16.5001 73.9007V74.0007H16.7001L16.8001 74.1007H17.0001L17.1001 74.2007C17.2023 74.2268 17.3026 74.2602 17.4001 74.3007H17.6001L17.7001 74.4007C17.7685 74.4304 17.8352 74.4638 17.9001 74.5007H18.1001L18.3001 74.6007H18.4001L18.5001 74.7007H18.7001L18.9001 74.8007H19.0001L19.1001 74.9007H19.4001V75.0007H19.6001L19.7001 75.1007L20.1001 75.2007H20.3001V75.3007H20.7001C20.796 75.3733 20.8961 75.4401 21.0001 75.5007H21.4001V75.6007C21.4982 75.6394 21.5983 75.6728 21.7001 75.7007H21.9001L22.1001 75.8007H22.3001L22.4001 75.9007H22.6001L22.8001 76.0007H23.0001L23.2001 76.1007H23.4001L23.6001 76.2007H23.8001L24.0001 76.3007H24.2001L24.4001 76.4007H24.6001L24.8001 76.5007H25.0001L25.2001 76.6007H25.5001V76.7007H25.9001L26.0001 76.8007H26.2001L26.4001 76.9007H26.7001L26.8001 77.0007H27.1001L27.3001 77.1007H27.5001L27.7001 77.2007H28.0001L28.1001 77.3007H28.4001L28.6001 77.4007H28.9001L29.0001 77.5007H29.3001L29.4001 77.6007H29.7001L29.9001 77.7007H30.2001L30.3001 77.8007H30.6001L30.8001 77.9007H31.2001L31.4001 78.0007H31.8001L32.0001 78.1007H32.3001L32.4001 78.2007H32.9001L33.0001 78.3007H33.5001L33.7001 78.4007H34.1001L34.3001 78.5007H34.6001L34.8001 78.6007H35.2001L35.4001 78.7007H35.9001L36.0001 78.8007H36.5001L36.7001 78.9007H37.0001L37.1001 79.0007H37.6001L37.8001 79.1007H38.3001L38.5001 79.2007H39.0001L39.1001 79.3007H39.6001L39.8001 79.4007H40.3001L40.5001 79.5007H41.1001L41.3001 79.6007H42.0001L42.1001 79.7007H42.8001L43.0001 79.8007H43.7001L43.9001 79.9007H44.6001L44.7001 80.0007H45.4001L45.6001 80.1007H46.3001L46.5001 80.2007H47.3001L47.5001 80.3007H48.2001L48.3001 80.4007H49.0001L49.2001 80.5007H49.9001L50.1001 80.6007H51.0001L51.2001 80.7007H52.5001L52.6001 80.8007H53.7001L53.9001 80.9007H55.2001L55.4001 81.0007H56.5001L56.7001 81.1007H58.1001L58.2001 81.2007H59.4001L59.6001 81.3007H61.0001L61.1001 81.4007H61.5001C61.7653 81.4007 62.0196 81.2953 62.2072 81.1078C62.3947 80.9202 62.5001 80.6659 62.5001 80.4007C62.5001 80.1354 62.3947 79.8811 62.2072 79.6936C62.0196 79.506 61.7653 79.4007 61.5001 79.4007H60.4001L60.2001 79.3007H59.4001L59.2001 79.2007H58.4001L58.3001 79.1007H57.5001L57.3001 79.0007H56.6001L56.4001 78.9007H55.7001L55.5001 78.8007H54.8001L54.6001 78.7007H53.8001L53.6001 78.6007H53.0001L52.8001 78.5007H51.8001L51.7001 78.4007H51.0001L50.9001 78.3007H50.5001L50.3001 78.2007H50.0001L49.8001 78.1007H49.3001L49.1001 78.0007H48.4001L48.3001 77.9007H47.9001L47.8001 77.8007H47.2001L47.1001 77.7007H46.6001L46.4001 77.6007H45.9001L45.7001 77.5007H45.3001L45.2001 77.4007H44.7001L44.5001 77.3007H44.0001L43.8001 77.2007H43.3001L43.1001 77.1007H42.8001L42.6001 77.0007H42.3001L42.1001 76.9007H41.8001L41.6001 76.8007H41.3001L41.1001 76.7007H40.8001L40.7001 76.6007H40.3001L40.2001 76.5007H39.8001L39.7001 76.4007H39.4001L39.2001 76.3007H38.9001L38.7001 76.2007H38.4001L38.2001 76.1007H38.0001L37.9001 76.0007H37.5001L37.4001 75.9007H37.0001L36.8001 75.8007H36.5001L36.3001 75.7007H36.0001L35.9001 75.6007H35.6001L35.4001 75.5007H35.1001L35.0001 75.4007H34.7001L34.5001 75.3007H34.2001L34.0001 75.0007L33.8001 74.9007H33.4001L33.3001 74.8007H33.0001L32.9001 74.7007H32.7001L32.5001 74.6007H32.4001L32.3001 74.5007H32.0001L31.8001 74.4007H31.7001L31.5001 74.3007H31.4001C31.2377 74.2236 31.0707 74.1568 30.9001 74.1007H30.5001L30.4001 74.0007H30.2001L30.1001 73.9007H29.8001L29.6001 73.8007L29.4001 73.7007H29.0001L28.9001 73.6007H28.7001L28.6001 73.5007H28.4001L28.3001 73.4007H28.0001L27.9001 73.3007H27.7001L27.6001 73.2007H27.4001L27.3001 73.1007H27.0001L26.8001 73.0007L26.6001 72.9007H26.4001L26.2001 72.8007H26.0001V72.7007H25.6001V72.6007H25.4001L25.3001 72.5007H25.0001V72.4007H24.7001L24.5001 72.3007L24.3001 72.2007H24.2001L24.0001 72.1007L23.9001 72.0007H23.5001L23.4001 71.9007H23.2001V71.8007H22.8001L22.7001 71.7007H22.5001V71.6007H22.3001L22.2001 71.5007H22.1001L21.9001 71.4007L21.7001 71.3007H21.6001L21.5001 71.2007H21.3001L21.1001 71.1007H21.0001V71.0007H20.9001L20.7001 70.9007L20.5001 70.8007L20.3001 70.7007H20.2001L20.1001 70.6007H20.0001L19.8001 70.5007H19.6001V70.4007H19.4001L19.3001 70.3007H19.2001L19.1001 70.2007H19.0001L18.9001 70.1007H18.7001V70.0007H18.5001V69.9007H18.3001V69.8007H18.0001L17.9001 69.7007H17.8001L17.7001 69.6007H17.6001L17.5001 69.5007H17.4001L17.3001 69.4007H17.2001L17.1001 69.3007H17.0001L16.9001 69.2007H16.7001L16.6001 69.1007H16.5001L16.4001 69.0007L16.3001 68.9007H16.2001L16.1001 68.8007H16.0001L15.9001 68.7007H15.8001L15.7001 68.6007H15.6001L15.5001 68.5007H15.4001V68.4007H15.3001L15.2001 68.3007H15.0001L14.9001 68.2007H14.8001L14.7001 68.1007L14.5001 68.0007L14.4001 67.9007H14.3001L14.2001 67.8007H14.1001V67.7007L13.9001 67.6007L13.8001 67.5007H13.7001L13.6001 67.4007H13.5001V67.3007H13.3001V67.2007H13.2001L13.1001 67.1007L12.9001 67.0007L12.8001 66.9007L12.7001 66.8007L12.5001 66.7007L12.4001 66.6007H12.3001V66.5007H12.1001V66.4007H12.0001V66.3007H11.8001V66.2007H11.7001V66.0007H11.6001L11.5001 65.9007V65.8007H11.3001V65.7007H11.2001V65.6007H11.1001L11.0001 65.5007L10.9001 65.4007H10.8001V65.3007H10.7001V65.2007H10.6001L10.5001 65.1007L10.4001 65.0007L10.3001 64.9007H10.2001V64.8007L10.1001 64.7007L10.0001 64.6007V64.5007H9.90006V64.4007H9.80006V64.3007H9.70006V64.2007H9.60006V64.1007H9.50006V64.0007L9.40006 63.9007L9.30006 63.8007H9.20006V63.7007L9.10006 63.6007L9.00006 63.5007L8.90006 63.4007L8.80006 63.3007V63.2007H8.70006V63.0007H8.50006V62.9007L8.40006 62.8007V62.7007H8.30006V62.6007L8.20006 62.5007V62.4007H8.00006V62.0007H7.90006V61.6007H7.80006V61.3007L7.70006 61.2007V59.8007L7.60006 59.9007Z"
      fill="#FF1100"
    />
  </g>
  <defs>
    <clipPath id="clip0_62_177">
      <rect width="67" height="82" fill="white" />
    </clipPath>
  </defs>
</svg>
