<svg
  width="840"
  height="672"
  viewBox="0 0 840 672"
  fill="none"
  xmlns="http://www.w3.org/2000/svg"
>
  <style>
    @media (prefers-color-scheme: light) {
      svg {
        background-color: #fff !important;
      }
      path {
        fill: #0c0d1d !important;
      }
    }
    @media (prefers-color-scheme: dark) {
      svg {
        background-color: #0c0d1d !important;
      }
      path {
        fill: #fff !important;
      }
    }
  </style>
  <path
    d="M296.884 148.646C240.798 224.134 193.834 324.004 165.536 437.941C145.279 519.5 136.843 599.181 138.905 672H3.73193C-1.2315 630.765 -1.33884 587.941 3.99561 544.378C27.0646 355.988 145.55 205.679 296.884 148.646ZM739.698 279.647C802.68 360.701 839.899 466.668 840 581.081V582.616C839.958 603.732 838.652 625.133 836.009 646.716C834.968 655.223 833.728 663.653 832.303 672H688.013C699.296 641.239 709.212 609.005 717.519 575.559C743.685 470.208 750.127 367.989 739.698 279.647ZM530.602 0C542.592 0.244177 554.485 1.79171 566.217 4.7168C660.727 28.2796 722.678 135.488 739.698 279.647C675.212 196.659 583.721 139.788 477.413 126.712C414.821 119.013 353.55 127.291 296.884 148.646C364.776 57.2703 446.036 1.62275 523.741 0H530.602Z"
    fill="currentColor"
  />
</svg>
