<svg xmlns="http://www.w3.org/2000/svg" width="578" height="81" fill="none">
  <style>
    @media (prefers-color-scheme: light) {
      #aero-wordmark {
        fill: #0c0d1d !important;
      }
    }
    @media (prefers-color-scheme: dark) {
      #aero-wordmark {
        fill: #fff !important;
      }
    }
  </style>
  <path
    id="aero-wordmark"
    fill="#ffffff"
    d="m137.9 63.9-3.6-8.2h-21.5l-3.6 8.2H94.8l19.4-41.7h18.7L152.3 64h-14.4Zm-21-17.6h13.2l-6.5-15-6.6 15Zm81.3-13.9h-31v6.2h31v9h-31v6.1h31V64h-44V22.2h44v10.2Zm51.4 5.4c0 6.4-3 11.5-8.1 14l7.5 12h-15.5l-6.2-10.3H214v10.4h-13V22.2h32.7c9.4 0 16 6.3 16 15.6ZM214 33.3v9.1h16.7c2.4 0 5.8 0 5.8-4.6 0-4.5-3.4-4.5-5.8-4.5H214Zm63.8 31.2c-18.3 0-26.1-7.3-26.1-21.5 0-14.1 7.8-21.4 26.1-21.4S304 29 304 43c0 14.1-7.9 21.5-26.2 21.5Zm0-11c10.2 0 13.1-4 13.1-10.5 0-6.4-2.8-10.3-13-10.3s-13.1 3.9-13.1 10.3c0 6.5 3 10.4 13 10.4Zm59.7-31.3c10.3 0 19.8 6.7 19.8 20.9 0 14.1-9.5 20.8-19.8 20.8h-30.7V22.2h30.7ZM333 52.8c5.7 0 11.2-.8 11.2-9.7 0-9-5.5-9.8-11.2-9.8h-13v19.5h13Zm75.8-15a15 15 0 0 1-8.2 14l7.5 12h-15.4l-6.2-10.3h-13.3v10.4h-13V22.2h32.6c9.5 0 16 6.3 16 15.6Zm-35.6-4.5v9.1h16.7c2.4 0 5.8 0 5.8-4.6 0-4.5-3.4-4.5-5.8-4.5h-16.7ZM437 64.5c-18.3 0-26.2-7.3-26.2-21.5 0-14.1 7.9-21.4 26.2-21.4 18.3 0 26.2 7.4 26.2 21.4 0 14.1-8 21.5-26.2 21.5Zm0-11c10.2 0 13-4 13-10.5 0-6.4-2.8-10.3-13-10.3s-13 3.9-13 10.3c0 6.5 2.9 10.4 13 10.4Zm92.8-31.3V64h-13.1V39.6l-14.4 24.3h-8.9l-14.3-24.4V64H466V22.2h16.8l15.1 26.6L513 22.2h16.8Zm47.5 10.2h-30.9v6.2h31v9h-31v6.1h31V64h-44V22.2h44v10.2Z"
  />
  <path
    fill="#0C0D1D"
    d="M6.6 32.3V32h.1v-.4h.1v-.2l.1-.1v-.2H7V31l.1-.1v-.2h.1v-.1l.1-.1v-.1l.1-.1.1-.1V30l.1-.1.1-.1v-.1l.1-.1a27 27 0 0 1 .1-.1l.1-.1.1-.2h.1v-.1l.1-.2h.1v-.1l.1-.1h.1v-.1h.1v-.1l.1-.1.1-.1.1-.1.1-.1.1-.1.1-.1.1-.1v-.1h.1l.1-.1v-.1h.1l.1-.1v-.1h.1l.1-.1v-.1h.1l.1-.1h.1l.1-.1v-.1h.1l.1-.1v-.1h.2v-.1l.1-.1.2-.1v-.1h.1V26l.1-.1h.1v-.1h.2v-.1l.1-.1h.1v-.1l.2-.1.1-.1.1-.1h.1l.1-.1V25h.2l.1-.1h.1l.1-.1.1-.1.2-.1v-.1h.2v-.1l.1-.1h.1l.1-.1.1-.1h.1l.1-.1.1-.1h.1v-.1l.2-.1.2-.1v-.1h.2v-.1l.2-.1.2-.1V23h.2l.2-.1.2-.1v-.1h.2v-.1l.2-.1.2-.1.1-.1h.1l.1-.1h.1l.1-.2h.2l.1-.2h.2l.2-.2h.2l.1-.2h.2l.1-.2h.2l.2-.2h.2l.1-.2h.3v-.1l.2-.1h.1l.2-.2h.2l.1-.2h.2l.2-.2h.2l.1-.2h.3l.1-.2h.3l.1-.2h.3v-.2h.4l.2-.2h.2l.1-.1.2-.1h.1l.1-.1h.2l.1-.1.1-.1h.2l.1-.1h.1l.2-.1.1-.1a2.6 2.6 0 0 0 .3-.1h.1l.2-.1v-.1h.2l.2-.1h.1l.2-.1v-.1h.2l.2-.1h.1l.1-.1.2-.1h.1l.2-.1h.1l.1-.1.2-.1h.1l.2-.1h.1l.2-.1.1-.1h.2l.1-.1h.2l.1-.1.2-.1h.1l.1-.1h.2l.1-.1h.2l.1-.2h.2l.2-.1h.1l.2-.2h.3l.1-.1a3.7 3.7 0 0 0 .4-.2h.1a3.7 3.7 0 0 0 .3-.1h.2a3.7 3.7 0 0 0 .3-.2h.1l.2-.1h.1a103 103 0 0 1 .4-.2h.1l.2-.1h.1l.2-.1.2-.1h.1l.2-.1h.1l.2-.1.2-.1h.1l.2-.1h.1l.2-.1.2-.1h.1l.2-.1h.2l.1-.1.2-.1h.2l.1-.1h.2l.2-.1.1-.1h.2l.2-.1h.1l.2-.1.2-.1h.1l.2-.1h.2l.1-.1h.2l.2-.1h.2l.1-.1.2-.1h.2l.1-.1h.2l.2-.1h.2l.1-.1h.2l.2-.1h.2l.1-.1h.1l.2-.1h.2l.2-.1h.1l.2-.1h.2l.2-.1h.1l.2-.1h.2l.2-.1h.2l.1-.1.2-.1h.2l.2-.1h.2l.2-.1h.1l.2-.1h.2l.2-.1h.2l.2-.1h.2l.1-.1h.2l.2-.1h.2l.2-.1.2-.1h.2l.1-.1h.2l.2-.1h.2l.2-.1h.2l.2-.1h.2l.2-.1h.2l.1-.1h.2l.2-.1.2-.1h.4l.2-.1h.2l.2-.1h.2l.2-.1h.2L51 9h.1l.2-.1h.2l.2-.1h.4l.2-.1h.2l.2-.1h.2l.2-.1h.2l.2-.1h.2l.2-.1h.2l.2-.1h.2l.2-.1h.4l.2-.1h.2l.2-.1h.2l.2-.1h.2l.2-.1h.3l.2-.1h.2l.2-.1h.4l.2-.1h.2l.2-.1h.2l.2-.1h.2l.2-.1a11.4 11.4 0 0 0 .4-.1h.4l.3-.1h.2l.2-.1h.4l.2-.1h.2l.2-.1h.5l.2-.1A3.3 3.3 0 1 0 60.9 0h-.3l-.2.1h-.2l-.2.1h-.4l-.2.1h-.2l-.3.1h-.4l-.2.1h-.2l-.2.1h-.2l-.2.1h-.2L57 1h-.4l-.2.1h-.2l-.2.1h-.2l-.2.1h-.2l-.2.1H55l-.2.1h-.2l-.2.1H54l-.2.1h-.3l-.2.1h-.2l-.2.1h-.2l-.2.1h-.2l-.2.1H52l-.2.1h-.2l-.2.1H51l-.2.1h-.2l-.2.1h-.2l-.2.1h-.2l-.2.1h-.2l-.2.1H49l-.1.1h-.4l-.2.1-.2.1h-.2l-.2.1h-.2l-.2.1H47l-.2.1h-.2l-.2.1h-.1l-.2.1h-.2l-.2.1h-.2l-.2.1-.2.1h-.2l-.2.1h-.2l-.1.1h-.2l-.2.1h-.2l-.2.1h-.2l-.2.1H43l-.1.1h-.2l-.2.1h-.2l-.2.1-.2.1h-.2l-.1.1h-.2l-.2.1H41l-.2.1h-.1l-.2.1h-.2l-.2.1H40l-.1.1h-.2l-.2.1h-.2l-.2.1-.6.2h-.2l-.1.1-.2.1h-.2l-.2.1h-.2l-.1.1H37l-.2.1h-.2l-.1.1-.2.1h-.2l-.1.1h-.2l-.2.1-.2.1h-.1l-.2.1h-.2l-.2.1h-.1l-.2.2h-.3l-.2.1h-.2l-.1.2h-.4l-.1.1h-.2l-.2.2h-.3l-.2.1h-.1l-.2.2h-.3l-.2.1h-.2l-.1.1-.2.1h-.1l-.2.1h-.2l-.1.1-.2.1H30l-.2.1h-.2l-.1.1-.2.1h-.5l-.1.1-.2.1a274.4 274.4 0 0 0-.6.2l-.1.1h-.2l-.2.1h-.1l-.2.1-.1.1h-.2l-.1.1h-.2l-.1.1-.2.1h-.1l-.2.1h-.1a3.3 3.3 0 0 0-.3.2 3.3 3.3 0 0 0-.3.1 3.3 3.3 0 0 0-.3.1l-.2.1h-.1l-.1.1h-.2l-.1.1-.2.1a3.3 3.3 0 0 1-.3.2h-.4l-.1.2h-.3l-.2.1h-.1l-.1.2h-.3l-.2.1-.1.1h-.1l-.2.1-.1.1h-.2l-.1.1-.1.1h-.2l-.1.1-.1.1h-.2v.1l-.2.1H20v.1l-.2.1h-.2v.1l-.2.1h-.2v.1l-.2.1-.2.1-.1.1h-.1l-.2.1v.1h-.2l-.1.1-.2.1-.2.1-.1.1h-.2v.1l-.2.1H17l-.2.1v.1h-.2l-.1.1-.1.1h-.1l-.6.4h-.1l-.2.1-.2.1-.1.1H15l-.1.1-.2.1-.2.1-.1.1h-.1l-.1.1-.1.1H14v.1l-.2.1h-.1l-.1.1-.1.1h-.1l-.1.1-.2.1-.2.1v.1h-.2v.1l-.2.1h-.1l-.1.1h-.1l-.1.2h-.2l-.1.2h-.2l-.1.2h-.2l-.1.2H11l-.1.2h-.2l-.1.2h-.2l-.1.2H10l-.1.2h-.2l-.1.2h-.2v.2h-.2l-.2.2-.1.2h-.2v.1l-.2.1-.1.1-.1.1h-.1L8 20v.1h-.2v.1l-.1.1h-.1l-.1.1v.1h-.2v.1l-.5.5h-.2v.1l-.2.1-.1.1-.1.1-.1.1-.1.1-.2.1v.1h-.1v.1l-.2.1-.1.1v.1h-.1l-.1.1v.1h-.1l-.1.1v.1l-.1.1v.1h-.1l-.1.1v.1h-.1l-.1.1v.1h-.1v.1l-.1.1h-.1v.1l-.1.1-.1.1-.1.1-.1.1v.1h-.1v.1l-.1.1h-.1l-.4.6H3v.2h-.1l-.1.2h-.1v.2h-.1l-.1.2h-.1v.2h-.1v.2h-.1l-.1.2H2v.2h-.1v.2h-.1v.2h-.1v.1l-.1.1a3 3 0 0 0-.4.7v.1L1 28v.1l-.1.1v.2H.8v.2l-.1.1v.1l-.1.1v.3H.5v.2a1391.6 1391.6 0 0 0-.3.7v.4l-.1.1v.4l-.1.2v.2a3.2 3.2 0 0 0-.1.8v1a3.4 3.4 0 0 0 .1.8v.4l.1.1v.1l.3.7v.3l.1.1v.1l.1.1v.1l.1.1v.1H1v.2l.3.5.1.1v.1l.1.1v.1h.1v.1l.1.1v.1h.1v.1l.1.1.1.1v.1l.1.1.1.1v.1l.5.5.1.1v.1h.1v.1H3v.1l.1.1.1.1.1.1.1.1.1.1.1.1h.1v.1h.1v.1l.1.1.1.1.1.1h.1v.1h.1v.1h.1l.5.4v.1H5v.1l.1.1h.1v.1h.2v.1h.1v.1h.2v.1l.2.1v.1h.2v.1h.1l.2.1.1.1.1.1h.1v.1H7v.2h.2v.1h.2v.1h.2v.1h.1l.1.1.2.1.1.1h.1v.1h.2v.1h.2c.2.2.3.3.5.3l.1.1h.1l.1.1h.1v.1h.2v.1h.2l.1.1h.1v.1h.2v.1h.2v.1h.2v.1h.1l.1.1h.1l.1.1h.2l.1.1.2.1.2.1.2.1.2.1h.2v.1h.2v.1h.2a41.3 41.3 0 0 0 .3.2h.2a1.8 1.8 0 0 0 .2.1h.1l.1.1h.2l.1.1h.1l.2.1h.2v.1h.2v.1h.3l.1.1h.1l.1.1h.2l.2.1h.1l.1.1h.2l.2.1a2 2 0 0 1 .2.1 2.2 2.2 0 0 1 .3.1h.1l.2.1h.2l.1.1h.1l.2.1h.2l.1.1h.1l.1.1h.2l.2.1a55.7 55.7 0 0 0 .8.3h.2a3 3 0 0 0 .3.1 2.8 2.8 0 0 0 .2.1h.2l.2.1h.1l.2.1h.2l.1.1h.3l.1.1h.3l.1.1h.3l.1.1h.3l.1.1h.3l.1.1h.3l.1.1h.3l.1.1h.3l.1.1h.4l.2.1h.3v.1h.4l.1.1h.3l.1.1h.3l.1.1h.3l.2.1h.3l.1.1h.3l.2.1h.2l.2.1h.3l.1.1h.3l.2.1h.3l.1.1h.3l.2.1h.3l.1.1h.5l.1.1h.5l.1.1h.5l.1.1h.5l.2.1h.3l.1.1h.5l.2.1h.5l.1.1h.5l.2.1h.3l.1.1h.5l.2.1h.5l.1.1h.5l.2.1h.2l.2.1h.5l.2.1h.6l.2.1h.7l.1.1h.7l.2.1h.7l.2.1h.6l.2.1h.7l.2.1h.7l.2.1h.7l.2.1h.8l.2.1h.7l.2.1h.7l.2.1h.7l.2.1h1l.2.1H52l.2.1h1.1l.2.1h1.3l.2.1h1.3l.2.1h1.1l.2.1h1.4l.1.1h1.2a1 1 0 1 0 0-2h-1.7l-.2-.1h-.8l-.2-.1H57l-.2-.1H56l-.2-.1h-.7l-.2-.1H54V51h-1.7l-.2-.1h-.7l-.2-.1h-.7l-.2-.1h-.5l-.2-.1h-.4l-.1-.1h-.6l-.2-.1h-.5l-.2-.1h-.5l-.2-.1h-.3l-.2-.1H46l-.2-.1h-.5l-.2-.1h-.5l-.2-.1h-.5l-.1-.1h-.4l-.2-.1h-.5l-.1-.1H42l-.2-.1h-.3l-.2-.1H41l-.2-.1h-.3l-.2-.1H40l-.2-.1h-.3l-.2-.1H39l-.2-.1h-.3l-.1-.1H38l-.1-.1h-.3l-.2-.1h-.3l-.2-.1h-.3l-.2-.1h-.3l-.1-.1h-.3l-.2-.1h-.3L35 48h-.3l-.1-.1h-.3l-.2-.1h-.3l-.1-.1h-.4l-.1-.1H33l-.1-.1h-.3l-.2-.1h-.1l-.2-.1h-.3l-.1-.1h-.2l-.1-.1h-.3L31 47h-.2l-.1-.1h-.3a4.3 4.3 0 0 0-.5-.2h-.3l-.1-.1h-.1l-.2-.1H29l-.1-.1h-.2v-.1h-.4l-.1-.1H28l-.2-.1h-.3l-.1-.1h-.1l-.2-.1h-.3l-.1-.1h-.1l-.2-.1h-.1l-.2-.1h-.3v-.1h-.4v-.1h-.2l-.2-.1h-.2l-.2-.1-.2-.1h-.1L24 45h-.2l-.1-.1h-.2v-.1h-.2l-.1-.1H23l-.1-.1h-.1l-.2-.1-.2-.1h-.1l-.2-.1H22l-.1-.1h-.1l-.2-.1-.2-.1h-.1l-.1-.1H21v-.1h-.2l-.1-.1h-.3v-.1h-.2l-.1-.1H20l-.1-.1h-.2v-.1h-.2v-.1h-.2l-.1-.1H19V43h-.2l-.2-.1-.2-.1h-.1l-.1-.1H18l-.1-.1h-.1l-.2-.1-.2-.1h-.2v-.1H17l-.1-.1h-.1l-.1-.1h-.1l-.1-.1h-.1l-.1-.1h-.1l-.1-.1H16l-.1-.1h-.2l-.1-.1h-.1l-.1-.1h-.1l-.1-.1-.1-.1H15l-.1-.1h-.1l-.1-.1h-.1l-.1-.1h-.1l-.1-.1-.1-.1h-.1l-.1-.1-.1-.1h-.1v-.1h-.2v-.1h-.1l-.1-.1h-.1l-.1-.1-.2-.1V40h-.1l-.1-.1h-.1l-.1-.1-.2-.1-.1-.1h-.1v-.1H12v-.1h-.1l-.1-.1-.2-.1V39h-.1l-.1-.1-.2-.1-.1-.1-.2-.1-.1-.1-.1-.1h-.1v-.1l-.2-.1-.1-.1-.1-.1H10l-.1-.1-.1-.1-.1-.1h-.1v-.1h-.1v-.1h-.1l-.1-.1-.1-.1v-.1H9V37l-.1-.1-.1-.1-.1-.1-.1-.1-.1-.1-.1-.1-.1-.1-.1-.1v-.1H8V36h-.1v-.1h-.1v-.1l-.1-.1v-.1l-.1-.1-.1-.1v-.1h-.1v-.1l-.1-.1V35h-.1v-.1l-.1-.1v-.1l-.1-.1v-.1l-.1-.1v-.2l-.1-.1v-.4h-.1v-1.5Z"
  />
  <path
    fill="#0433FF"
    d="M6.6 39v-.2h.1v-.4l.1-.1V38H7v-.1l.1-.1v-.2h.1v-.2l.1-.1v-.1h.1V37h.1v-.1h.1v-.2h.1v-.1h.1v-.2h.1v-.1H8V36l.1-.1.1-.1v-.1l.1-.1.1-.1v-.1h.1l.1-.1.1-.1v-.1h.1V35H9v-.1h.1v-.1l.1-.1h.1v-.1l.1-.1.1-.1.1-.1.1-.1.1-.1.1-.1.1-.1.1-.1.1-.1.1-.1.1-.1.1-.1.1-.1.2-.1V33h.1l.2-.1.1-.1v-.1h.1l.1-.1.2-.1v-.1h.1l.1-.1v-.1h.2V32l.1-.1h.1l.1-.1.1-.1.2-.1v-.1h.1l.1-.1.1-.1h.1v-.1l.2-.1.2-.1h.1l.1-.1.1-.1h.1l.1-.1.1-.1h.1l.1-.1v-.1h.2v-.1l.2-.1.2-.1V30h.2v-.1l.2-.1.2-.1v-.1h.2v-.1h.2v-.2h.2l.2-.2h.2l.1-.2h.2l.1-.2h.2l.1-.2h.3v-.2h.2l.2-.2h.2l.1-.2h.3v-.2h.4l.1-.2h.2l.2-.2h.2l.1-.2h.2l.2-.2h.2l.1-.2h.2l.2-.2h.3l.1-.2h.2l.2-.2h.2l.2-.2h.2l.1-.2h.2l.2-.2h.2l.1-.1h.1l.2-.1.1-.1h.1l.2-.1h.1l.1-.1.2-.1h.1l.1-.1h.2l.1-.1.2-.1.2-.1h.2l.1-.1.2-.1.2-.1h.2l.1-.1.1-.1h.2l.1-.1h.2l.1-.1.1-.1h.2l.1-.1h.2l.1-.1.2-.1h.1l.2-.1h.1l.2-.1.1-.1h.2l.1-.1h.1l.2-.1.1-.1h.2l.1-.1h.2l.1-.1.2-.1h.1l.2-.1h.1l.2-.1.1-.1a3.7 3.7 0 0 0 .4-.1h.1a3.7 3.7 0 0 0 .3-.2h.2l.1-.1h.2l.1-.1h.2l.1-.2h.4l.1-.1h.2l.1-.2h.4l.1-.1h.2l.1-.1.2-.1h.2l.1-.1h.2l.1-.1.2-.1h.2l.1-.1h.2l.2-.1.1-.1h.2l.2-.1h.1l.2-.1.2-.1h.1l.2-.1h.2l.1-.1.2-.1h.2l.1-.1h.2l.2-.1.1-.1h.2l.2-.1h.2l.1-.1h.2l.2-.1h.1l.2-.1h.2l.2-.1h.1l.2-.1h.2l.2-.1h.1l.1-.1h.2l.2-.1h.2l.1-.1h.2l.2-.1h.2l.1-.1.2-.1h.2l.2-.1h.2l.1-.1h.2l.2-.1h.2l.2-.1h.2l.1-.1h.2l.2-.1h.2l.2-.1h.2l.2-.1.1-.1h.2l.2-.1h.2l.2-.1h.2l.2-.1h.1l.2-.1h.2l.2-.1h.2l.2-.1h.2l.2-.1.2-.1h.2l.1-.1h.2l.2-.1h.2l.2-.1h.2l.2-.1h.4l.2-.1h.2l.2-.1h.2l.1-.1h.2l.2-.1h.2l.2-.1h.2l.2-.1h.2l.2-.1h.4l.2-.1h.2l.2-.1h.2l.2-.1h.2l.2-.1h.2l.2-.1h.2l.2-.1h.4l.2-.1h.2l.2-.1h.2l.3-.1h.2l.2-.1h.2l.2-.1h.2l.2-.1h.2l.2-.1h.4l.2-.1h.2l.2-.1h.2l.2-.1h.5l.2-.1h.2l.2-.1h.4l.2-.1h.2l.3-.1h.4a3.3 3.3 0 1 0-1.5-6.5h-.5l-.2.1h-.4l-.2.1h-.4l-.3.1h-.2l-.2.1h-.2l-.2.1h-.4l-.2.1h-.2l-.3.1h-.2l-.2.1h-.2l-.2.1H56l-.2.1h-.2l-.2.1h-.2L55 8h-.4l-.2.1h-.2l-.2.1h-.2l-.3.1h-.2l-.2.1H53l-.2.1h-.2l-.2.1H52l-.2.1h-.2l-.2.1h-.2L51 9h-.2l-.2.1h-.2l-.2.1H50l-.2.1h-.2l-.2.1H49l-.1.1h-.2l-.2.1h-.2l-.2.1h-.2l-.2.1-.2.1h-.2l-.2.1h-.2l-.2.1h-.2l-.1.1H46l-.2.1h-.2l-.2.1h-.2l-.2.1h-.2l-.2.1h-.2l-.1.1-.2.1H44l-.2.1h-.2l-.2.1h-.2l-.2.1-.2.1h-.2l-.2.1h-.2l-.2.1h-.2l-.1.1h-.2l-.2.1-.2.1h-.2l-.1.1h-.2l-.2.1h-.2l-.2.1h-.1l-.2.1h-.2l-.2.1H39l-.6.3h-.3l-.2.1h-.2l-.2.1-.2.1h-.1l-.2.1h-.2l-.2.1h-.1l-.2.1h-.2l-.1.2h-.4l-.2.1h-.1l-.2.2h-.4l-.1.1h-.2l-.2.2H34l-.2.1h-.1l-.2.1-.2.1h-.1l-.2.1h-.2l-.1.1-.2.1h-.2l-.1.1H32l-.2.1-.1.1h-.2l-.2.1h-.1l-.2.1-.1.1h-.2l-.2.1h-.1l-.2.1-.1.1h-.2l-.2.1h-.1l-.2.1-.1.1H29l-.2.1h-.1l-.2.1-.1.1h-.2l-.1.1h-.2l-.1.1-.2.1h-.2l-.1.1h-.2l-.1.1-.2.1h-.1l-.2.1h-.1l-.2.1-.1.1h-.2l-.1.1h-.2a3.3 3.3 0 0 0-.3.2 3.3 3.3 0 0 0-.3.1l-.2.1h-.1l-.1.2h-.4l-.2.1a3.3 3.3 0 0 1-.3.2h-.2l-.1.1h-.1l-.2.2h-.4l-.1.1h-.1l-.2.2H22l-.1.1-.1.1h-.2l-.1.1-.2.1h-.1l-.1.1-.2.1h-.1l-.1.1-.2.1-.2.1-.2.1-.2.1-.2.1-.2.1-.2.1-.2.1-.1.1h-.2l-.1.1-.1.1h-.2v.1l-.2.1h-.1l-.2.1v.1h-.2l-.1.1-.2.1-.2.1-.1.1h-.2v.1l-.2.1h-.1l-.1.1-.1.1-.6.3h-.1l-.2.1v.1h-.2l-.1.1-.1.1H15l-.2.1v.1h-.2l-.1.1-.1.1h-.1l-.1.1-.2.1-.2.1-.1.1h-.1l-.1.1-.1.1h-.1l-.2.1v.1h-.2v.1l-.2.1-.2.1-.1.1h-.1l-.1.1-.1.1H12l-.1.1-.1.1h-.1l-.1.1-.1.1h-.1l-.1.1h-.1l-.1.2h-.2l-.1.2h-.2l-.1.2h-.2l-.1.2H10l-.1.2h-.2v.2h-.2l-.2.2H9v.2h-.2l-.1.2h-.1l-.2.2h-.1l-.1.2H8v.2h-.2l-.1.1-.1.1h-.1v.1l-.2.1-.5.5h-.1l-.1.1-.2.2h-.1l-.1.2h-.1l-.1.2h-.2v.1l-.1.1-.2.1v.1h-.1v.1l-.1.1h-.1v.1l-.1.1H5v.1l-.1.1h-.1v.1l-.1.1h-.1v.1l-.1.1h-.1v.1l-.1.1-.1.1-.1.1-.1.1v.1l-.1.1v.1h-.1v.1l-.1.1-.1.1-.1.1-.4.5-.1.1-.1.2h-.1v.2h-.1l-.1.2h-.1v.2h-.1l-.1.2-.1.2H2v.4h-.1l-.1.2-.1.2-.1.2a3 3 0 0 0-.4.6v.1l-.1.1v.1l-.1.1v.2l-.1.1v.2H.7v.2H.6v.3l-.1.1v.1l-.3.7v.5H.1v.4H0v.3a3.2 3.2 0 0 0-.1.8v1a3.4 3.4 0 0 0 .1.9v.3l.1.1v.2l.3.6v.3l.1.1v.2h.1v.2h.1v.1l.1.1v.1l.3.6h.1v.1l.1.1v.1l.1.1v.1h.1v.1l.1.1v.1h.1v.1H2v.1l.1.1v.1h.1v.1l.5.5v.1h.1v.1l.1.1.1.1.1.1.1.1v.1h.1v.1h.1v.1h.1v.1h.1l.1.1.1.1.1.1.1.1.1.1.1.1.1.1.1.1.5.4.2.1.1.1h.1v.1h.1l.1.1.1.1.2.1v.1H6v.1h.2v.1h.1v.1h.2v.1h.1v.1h.1l.1.1.2.1.1.1h.2v.1h.1l.1.1.2.1.1.1h.1v.1H8v.1h.2v.1h.2v.1h.1l.1.1.5.3h.1l.1.1h.1l.1.1h.2v.1h.1l.1.1h.1l.1.1.2.1.2.1.2.1h.1l.1.1h.1l.1.1h.1l.1.1h.1v.1h.2v.1h.2v.1h.2v.1h.2l.2.1.2.1h.2v.1h.2a29.4 29.4 0 0 0 .2.1h.1l.1.1a1.8 1.8 0 0 0 .2.1h.2l.1.1h.1l.1.1h.2l.2.1.2.1h.2l.1.1h.1l.1.1h.1a2 2 0 0 0 .3.1l.2.1h.2l.1.1h.2v.1h.2l.2.1h.2l.2.1.2.1h.2l.2.1a41.8 41.8 0 0 1 .2.1h.2l.1.1h.2v.1h.4l.4.2h.2v.1h.3l.2.1a3 3 0 0 0 .2.1h.2v.1a2.9 2.9 0 0 0 .3.1h.2l.2.1h.3l.1.1h.2l.2.1h.2l.2.1h.2l.2.1h.2l.2.1h.2l.2.1h.2l.2.1h.2l.2.1h.3v.1h.4l.1.1h.2l.2.1h.3l.1.1h.3l.2.1h.2l.2.1h.3l.1.1h.5l.1.1h.3l.1.1h.3l.2.1h.3l.1.1h.3l.2.1h.3l.1.1h.3l.2.1h.4l.2.1h.4l.2.1h.3l.1.1h.5l.2.1h.4l.2.1h.5l.1.1h.3l.2.1h.5l.1.1h.5l.2.1h.4l.2.1h.5l.2.1h.3l.2.1h.5l.1.1h.5l.2.1h.5l.2.1h.6l.2.1h.7l.1.1h.7l.2.1h.7l.2.1h.7l.1.1h.7l.2.1h.7l.2.1h.8l.2.1h.7l.1.1h.7l.2.1h.7l.2.1h1.1l.2.1h1.1l.1.1H53l.2.1h1.1l.2.1h1.3l.2.1h1.2l.1.1h1.4l.2.1H60l.1.1h.4a1 1 0 1 0 0-2h-1.1l-.2-.1h-.8l-.2-.1h-.8l-.1-.1h-.8l-.2-.1h-.7l-.2-.1h-.7l-.2-.1h-.7l-.2-.1h-.8l-.2-.1H52l-.2-.1H51l-.2-.1h-.5l-.2-.1h-.5l-.2-.1H49l-.2-.1h-.5L48 57h-.4l-.2-.1H47l-.1-.1h-.7l-.1-.1h-.5l-.2-.1H45l-.1-.1h-.6l-.1-.1h-.5l-.2-.1H43l-.2-.1h-.3l-.2-.1h-.5l-.2-.1h-.3l-.2-.1h-.3l-.2-.1h-.3l-.2-.1h-.3l-.1-.1h-.4l-.1-.1h-.4l-.1-.1h-.3l-.2-.1h-.3l-.2-.1h-.3l-.2-.1H37l-.1-.1h-.4l-.1-.1H36l-.2-.1h-.3l-.2-.1H35l-.1-.1h-.3l-.2-.1h-.3l-.1-.1h-.3l-.2-.1h-.2l-.1-.1h-.3l-.2-.1h-.3l-.1-.1H32l-.1-.1h-.2l-.2-.1h-.1l-.1-.1H31l-.2-.1h-.1l-.2-.1a4.3 4.3 0 0 0-.4-.1h-.2l-.1-.1h-.3l-.1-.1h-.2l-.1-.1h-.3l-.2-.1-.2-.1H28l-.1-.1h-.2l-.1-.1h-.2l-.1-.1H27l-.1-.1h-.2l-.1-.1h-.2l-.1-.1H26l-.1-.1h-.2l-.2-.1h-.2V52H25v-.1h-.2l-.2-.1h-.2l-.1-.1H24v-.1h-.2l-.1-.1h-.2v-.1h-.3l-.2-.1-.1-.1h-.2V51h-.2l-.1-.1h-.2v-.1H22l-.1-.1h-.3v-.1h-.2l-.1-.1h-.1l-.2-.1-.2-.1h-.1l-.1-.1h-.2v-.1h-.2l-.1-.1h-.2l-.2-.1-.2-.1-.2-.1h-.1l-.1-.1H19l-.2-.1-.2-.1h-.2l-.1-.1h-.1l-.1-.1H18l-.1-.1h-.2V49h-.4v-.1H17l-.1-.1h-.2l-.1-.1h-.1l-.1-.1h-.1l-.1-.1h-.1l-.1-.1-.1-.1h-.1l-.1-.1h-.1l-.1-.1h-.1l-.1-.1h-.1l-.1-.1H15l-.1-.1h-.1l-.1-.1h-.1l-.1-.1h-.1v-.1h-.1l-.1-.1H14l-.1-.1h-.1l-.1-.1-.2-.1-.1-.1h-.1l-.1-.1-.1-.1-.2-.1-.1-.1h-.1l-.1-.1h-.1v-.1h-.2v-.1h-.1l-.1-.1-.2-.1V46h-.1l-.1-.1-.2-.1-.1-.1h-.1v-.1h-.2v-.1H11v-.1h-.2v-.1h-.1v-.1l-.1-.1h-.1V45h-.2v-.1h-.1v-.1h-.1l-.1-.1-.1-.1h-.1v-.1h-.1v-.1h-.1l-.1-.1-.1-.1V44h-.1l-.1-.1-.1-.1-.1-.1v-.1h-.1v-.1h-.1v-.1h-.1v-.1h-.1v-.1l-.1-.1-.1-.1-.1-.1h-.1v-.1l-.1-.1-.1-.1-.1-.1-.1-.1v-.1l-.1-.1v-.1h-.1V42h-.1l-.1-.1v-.1h-.1v-.1l-.1-.1v-.1H7V41l-.1-.1v-.2h-.1v-.3l-.1-.1V39Z"
  />
  <path
    fill="#9CADFF"
    d="M6.6 45.6v-.1l.1-.1V45h.1v-.4H7v-.2l.1-.1v-.1l.1-.1V44h.1v-.1l.1-.1v-.1l.1-.1.1-.1v-.1l.1-.1.1-.1V43l.1-.1.1-.1v-.2h.1v-.1l.1-.1v-.1h.1v-.1l.1-.1.1-.1h.1l.1-.1.1-.1v-.1H9l.1-.1.1-.1v-.1h.1l.1-.1v-.1h.1V41l.1-.1a72.5 72.5 0 0 0 .2-.1v-.1h.1v-.1l.1-.1h.1v-.1l.1-.1h.1v-.1l.1-.1h.1V40l.1-.1h.1v-.1l.2-.1.1-.1v-.1h.2v-.1l.1-.1.1-.1h.1v-.1l.2-.1.1-.1.1-.1.2-.1v-.1h.1l.1-.1.1-.1h.1v-.1l.2-.1.1-.1.1-.1h.1l.1-.1v-.1h.2v-.1l.2-.1.1-.1.1-.1h.1l.1-.1h.1l.1-.2h.1l.2-.2h.2v-.2h.2l.2-.2h.2v-.2h.2l.2-.2h.2V36h.2l.2-.2h.2l.1-.2h.2l.1-.2h.2l.1-.2h.2l.2-.2h.2v-.2h.3l.1-.1.1-.1h.1l.2-.1v-.1h.2l.1-.1.1-.1h.1l.1-.1.2-.1.2-.2h.2l.2-.2h.2l.1-.2h.2v-.1l.2-.1h.1l.2-.1.1-.1h.1l.1-.1.2-.1h.1l.1-.1.2-.1.2-.1.1-.1h.2v-.1l.2-.1h.1l.2-.1h.1l.1-.2h.3l.1-.1h.2l.1-.1.1-.1h.2l.1-.1a2.5 2.5 0 0 0 .3-.1l.1-.1h.2v-.1h.2l.2-.1.1-.1h.2v-.1h.2l.2-.1.1-.1h.1l.2-.1a194.7 194.7 0 0 0 .3-.1l.1-.1h.1a3.4 3.4 0 0 1 .3-.2h.2l.1-.1h.2l.1-.1h.2l.1-.1.2-.1h.1l.2-.1h.1l.1-.1.2-.1h.1l.2-.1h.1l.2-.1.1-.1h.2l.1-.1h.2l.1-.1.2-.1h.1l.2-.1h.2a3.7 3.7 0 0 0 .3-.2h.1l.2-.1h.1l.2-.1h.1l.2-.2h.3l.2-.1h.1l.2-.2h.2l.2-.1h.1l.2-.2h.4l.2-.1h.1l.2-.1.1-.1h.2l.2-.1h.1l.2-.1.2-.1h.1l.2-.1h.2l.1-.1.2-.1h.2l.1-.1h.2l.2-.1.1-.1h.2l.2-.1h.1l.2-.1.2-.1h.1l.2-.1h.2l.2-.1h.1l.2-.1h.2l.1-.1h.2l.2-.1h.2l.1-.1h.2l.2-.1.2-.1h.2l.2-.1h.2l.2-.1h.1l.2-.1.2-.1h.2l.1-.1h.2l.2-.1h.2l.2-.1h.1l.2-.1h.2l.2-.1h.2l.2-.1h.1l.2-.1h.2l.2-.1.2-.1h.2l.2-.1h.1l.2-.1h.2l.2-.1h.2l.2-.1h.2l.1-.1h.2l.2-.1h.2l.2-.1.2-.1h.2l.2-.1h.2l.2-.1h.1l.2-.1h.2l.2-.1h.2l.2-.1h.2l.2-.1h.2l.2-.1h.4l.2-.1h.1l.2-.1h.2l.2-.1h.2l.2-.1h.2l.2-.1h.2l.2-.1h.2l.2-.1h.4l.2-.1h.2l.2-.1h.2l.2-.1h.2l.2-.1h.2l.2-.1h.2l.2-.1h.4l.2-.1h.3l.2-.1h.2l.2-.1h.2l.2-.1h.2l.2-.1h.2l.2-.1h.2l.2-.1h.4l.2-.1h.2l.2-.1h.5l.2-.1h.2l.2-.1h.4l.2-.1h.3l.2-.1h.2a3.3 3.3 0 1 0-1.5-6.5 12.6 12.6 0 0 0-.7.1H60l-.2.1h-.4l-.2.1h-.3l-.2.1h-.4l-.2.1h-.2l-.2.1h-.2l-.2.1H57l-.2.1h-.2l-.2.1h-.2l-.2.1h-.2l-.2.1h-.4l-.2.1h-.2l-.2.1h-.2l-.2.1H54l-.2.1h-.3l-.2.1h-.2l-.2.1h-.4l-.2.1h-.2l-.2.1h-.2l-.2.1h-.2l-.2.1H51l-.2.1h-.2l-.2.1h-.2l-.2.1h-.4l-.2.1h-.2l-.2.1h-.1l-.2.1h-.2l-.2.1H48l-.2.1h-.2l-.2.1h-.2l-.2.1h-.2l-.2.1-.2.1h-.1l-.2.1h-.2l-.2.1h-.2l-.2.1H45l-.2.1h-.2l-.2.1h-.1l-.2.1H44l-.2.1-.2.1h-.2l-.2.1H43l-.1.1h-.2l-.2.1h-.2l-.2.1H42l-.2.1h-.1l-.2.1h-.2l-.2.1h-.2l-.1.1-.2.1h-.2l-.2.1H40l-.1.1h-.2l-.2.1h-.2l-.2.1-.6.2h-.2l-.1.1H38l-.2.1h-.2l-.2.1h-.1l-.2.1h-.2l-.2.2h-.4l-.2.1H36l-.2.2h-.4l-.1.1H35l-.2.2h-.2l-.2.1h-.2l-.1.1-.2.1h-.2l-.1.1h-.2l-.2.1-.1.1h-.2l-.2.1h-.1l-.2.1-.2.1h-.1l-.2.1h-.2l-.1.1-.2.1h-.2l-.1.1h-.2l-.1.1-.2.1h-.2l-.1.1H30l-.1.1-.2.1h-.2l-.1.1h-.2l-.1.1-.2.1h-.2l-.1.1h-.2l-.1.1a3.7 3.7 0 0 0-.3.2h-.2l-.2.1a3.7 3.7 0 0 0-.3.2H27l-.2.1-.1.1h-.2l-.1.1h-.2l-.1.1-.2.1h-.1a3.2 3.2 0 0 0-.3.2 3.3 3.3 0 0 0-.3 0 3.2 3.2 0 0 0-.3.2h-.2l-.1.1h-.1l-.2.2H24l-.1.1h-.2l-.1.2h-.3l-.1.1H23l-.1.1-.2.1h-.1l-.1.1h-.2l-.1.2h-.3l-.1.2h-.3l-.2.2h-.2l-.2.2h-.2l-.2.2h-.2l-.2.2h-.2l-.2.1v.1h-.2l-.2.1v.1H19l-.1.1-.2.1h-.1l-.1.1-.2.1-.2.1-.1.1h-.2v.1l-.2.1h-.1l-.2.1v.1h-.2l-.1.1-.2.1-.2.1-.1.1h-.1l-.1.1-.6.3-.1.1h-.2v.1l-.2.1h-.1l-.1.1-.1.1h-.2v.1l-.2.1h-.1l-.1.1-.1.1h-.1l-.2.1v.1h-.2l-.1.1-.1.1h-.1l-.1.1-.1.1H13v.1l-.2.1-.2.1v.1h-.2l-.1.1-.1.1h-.1l-.1.1-.1.1h-.1l-.1.1-.1.1h-.1l-.1.1-.1.1h-.1l-.1.1-.1.1-.1.1-.1.1h-.1l-.1.1-.1.1h-.1l-.1.1-.1.1H10l-.1.1-.1.1h-.1l-.1.1v.1h-.2v.1h-.2v.2H9l-.1.2h-.2l-.1.2h-.2v.2h-.2l-.1.2H8l-.2.2h-.1l-.1.2h-.1l-.2.2-.5.4h-.1l-.1.2h-.2v.2h-.2v.2H6v.2h-.2l-.1.2h-.2v.2h-.1l-.1.2h-.1l-.1.2H5l-.1.2h-.1l-.1.1-.1.1-.1.1-.1.1-.1.1v.1h-.1l-.1.1v.1H4v.1l-.1.1h-.1v.1l-.1.1-.1.1v.1h-.1l-.1.1-.4.5v.2l-.1.1-.1.1v.1h-.1v.1l-.1.1-.1.1v.1h-.1v.1l-.1.1v.1l-.1.1-.1.1-.1.2-.1.2h-.1v.2h-.1v.2h-.1v.2a3 3 0 0 0-.4.6v.1H1v.4l-.1.2v.2H.7v.1l-.1.1v.2l-.1.1v.2c-.2.2-.2.4-.3.7v.4l-.1.1v.4l-.1.1v.3l-.1.7v1a3.4 3.4 0 0 0 0 .8H0v.5h.1v.2a3.1 3.1 0 0 0 .3.7v.3h.1v.2l.1.1v.1l.1.1v.1H1v.1l.3.6.1.1v.1h.1v.1l.1.1v.1l.1.1v.1h.1v.1l.1.1.1.1v.2h.1v.1l.5.5v.1l.1.1v.1h.1v.1H3v.2h.1v.1h.1v.1h.1v.1l.1.1.1.1h.1v.1h.1v.1h.1v.1H4v.1l.1.1.1.1v.1h.1l.5.4.2.1v.1h.1l.1.1.1.1h.1v.1h.1v.1h.2v.1H6v.1l.2.1.1.1.2.1.1.1.1.1h.1l.2.1.1.1.2.1.1.1h.1v.1h.2v.1h.1l.1.1H8v.1h.1l.1.1.2.1.1.1h.1l.5.3.1.1h.2l.1.1.2.1.1.1h.1l.1.1h.1v.1h.2v.1h.2l.2.1.1.1h.1l.1.1h.1l.1.1h.1l.1.1.2.1.2.1h.2v.1h.2v.1h.2v.1h.2l.2.1.2.1h.2l.1.1h.1a1.8 1.8 0 0 0 .2.1h.1l.1.1h.1l.1.1h.3v.1h.2v.1h.2a2 2 0 0 0 .3.2 2.2 2.2 0 0 0 .2 0h.1l.2.1a2 2 0 0 0 .2.1h.2l.1.1h.1a2.3 2.3 0 0 1 .3.1 2 2 0 0 1 .2.1h.2l.1.1h.2v.1h.4l.1.1h.2v.1a55.7 55.7 0 0 1 .3 0l.1.1h.1l.2.1h.2l.1.1.4.2h.2a41.8 41.8 0 0 0 .2 0l.1.1h.2a3 3 0 0 0 .2.1h.1l.2.1.2.1h.2v.1h.4l.2.1h.2l.1.1h.3l.1.1h.2l.1.1h.3l.1.1h.3l.1.1h.3l.1.1h.4l.1.1h.2l.2.1h.2l.2.1h.3v.1h.4l.1.1h.3l.1.1h.3l.1.1h.3l.2.1h.3l.1.1h.3l.2.1h.2l.2.1h.3l.1.1h.3l.2.1h.3l.1.1h.5l.1.1h.3l.2.1h.4l.2.1h.4l.2.1h.4l.2.1h.3l.2.1h.4l.2.1h.5l.1.1h.5l.2.1h.5l.1.1h.3l.2.1h.5l.1.1h.5l.2.1h.5l.2.1h.3l.2.1h.5l.1.1h.7l.2.1h.6l.2.1h.7l.2.1h.7l.1.1h.7l.2.1h.9l.1.1h.7l.2.1h.7l.2.1h.7l.2.1h.7l.2.1h.7l.1.1h.9l.2.1H51l.2.1h1.2l.2.1h1.1l.2.1h1.3l.1.1h1.2l.2.1H58l.2.1h1.3l.1.1h1a1 1 0 1 0 0-2H59l-.2-.1H58l-.2-.1h-.7l-.2-.1h-.7l-.2-.1h-.8l-.1-.1h-.8l-.2-.1h-.7l-.2-.1h-.7l-.2-.1h-.7l-.2-.1h-.7l-.2-.1H50l-.2-.1h-.4l-.2-.1h-.5l-.2-.1H48l-.2-.1h-.5l-.2-.1h-.5l-.2-.1h-.3l-.2-.1h-.5l-.2-.1h-.5l-.2-.1H44l-.2-.1h-.3l-.2-.1h-.5l-.2-.1h-.5l-.1-.1h-.4l-.1-.1H41l-.1-.1h-.4l-.1-.1H40l-.1-.1h-.2l-.2-.1h-.3L39 62h-.3l-.2-.1h-.3l-.2-.1h-.3l-.1-.1h-.4l-.1-.1h-.3l-.2-.1h-.3l-.2-.1h-.3l-.2-.1h-.3l-.1-.1h-.3l-.2-.1h-.3l-.1-.1H34l-.2-.1h-.3l-.2-.1h-.1l-.2-.1h-.3l-.1-.1h-.2l-.1-.1H32l-.2-.1h-.3l-.1-.1h-.1l-.2-.1h-.3l-.1-.1a4.3 4.3 0 0 0-.5-.2h-.4l-.2-.1h-.2l-.2-.1h-.1l-.2-.1h-.3v-.1h-.2l-.2-.1H28l-.2-.1h-.1l-.2-.1h-.2l-.2-.1H27l-.2-.1h-.2l-.2-.1h-.1l-.2-.1H26l-.2-.1h-.2l-.2-.1-.2-.1H25l-.2-.1h-.2v-.1h-.4l-.2-.1-.2-.1h-.1l-.2-.1-.2-.1h-.1l-.2-.1-.2-.1-.2-.1h-.1l-.2-.1-.2-.1H22l-.1-.1h-.2v-.1h-.5l-.1-.1H21V57h-.2l-.1-.1h-.1l-.2-.1-.2-.1h-.1l-.1-.1h-.1l-.2-.1h-.2v-.1h-.2l-.1-.1H19l-.1-.1h-.2v-.1h-.2V56h-.2l-.1-.1H18l-.1-.1h-.1l-.2-.1-.2-.1-.2-.1-.2-.1-.1-.1h-.1l-.1-.1h-.2l-.1-.1h-.1l-.1-.1h-.3l-.1-.1h-.1l-.1-.1h-.1l-.1-.1h-.1l-.1-.1H15l-.1-.1h-.1l-.1-.1h-.1l-.1-.1h-.1l-.1-.1V54H14l-.1-.1h-.1v-.1l-.2-.1-.1-.1h-.1l-.1-.1h-.1v-.1H13v-.1h-.1l-.1-.1h-.1l-.1-.1-.2-.1-.1-.1-.1-.1-.2-.1-.1-.1h-.1v-.1h-.2v-.1h-.1l-.1-.1-.2-.1-.1-.1V52h-.2v-.1h-.1v-.1h-.1l-.1-.1-.2-.1-.1-.1-.1-.1H10v-.1l-.1-.1V51h-.1l-.1-.1-.1-.1-.1-.1-.1-.1h-.1v-.1h-.1v-.1H9l-.1-.1-.1-.1-.1-.1-.1-.1h-.1v-.1h-.1v-.1h-.1v-.1h-.1l-.1-.1v-.1H8v-.2l-.1-.1-.1-.1V49h-.1v-.1l-.1-.1-.1-.1v-.1h-.1v-.1l-.1-.1v-.1l-.1-.1V48H7v-.4h-.1v-.2l-.1-.1V47h-.1v-1.5Z"
  />
  <path
    fill="#F5F3E6"
    d="M6.6 52.2V52l.1-.1v-.4h.1v-.2l.1-.1V51H7v-.3h.1v-.1l.1-.2.1-.1v-.1h.1V50h.2v-.1l.1-.1v-.1h.1a206.3 206.3 0 0 1 .1-.2l.1-.1.1-.1v-.1h.1V49l.1-.1v-.1h.1v-.1l.1-.1h.1v-.1h.1v-.1l.1-.1.1-.1H9v-.1l.1-.1.1-.1.1-.1.1-.1v-.1h.1l.1-.1v-.1h.1l.1-.1v-.1h.1l.1-.1V47h.1l.1-.1v-.1h.1l.1-.1v-.1h.1l.1-.1v-.1h.2v-.1l.1-.1.2-.1V46h.2l.1-.1v-.1h.2v-.1l.1-.1h.1v-.1l.2-.1.1-.1.1-.1h.1l.1-.1V45h.2v-.1l.1-.1h.1l.1-.1.1-.1.2-.1v-.1h.2v-.1l.1-.1h.1l.1-.1.1-.1h.1l.1-.1.1-.1h.1v-.1h.2v-.2h.2l.2-.2h.2V43h.2l.2-.2h.2v-.2h.2l.2-.2h.2v-.2h.4l.1-.2h.2l.1-.2h.2l.1-.2h.2l.2-.2h.2l.1-.2h.2l.1-.1.2-.1.2-.1.1-.1h.1l.1-.1.1-.1h.2v-.1l.2-.1h.1l.2-.2h.2l.1-.2h.2l.2-.2h.2l.1-.1.2-.1h.1l.1-.1.1-.1h.2l.1-.1.1-.1h.2v-.1l.2-.1h.1l.2-.1v-.1h.2l.1-.1.2-.1h.1l.1-.1h.2l.1-.1.1-.1h.2l.1-.1h.1l.2-.1.1-.1a2.6 2.6 0 0 0 .3-.1h.1l.2-.1.2-.2h.2l.2-.1.2-.2h.4l.1-.1h.2l.1-.2h.2l.1-.1h.2l.1-.1.2-.1h.1l.2-.1h.1l.2-.1.1-.1h.2l.1-.1h.2l.1-.1.1-.1h.2l.1-.1h.2l.1-.1.2-.1h.1l.2-.1h.1l.2-.1.1-.1h.2l.1-.1a3.7 3.7 0 0 0 .4-.1 3.7 3.7 0 0 0 .3-.2h.3l.1-.1.2-.1h.1l.2-.1h.1l.2-.1.2-.1h.1l.2-.1h.1l.2-.1.2-.1h.1l.2-.1h.1l.2-.1.2-.1h.1l.2-.1h.1l.2-.1.2-.1h.1l.2-.1h.2l.1-.1h.2l.2-.2h.3l.2-.1h.1l.2-.2h.3l.2-.1h.2l.1-.2h.4l.1-.1h.2l.2-.1h.2l.1-.1h.2l.2-.1.1-.1h.2l.2-.1h.2l.1-.1h.2l.2-.1h.2l.1-.1h.1l.2-.1h.2l.2-.1h.1l.2-.1h.2l.2-.1h.1l.2-.1h.2l.2-.1h.2l.1-.1h.2l.2-.1.2-.1h.2l.2-.1h.1l.2-.1h.2l.2-.1h.2l.2-.1h.2l.1-.1h.2l.2-.1h.2l.2-.1h.2l.2-.1.1-.1h.2l.2-.1h.2l.2-.1h.2l.2-.1h.2l.2-.1h.2l.1-.1h.2l.2-.1h.2l.2-.1h.2l.2-.1h.2l.2-.1h.2l.2-.1h.2l.2-.1h.1l.2-.1h.4l.2-.1h.2l.2-.1h.2l.2-.1h.2l.2-.1h.2l.2-.1h.2l.2-.1h.2l.2-.1h.4l.2-.1h.2l.2-.1h.2l.2-.1h.2l.2-.1h.2l.2-.1h.3l.2-.1h.4l.2-.1h.2l.2-.1h.2l.2-.1h.2l.2-.1h.2l.2-.1h.4l.2-.1h.2l.3-.1h.4l.2-.1h.2l.2-.1h.4l.3-.1h.2l.2-.1A3.3 3.3 0 1 0 61 20h-.5l-.2.1h-.2l-.2.1h-.4l-.2.1h-.2l-.3.1h-.4l-.2.1H58l-.2.1h-.2l-.2.1h-.2l-.3.1h-.2l-.2.1h-.4l-.2.1h-.2l-.2.1h-.2l-.2.1H55l-.2.1h-.2l-.2.1h-.2l-.2.1h-.5l-.2.1h-.2l-.2.1h-.2l-.2.1h-.2l-.2.1H52l-.2.1h-.2l-.2.1h-.2l-.2.1h-.4l-.2.1h-.2l-.2.1h-.2l-.2.1h-.2l-.2.1H49l-.1.1h-.2l-.2.1h-.2l-.2.1h-.2l-.2.1h-.2l-.2.1H47l-.2.1h-.2l-.2.1h-.1l-.2.1h-.2l-.2.1-.2.1h-.2l-.2.1h-.2l-.2.1h-.2l-.1.1h-.2l-.2.1h-.2l-.2.1h-.2l-.2.1H43l-.1.1h-.2l-.2.1-.2.1h-.2l-.2.1h-.2l-.1.1h-.2l-.2.1H41l-.2.1h-.1l-.2.1h-.2l-.2.1H40l-.1.1-.2.1h-.2l-.2.1H39l-.6.2-.2.1h-.1l-.2.1h-.2l-.2.1h-.2l-.1.1H37l-.2.1h-.2l-.1.1-.2.1h-.2l-.1.1h-.2l-.2.1-.2.1h-.1l-.2.1h-.2l-.2.1-.1.1h-.2l-.2.1h-.1l-.2.1-.2.1h-.1l-.2.1h-.2l-.1.1-.2.1h-.2l-.1.1h-.2l-.2.1-.1.1h-.2l-.2.1h-.1l-.2.1-.2.1h-.1l-.2.1h-.1l-.2.1-.2.1h-.1l-.2.1H30l-.2.1h-.2l-.1.2h-.3l-.2.1h-.2l-.1.2h-.3l-.2.1a3.7 3.7 0 0 0-.3.2h-.3a3.7 3.7 0 0 0-.3.2h-.2l-.1.1h-.2l-.1.1h-.2l-.1.1-.2.1h-.1l-.2.1h-.1a3.3 3.3 0 0 0-.3.2 3.3 3.3 0 0 0-.3.1 3.2 3.2 0 0 0-.3.1l-.2.1h-.1l-.1.1h-.2l-.1.1-.2.1a3.3 3.3 0 0 1-.3.2h-.2l-.1.1h-.1l-.2.1H23a83.5 83.5 0 0 1-.3.2h-.1l-.2.1h-.1l-.2.2h-.2l-.2.2h-.4l-.1.2h-.3l-.1.2h-.3v.1l-.2.1H20v.1l-.2.1h-.2v.1l-.2.1h-.2v.1l-.2.1-.2.1-.1.1h-.1l-.2.1v.1h-.2l-.1.1-.2.1-.2.1-.1.1h-.2v.1l-.2.1H17l-.2.1v.1h-.2l-.1.1-.1.1h-.1l-.6.4h-.1l-.2.1-.2.1-.1.1H15l-.1.1-.2.1-.2.1-.1.1h-.1l-.1.1-.1.1H14v.1l-.2.1h-.1l-.1.1-.1.1h-.1l-.1.1-.2.1-.2.1v.1h-.2v.1l-.2.1h-.1l-.1.1-.1.1H12l-.1.1-.1.1h-.1l-.1.1-.1.1h-.1l-.1.1-.1.1h-.1l-.1.1-.1.1h-.1l-.1.1-.1.1h-.1l-.1.1-.1.1h-.1l-.1.1-.1.1-.1.1h-.1l-.1.2h-.2v.2h-.2l-.2.2H9l-.1.2h-.2v.2h-.2l-.1.2h-.2L8 40h-.2v.2h-.2l-.1.2h-.2v.2c-.2 0-.4.2-.5.4h-.2v.2h-.2l-.1.2h-.1l-.1.2H6l-.2.2h-.1v.2h-.2l-.1.2h-.1l-.1.2h-.1l-.1.2-.1.1v.1h-.1l-.1.1v.1h-.1l-.1.1v.1h-.1v.1l-.1.1h-.1v.1l-.1.1-.1.1-.1.1-.1.1v.1h-.1v.1l-.1.1h-.1l-.4.6-.1.1-.1.1v.1h-.1v.1l-.1.1-.1.1v.1h-.1v.1l-.1.1-.1.1v.1l-.1.1-.1.2H2v.2h-.1v.2h-.1v.2h-.1v.2h-.1a3 3 0 0 0-.4.7v.2H1v.4H.8v.2l-.1.1v.1l-.1.1v.3H.5v.2a1391.6 1391.6 0 0 0-.3.7v.4l-.1.1v.4H0v.4a3.2 3.2 0 0 0-.1.8v.9a3.4 3.4 0 0 0 .1.8v.4l.1.1v.1l.3.7v.3l.1.1v.1l.1.1v.1l.1.1v.1l.1.1v.1l.3.5v.1h.1v.1l.1.1v.1h.1v.1l.1.1v.1h.1v.1l.1.1v.1H2v.1l.1.1.1.1v.1l.5.5.1.1v.1l.1.1.1.1.1.1.1.1.1.1.1.1.1.1.1.1h.1v.1l.1.1.1.1.1.1.1.1h.1v.1h.1v.1h.1l.5.4v.1H5v.1l.1.1h.1v.1h.1l.1.1h.1v.1h.2v.1l.2.1v.1h.2v.1h.1v.1h.2v.1h.1l.1.1h.1v.1H7v.2h.2v.1h.1l.1.1h.2v.1h.1l.1.1.2.1.1.1h.1v.1h.2v.1h.1l.1.1.5.2.1.1h.1l.1.1h.1v.1h.2v.1h.1l.1.1h.2v.1h.2v.1h.2v.1h.2v.1h.1l.1.1h.1l.1.1h.1l.1.1h.1l.2.1.2.1.2.1.2.1h.2v.1h.2v.1h.2l.2.1a29.4 29.4 0 0 0 .2.1h.2a1.8 1.8 0 0 0 .2.2h.4l.1.1h.1l.2.1h.2v.1h.2v.1a2 2 0 0 0 .3 0l.1.1h.1l.1.1h.2a2 2 0 0 0 .2.1h.1l.1.1h.2a2.3 2.3 0 0 1 .3.2h.3l.1.1h.1l.2.1h.2l.1.1h.1l.2.1a55.7 55.7 0 0 1 .3.1h.1l.1.1h.2l.2.1a55.7 55.7 0 0 1 .5.2h.2l.2.1h.2v.1h.2l.1.1h.2l.2.1h.1l.2.1h.2l.1.1h.3l.1.1h.3l.1.1h.3l.1.1h.3l.1.1h.3l.1.1h.3l.1.1h.3l.1.1h.3l.1.1h.2l.2.1h.3l.2.1h.2l.2.1h.2l.2.1h.3l.1.1h.3l.1.1h.3l.2.1h.3l.1.1h.3l.1.1h.3l.2.1h.3l.1.1h.3l.2.1h.3l.1.1h.5l.1.1h.5l.1.1h.5l.1.1h.3l.2.1h.5l.1.1h.5l.1.1h.5l.2.1h.5l.1.1h.3l.2.1h.5l.1.1h.5l.2.1h.5l.1.1h.4l.1.1h.5l.2.1h.5l.2.1h.6l.2.1h.7l.1.1h.7l.2.1h.7l.2.1h.6l.2.1h.7l.2.1h.7l.2.1h.7l.2.1h.7l.2.1h.7l.2.1h.7l.2.1h.7l.2.1h1l.2.1h1.1l.2.1h1.3l.2.1h1.1l.2.1h1.3l.2.1h1.1l.2.1H59l.2.1h1.3a1 1 0 1 0 0-1.9h-.8l-.2-.1h-.7l-.2-.1h-.8l-.2-.1H57l-.2-.1h-1l-.2-.1H55l-.2-.1H54l-.1-.1H53l-.2-.1h-.7l-.2-.1h-.7l-.2-.1h-.5l-.2-.1h-.5l-.2-.1H49l-.2-.1h-.4l-.2-.1h-.5l-.2-.1H47l-.2-.1h-.5l-.2-.1h-.5l-.1-.1h-.4l-.2-.1h-.5l-.2-.1h-.5l-.1-.1H43l-.1-.1h-.4l-.1-.1H42l-.2-.1h-.3l-.2-.1H41l-.2-.1h-.3l-.2-.1H40l-.2-.1h-.3l-.2-.1H39l-.2-.1h-.3l-.1-.1H38l-.1-.1h-.3l-.2-.1h-.3l-.2-.1h-.3l-.2-.1h-.3L36 68h-.3l-.2-.1h-.3l-.2-.1h-.3l-.1-.1h-.3l-.2-.1h-.3l-.1-.1h-.4l-.1-.1H33l-.1-.1h-.3l-.2-.1h-.1l-.2-.1h-.3l-.1-.1h-.2l-.1-.1h-.3l-.1-.1h-.2l-.1-.1a4.3 4.3 0 0 0-.5-.1h-.1l-.2-.1h-.3l-.1-.1h-.1l-.2-.1H29l-.1-.1h-.2v-.1h-.4l-.1-.1H28l-.2-.1h-.3l-.1-.1h-.1l-.2-.1h-.3l-.1-.1h-.3l-.1-.1H26l-.1-.1h-.2v-.1h-.4v-.1h-.2l-.2-.1h-.2l-.2-.1-.2-.1H24v-.1h-.2l-.1-.1h-.2v-.1h-.2l-.1-.1H23l-.1-.1h-.1l-.2-.1-.2-.1h-.2v-.1H22l-.1-.1h-.1l-.2-.1-.2-.1h-.1l-.1-.1H21v-.1h-.4l-.1-.1h-.2v-.1h-.2l-.1-.1-.1-.1h-.2v-.1h-.2V63h-.2l-.1-.1H19l-.2-.1-.2-.1-.2-.1h-.1l-.1-.1H18l-.1-.1h-.1l-.2-.1h-.2v-.1h-.2v-.1H17V62h-.1l-.1-.1h-.1l-.1-.1h-.1l-.1-.1h-.1l-.1-.1H16l-.1-.1h-.1l-.1-.1h-.1l-.1-.1h-.1l-.1-.1h-.1l-.1-.1H15l-.1-.1-.1-.1h-.1l-.1-.1h-.1l-.1-.1h-.1l-.1-.1-.1-.1H14l-.1-.1h-.1v-.1h-.2v-.1h-.1l-.1-.1h-.1l-.1-.1-.2-.1-.1-.1-.1-.1h-.1l-.1-.1-.2-.1-.1-.1h-.1v-.1H12v-.1h-.1l-.1-.1-.2-.1-.1-.1-.1-.1-.2-.1-.1-.1-.2-.1-.1-.1-.1-.1h-.1v-.1h-.2v-.1h-.1V58l-.1-.1H10v-.1l-.1-.1-.1-.1-.1-.1h-.1v-.1h-.1v-.1h-.1l-.1-.1-.1-.1L9 57l-.1-.1-.1-.1-.1-.1-.1-.1-.1-.1-.1-.1-.1-.1h-.1V56H8v-.1h-.1v-.1h-.1v-.1l-.1-.1v-.1h-.1v-.1h-.1v-.2h-.1V55l-.1-.1v-.1h-.1v-.1l-.1-.1v-.1l-.1-.1v-.1l-.1-.1V54l-.1-.1v-.3h-.1v-1.5Z"
  />
  <path
    fill="#F10"
    d="M6.6 58.9v-.2h.1v-.4l.1-.1V58l.1-.1v-.1l.1-.1v-.2h.1v-.2l.1-.1V57h.1l.1-.2h.1v-.1l.1-.2h.1v-.1l.1-.2H8v-.4h.1l.1-.1v-.1l.1-.1.1-.1v-.1h.1l.1-.1.1-.1V55H9l.1-.2h.1v-.1l.1-.1h.1v-.1l.1-.1.1-.1.1-.1.1-.1.1-.1.1-.1.1-.1.1-.1.1-.1.1-.1.1-.1.1-.1.1-.1.2-.1V53h.1v-.1l.2-.1.1-.1.1-.2h.1l.2-.1v-.1h.1l.1-.1V52h.2l.1-.1h.1l.1-.1.1-.1.2-.1v-.1h.1l.1-.1.1-.1h.1v-.1h.2V51h.2l.1-.2h.2l.1-.2h.2l.1-.2h.2v-.2h.2l.2-.2h.2v-.2h.2l.2-.2h.2v-.2h.2l.2-.2h.2V49h.3l.1-.2h.2l.1-.1.1-.1h.1l.1-.1.1-.1h.2v-.1l.2-.1.2-.1.1-.1h.1l.1-.1.1-.1h.2v-.1l.2-.1h.1l.1-.1.1-.1h.1l.2-.1v-.1h.2l.1-.1.1-.1h.2v-.1l.2-.1h.1l.1-.1.2-.1.2-.1.1-.1h.2l.1-.1.1-.1h.1l.2-.1.1-.1h.1l.2-.1v-.1h.2l.1-.1.2-.1.2-.1.1-.1h.2l.1-.1h.1l.2-.1.1-.1h.1l.2-.1h.1l.1-.1.2-.1h.1a2.6 2.6 0 0 0 .3-.2h.1l.2-.1.2-.1h.2l.1-.1.2-.1.2-.1h.2l.1-.1h.1l.2-.2h.2l.1-.1h.1a3.3 3.3 0 0 1 .3-.2h.2l.1-.1h.2l.1-.2h.4l.2-.1h.1l.2-.2h.2l.2-.1h.1l.2-.1.1-.1h.2l.1-.1h.2l.1-.1.2-.1h.1l.2-.1h.1l.2-.1.2-.1h.1l.2-.1h.1l.2-.1a3.7 3.7 0 0 0 .3-.2h.2l.1-.1.2-.1h.2l.1-.1h.2l.1-.1.2-.1h.2l.1-.1h.2l.1-.1.2-.1h.2l.1-.1h.2l.1-.1.2-.1h.2l.1-.1h.2l.2-.1.1-.1h.2l.2-.1h.1l.2-.1.2-.1h.1l.2-.1h.2l.1-.1.2-.1h.2l.1-.1h.2l.2-.1h.1l.2-.1h.2l.2-.1.1-.1h.2l.2-.1h.1l.2-.1h.2l.2-.1h.1l.2-.1h.2l.2-.1h.1l.1-.1h.2l.2-.1h.2l.1-.1h.2l.2-.1h.2l.1-.1h.2l.2-.1h.2l.2-.1.1-.1h.2l.2-.1h.2l.2-.1h.2l.1-.1h.2l.2-.1h.2l.2-.1h.2l.2-.1h.1l.2-.1.2-.1h.2l.2-.1h.2l.2-.1h.1l.2-.1h.2l.2-.1h.2l.2-.1h.2l.2-.1h.2l.2-.1h.1l.2-.1.2-.1h.2l.2-.1h.4l.2-.1h.2l.2-.1h.2l.2-.1h.2l.1-.1h.2l.2-.1h.2l.2-.1h.2l.2-.1h.4l.2-.1h.2l.2-.1h.2l.2-.1h.2l.2-.1h.2l.2-.1h.2l.2-.1h.4l.2-.1h.2l.2-.1h.2l.2-.1h.2l.3-.1h.2l.2-.1h.2l.2-.1h.2l.2-.1h.4l.2-.1h.2l.2-.1h.2a10.7 10.7 0 0 0 .4-.2h.7l.2-.1h.4l.2-.1h.2l.2-.1h.5l.2-.1h.2a3.3 3.3 0 1 0-1.5-6.5h-.5l-.2.1h-.4l-.2.1h-.2l-.2.1h-.5l-.2.1h-.2l-.2.1h-.2l-.2.1h-.4l-.3.1h-.2l-.2.1h-.2l-.2.1H56l-.2.1h-.2l-.2.1h-.2l-.2.1h-.2l-.2.1h-.4l-.2.1h-.2l-.3.1h-.2l-.2.1H53l-.2.1h-.2l-.2.1h-.2l-.2.1h-.4l-.2.1h-.2l-.2.1h-.2l-.2.1h-.2l-.2.1H50l-.2.1h-.2l-.2.1h-.2l-.2.1h-.4l-.2.1h-.2l-.2.1-.2.1h-.2l-.2.1h-.2l-.2.1h-.2l-.2.1h-.2l-.1.1H46l-.2.1h-.2l-.2.1h-.2l-.2.1h-.2l-.2.1-.2.1h-.1l-.2.1H44l-.2.1h-.2l-.2.1h-.2l-.2.1-.2.1h-.2l-.2.1h-.2l-.2.1-.2.1h-.1l-.2.1h-.2l-.2.1h-.2l-.1.1h-.2l-.2.1h-.2l-.2.1h-.1l-.2.1h-.2l-.2.1H39l-.6.3h-.3l-.2.1-.2.1h-.2l-.2.1h-.1l-.2.1h-.2l-.2.1h-.1l-.2.1-.2.1H36l-.2.1h-.2l-.2.1-.1.1H35l-.2.1h-.2l-.1.1-.2.1h-.2l-.1.1h-.2l-.2.1-.1.1h-.2l-.2.1H33l-.2.1-.2.1h-.1l-.2.1h-.2l-.1.1h-.2l-.2.2h-.2l-.2.1h-.1l-.2.2h-.3l-.2.1h-.1l-.2.2h-.3l-.2.1h-.1l-.2.2H29l-.2.1h-.1l-.2.1-.1.1a3.7 3.7 0 0 0-.3.1 3.7 3.7 0 0 0-.3.1l-.2.1a3.7 3.7 0 0 0-.3.1H27l-.1.1-.2.1h-.1l-.2.1h-.1l-.2.1-.1.1h-.2l-.1.1a3.3 3.3 0 0 0-.3.1l-.2.1h-.1a3.3 3.3 0 0 0-.3.2h-.2l-.1.1h-.1l-.2.1h-.1l-.2.1-.1.1h-.2l-.1.1a3.2 3.2 0 0 1-.3.1l-.1.1H23l-.1.1h-.2l-.1.1-.1.1h-.2l-.1.1H22l-.1.2h-.3l-.1.2h-.3l-.1.2h-.3l-.1.2h-.2l-.2.2H20l-.2.2h-.2l-.2.2h-.2l-.2.2h-.2l-.1.1-.1.1h-.2v.1l-.2.1h-.1l-.2.1v.1h-.2l-.1.1-.2.1-.2.1-.1.1h-.2v.1l-.2.1h-.1l-.1.1-.1.1-.6.3h-.1l-.2.1v.1h-.2l-.1.1-.1.1H15l-.2.1v.1h-.2l-.1.1-.1.1h-.1l-.1.1-.2.1-.2.1-.1.1h-.1l-.1.1-.1.1h-.1l-.2.1v.1h-.2v.1l-.2.1-.2.1-.1.1h-.1l-.1.1-.1.1H12l-.1.1-.1.1h-.1l-.1.1-.1.1h-.1l-.1.1-.1.1H11l-.1.1-.1.1h-.1l-.1.1-.1.1h-.1l-.1.1-.1.1h-.1l-.1.1-.1.1h-.1l-.1.1-.1.1-.2.1v.1h-.2v.1l-.2.1-.1.1-.1.1h-.1l-.1.1-.2.2h-.1l-.1.2H8v.2h-.2l-.1.2h-.2v.2h-.2l-.5.5h-.1l-.1.1-.2.2h-.1l-.1.2h-.1l-.1.2h-.2v.2h-.1l-.2.2h-.1v.2h-.2v.2H5v.2h-.2v.2h-.2v.2h-.2v.2h-.1l-.1.2h-.1l-.1.1v.1l-.1.1v.1h-.1v.1l-.1.1-.1.1-.1.1-.4.5-.1.1v.1h-.1v.1l-.1.1-.1.1v.1h-.1v.1l-.1.1-.1.1v.1h-.1v.2h-.1v.1l-.1.1-.1.1v.1l-.1.1v.1h-.1v.2h-.1v.1l-.1.2a3 3 0 0 0-.4.6v.1l-.1.2-.1.2v.2H.8v.2H.7v.2H.6v.4H.5v.2l-.3.6v.5H.1v.4l-.1.1v.2l-.1.8v1.1a3.4 3.4 0 0 0 .1.9v.3l.1.1v.2a3.1 3.1 0 0 0 .3.7v.3h.1v.2h.1v.2h.1v.1l.1.1v.1l.3.6h.1v.1l.1.1v.1l.1.1v.1h.1v.1l.1.1v.1h.1v.1H2v.3h.1v.1l.5.5v.1h.1v.1l.1.1.1.1.1.1v.1h.1v.1h.1v.1h.1v.1h.1v.1h.1l.1.1.1.1.1.1.1.1v.1H4l.1.1.1.1.1.1.5.4.2.1v.1h.1l.1.1h.1l.1.1.1.1.2.1v.1H6v.1l.2.1h.1v.1h.2v.1h.1v.1h.1l.1.1.2.1.1.1.2.1h.1l.1.1.2.1.1.1h.1v.1H8v.1h.1l.1.1h.2v.1h.1l.1.1.5.3h.1l.1.1h.1l.1.1.2.1h.1l.1.1h.1l.1.1.2.1.2.1.2.1.1.1h.2l.1.1h.1l.1.1h.1v.1h.2v.1h.2v.1h.2v.1h.2l.2.1.2.1h.2v.1h.2v.1h.2a1.8 1.8 0 0 0 .2.1h.1l.1.1h.2l.1.1h.1l.1.1h.2l.2.1.2.1h.2a2.3 2.3 0 0 0 .2.2h.1a2 2 0 0 0 .3 0v.1h.2l.1.1h.2l.1.1a2.2 2.2 0 0 1 .3.1h.2l.1.1a2.1 2.1 0 0 1 .2.1h.2l.2.1h.1l.1.1h.2l.2.1h.1l.1.1h.3v.1h.2l.1.1.4.1h.2v.1h.4a3 3 0 0 0 .3.2h.4v.1a2.9 2.9 0 0 0 .3.1h.2l.2.1h.2l.1.1h.2l.2.1h.2l.2.1h.2l.2.1h.2l.2.1h.2l.2.1h.2l.2.1h.2l.2.1h.3v.1h.4l.1.1h.2l.2.1h.3l.1.1h.3l.2.1h.2l.2.1h.3l.1.1h.3l.2.1h.3l.1.1h.3l.1.1h.3l.2.1h.3l.1.1h.3l.2.1h.4l.2.1h.4l.2.1h.3l.1.1h.5l.1.1h.5l.2.1h.4l.2.1h.3l.2.1h.4l.2.1h.5l.1.1h.5l.2.1h.3l.1.1h.5l.2.1h.5l.2.1h.5l.1.1h.5l.2.1h.5l.2.1h.6l.2.1h.7l.1.1h.7l.2.1h.7l.2.1h.7l.1.1h.7l.2.1h.7l.2.1h.8l.2.1h.7l.1.1h.7l.2.1h.7l.2.1h.9l.2.1h1.3l.1.1h1.1l.2.1h1.3l.2.1h1.1l.2.1h1.4l.1.1h1.2l.2.1H60l.1.1h.4a1 1 0 1 0 0-2h-1.1l-.2-.1h-.8l-.2-.1h-.8l-.1-.1h-.8l-.2-.1h-.7l-.2-.1h-.7l-.2-.1h-.7l-.2-.1h-.8l-.2-.1H52l-.2-.1h-1l-.1-.1H50l-.1-.1h-.4l-.2-.1H49l-.2-.1h-.5l-.2-.1h-.7l-.1-.1h-.4l-.1-.1h-.6l-.1-.1h-.5l-.2-.1h-.5l-.2-.1h-.4l-.1-.1h-.5l-.2-.1H43l-.2-.1h-.5l-.2-.1h-.3l-.2-.1h-.3l-.2-.1h-.3l-.2-.1h-.3l-.2-.1h-.3l-.1-.1h-.4l-.1-.1h-.4l-.1-.1h-.3l-.2-.1h-.3l-.2-.1h-.3l-.2-.1H37l-.1-.1h-.4l-.1-.1H36l-.2-.1h-.3l-.2-.1H35l-.1-.1h-.3l-.2-.1h-.3l-.1-.1h-.3l-.2-.1h-.3L33 74l-.2-.1h-.4l-.1-.1H32l-.1-.1h-.2l-.2-.1h-.1l-.1-.1H31l-.2-.1h-.1l-.2-.1h-.1a4.3 4.3 0 0 0-.5-.2h-.4l-.1-.1h-.2l-.1-.1h-.3l-.2-.1-.2-.1H28l-.1-.1h-.2l-.1-.1h-.2l-.1-.1H27l-.1-.1h-.2l-.1-.1h-.2l-.1-.1H26l-.2-.1-.2-.1h-.2l-.2-.1H25v-.1h-.4v-.1h-.2l-.1-.1H24v-.1h-.3l-.2-.1-.2-.1h-.1l-.2-.1-.1-.1h-.4l-.1-.1h-.2v-.1h-.4l-.1-.1h-.2v-.1h-.2l-.1-.1h-.1l-.2-.1-.2-.1h-.1l-.1-.1h-.2l-.2-.1H20V70h-.1l-.2-.1-.2-.1-.2-.1h-.1l-.1-.1H19l-.2-.1h-.2v-.1h-.2l-.1-.1h-.1l-.1-.1H18l-.1-.1h-.2V69h-.2v-.1h-.2v-.1H17l-.1-.1h-.1l-.1-.1h-.1l-.1-.1h-.1l-.1-.1h-.1l-.1-.1H16l-.1-.1h-.2l-.1-.1h-.1l-.1-.1-.1-.1h-.1l-.1-.1H15l-.1-.1h-.1l-.1-.1h-.1l-.1-.1h-.1v-.1h-.1l-.1-.1H14l-.1-.1h-.1l-.1-.1-.2-.1-.1-.1h-.1l-.1-.1h-.1v-.1l-.2-.1-.1-.1h-.1l-.1-.1h-.1v-.1h-.2v-.1h-.1l-.1-.1-.2-.1-.1-.1-.1-.1-.2-.1-.1-.1h-.1v-.1h-.2v-.1H11v-.1h-.2v-.1h-.1V65h-.1l-.1-.1v-.1h-.2v-.1h-.1v-.1h-.1l-.1-.1-.1-.1h-.1v-.1h-.1v-.1h-.1l-.1-.1-.1-.1-.1-.1h-.1v-.1l-.1-.1-.1-.1v-.1h-.1v-.1h-.1v-.1h-.1v-.1h-.1v-.1h-.1V63l-.1-.1-.1-.1h-.1v-.1l-.1-.1-.1-.1-.1-.1-.1-.1v-.1h-.1V62h-.2v-.1l-.1-.1v-.1h-.1v-.1l-.1-.1v-.1H7V61h-.1v-.4h-.1v-.3l-.1-.1v-1.4Z"
  />
</svg>
