<svg width="920" height="900" viewBox="0 0 920 900" fill="none" xmlns="http://www.w3.org/2000/svg">
  <rect width="920" height="900" fill="rgba(255,255,255,.75)"></rect>
  <path
    d="M460.827 850L60.8267 850L60.8267 450L340.827 450C407.101 450 460.827 503.726 460.827 570L460.827 850Z"
    fill="#DC2626"
    fill-opacity="0.3"
  ></path>
  <path
    d="M446.256 850L60.8267 850L60.8267 464.57L230.256 464.57C349.55 464.57 446.256 561.277 446.256 680.57L446.256 850Z"
    fill="#615CF6"
  ></path>
  <path
    d="M460.327 50H860.327V450H580.327C514.052 450 460.327 396.274 460.327 330V50Z"
    fill="#DC2626"
    fill-opacity="0.3"
  ></path>
  <path
    d="M474.897 50H860.327V435.43H690.897C571.603 435.43 474.897 338.723 474.897 219.43V50Z"
    fill="#615CF6"
  ></path>
  <rect x="60.3267" y="449.5" width="800" height="1" fill="currentColor"></rect>
  <rect
    x="459.827"
    y="850"
    width="800"
    height="1"
    transform="rotate(-90 459.827 850)"
    fill="currentColor"
  ></rect>
  <rect opacity="0.2" x="60.3267" y="609.5" width="800" height="1" fill="currentColor"></rect>
  <rect
    opacity="0.2"
    x="619.827"
    y="850"
    width="800"
    height="1"
    transform="rotate(-90 619.827 850)"
    fill="currentColor"
  ></rect>
  <rect opacity="0.2" x="60.3267" y="289.5" width="800" height="1" fill="currentColor"></rect>
  <rect
    opacity="0.2"
    x="299.827"
    y="850"
    width="800"
    height="1"
    transform="rotate(-90 299.827 850)"
    fill="currentColor"
  ></rect>
  <path
    d="M448.077 470.119C447.435 470.119 446.888 469.945 446.436 469.595C445.984 469.243 445.639 468.733 445.401 468.065C445.162 467.395 445.043 466.585 445.043 465.636C445.043 464.693 445.162 463.888 445.401 463.22C445.642 462.55 445.989 462.038 446.44 461.686C446.895 461.331 447.44 461.153 448.077 461.153C448.713 461.153 449.257 461.331 449.709 461.686C450.163 462.038 450.51 462.55 450.749 463.22C450.99 463.888 451.111 464.693 451.111 465.636C451.111 466.585 450.991 467.395 450.753 468.065C450.514 468.733 450.169 469.243 449.717 469.595C449.266 469.945 448.719 470.119 448.077 470.119ZM448.077 469.182C448.713 469.182 449.207 468.875 449.56 468.261C449.912 467.648 450.088 466.773 450.088 465.636C450.088 464.881 450.007 464.237 449.845 463.706C449.686 463.175 449.456 462.77 449.155 462.491C448.856 462.213 448.497 462.074 448.077 462.074C447.446 462.074 446.953 462.385 446.598 463.007C446.243 463.626 446.065 464.503 446.065 465.636C446.065 466.392 446.145 467.034 446.304 467.562C446.463 468.091 446.692 468.493 446.99 468.768C447.291 469.044 447.653 469.182 448.077 469.182Z"
    fill="currentColor"
  ></path>
  <path
    d="M279.997 465.168V466.105H276.179V465.168H279.997ZM284.477 470.119C283.977 470.119 283.527 470.02 283.126 469.821C282.725 469.622 282.404 469.349 282.163 469.003C281.921 468.656 281.789 468.261 281.767 467.818H282.789C282.829 468.213 283.008 468.54 283.326 468.798C283.647 469.054 284.031 469.182 284.477 469.182C284.835 469.182 285.153 469.098 285.431 468.93C285.713 468.763 285.933 468.533 286.092 468.24C286.254 467.945 286.335 467.611 286.335 467.239C286.335 466.858 286.251 466.518 286.083 466.22C285.919 465.919 285.691 465.682 285.402 465.509C285.112 465.335 284.781 465.247 284.409 465.244C284.142 465.241 283.867 465.283 283.586 465.368C283.305 465.45 283.073 465.557 282.892 465.688L281.903 465.568L282.431 461.273H286.966V462.21H283.318L283.011 464.784H283.062C283.241 464.642 283.466 464.524 283.735 464.43C284.005 464.337 284.287 464.29 284.579 464.29C285.113 464.29 285.589 464.418 286.007 464.673C286.427 464.926 286.757 465.273 286.995 465.713C287.237 466.153 287.358 466.656 287.358 467.222C287.358 467.778 287.233 468.276 286.983 468.713C286.735 469.148 286.394 469.491 285.96 469.744C285.525 469.994 285.031 470.119 284.477 470.119Z"
    fill="currentColor"
  ></path>
  <path
    d="M442.994 628.83L443.932 628.83L443.932 632.648L442.994 632.648L442.994 628.83ZM447.946 624.35C447.946 624.85 447.847 625.3 447.648 625.701C447.449 626.101 447.176 626.422 446.83 626.664C446.483 626.905 446.088 627.037 445.645 627.06L445.645 626.037C446.04 625.998 446.366 625.819 446.625 625.5C446.881 625.179 447.008 624.796 447.008 624.35C447.008 623.992 446.925 623.674 446.757 623.395C446.589 623.114 446.359 622.894 446.067 622.735C445.771 622.573 445.437 622.492 445.065 622.492C444.685 622.492 444.345 622.576 444.047 622.743C443.746 622.908 443.508 623.135 443.335 623.425C443.162 623.715 443.074 624.046 443.071 624.418C443.068 624.685 443.109 624.959 443.195 625.24C443.277 625.522 443.383 625.753 443.514 625.935L443.395 626.924L439.099 626.395L439.099 621.861L440.037 621.861L440.037 625.509L442.611 625.816L442.611 625.765C442.469 625.586 442.351 625.361 442.257 625.091C442.163 624.821 442.116 624.54 442.116 624.248C442.116 623.713 442.244 623.238 442.5 622.82C442.753 622.4 443.099 622.07 443.54 621.831C443.98 621.59 444.483 621.469 445.048 621.469C445.605 621.469 446.102 621.594 446.54 621.844C446.974 622.091 447.318 622.432 447.571 622.867C447.821 623.301 447.946 623.796 447.946 624.35Z"
    fill="currentColor"
  ></path>
  <path
    d="M603.957 470.119C603.457 470.119 603.007 470.02 602.606 469.821C602.206 469.622 601.885 469.349 601.643 469.003C601.402 468.656 601.27 468.261 601.247 467.818H602.27C602.31 468.213 602.489 468.54 602.807 468.798C603.128 469.054 603.511 469.182 603.957 469.182C604.315 469.182 604.633 469.098 604.912 468.93C605.193 468.763 605.413 468.533 605.572 468.24C605.734 467.945 605.815 467.611 605.815 467.239C605.815 466.858 605.731 466.518 605.564 466.22C605.399 465.919 605.172 465.682 604.882 465.509C604.592 465.335 604.261 465.247 603.889 465.244C603.622 465.241 603.348 465.283 603.067 465.368C602.785 465.45 602.554 465.557 602.372 465.688L601.383 465.568L601.912 461.273H606.446V462.21H602.798L602.491 464.784H602.543C602.722 464.642 602.946 464.524 603.216 464.43C603.486 464.337 603.767 464.29 604.06 464.29C604.594 464.29 605.07 464.418 605.487 464.673C605.908 464.926 606.237 465.273 606.476 465.713C606.717 466.153 606.838 466.656 606.838 467.222C606.838 467.778 606.713 468.276 606.463 468.713C606.216 469.148 605.875 469.491 605.44 469.744C605.006 469.994 604.511 470.119 603.957 470.119Z"
    fill="currentColor"
  ></path>
  <path
    d="M447.946 304.869C447.946 305.369 447.847 305.82 447.648 306.22C447.449 306.621 447.176 306.942 446.83 307.183C446.483 307.425 446.088 307.557 445.645 307.58L445.645 306.557C446.04 306.517 446.366 306.338 446.625 306.02C446.881 305.699 447.008 305.315 447.008 304.869C447.008 304.511 446.925 304.193 446.757 303.915C446.589 303.634 446.359 303.413 446.067 303.254C445.771 303.092 445.437 303.011 445.065 303.011C444.685 303.011 444.345 303.095 444.047 303.263C443.746 303.428 443.508 303.655 443.335 303.945C443.162 304.234 443.074 304.565 443.071 304.937C443.068 305.205 443.109 305.479 443.195 305.76C443.277 306.041 443.383 306.273 443.514 306.455L443.395 307.443L439.099 306.915L439.099 302.381L440.037 302.381L440.037 306.028L442.611 306.335L442.611 306.284C442.469 306.105 442.351 305.881 442.257 305.611C442.163 305.341 442.116 305.06 442.116 304.767C442.116 304.233 442.244 303.757 442.5 303.339C442.753 302.919 443.099 302.589 443.54 302.351C443.98 302.109 444.483 301.989 445.048 301.989C445.605 301.989 446.102 302.114 446.54 302.364C446.974 302.611 447.318 302.952 447.571 303.386C447.821 303.821 447.946 304.315 447.946 304.869Z"
    fill="currentColor"
  ></path>
  <path
    d="M760.298 461.273V470H759.241V462.381H759.19L757.06 463.795V462.722L759.241 461.273H760.298ZM765.655 470.119C765.013 470.119 764.466 469.945 764.014 469.595C763.562 469.243 763.217 468.733 762.979 468.065C762.74 467.395 762.621 466.585 762.621 465.636C762.621 464.693 762.74 463.888 762.979 463.22C763.22 462.55 763.567 462.038 764.018 461.686C764.473 461.331 765.018 461.153 765.655 461.153C766.291 461.153 766.835 461.331 767.287 461.686C767.741 462.038 768.088 462.55 768.327 463.22C768.568 463.888 768.689 464.693 768.689 465.636C768.689 466.585 768.57 467.395 768.331 468.065C768.092 468.733 767.747 469.243 767.295 469.595C766.844 469.945 766.297 470.119 765.655 470.119ZM765.655 469.182C766.291 469.182 766.785 468.875 767.138 468.261C767.49 467.648 767.666 466.773 767.666 465.636C767.666 464.881 767.585 464.237 767.423 463.706C767.264 463.175 767.034 462.77 766.733 462.491C766.435 462.213 766.075 462.074 765.655 462.074C765.024 462.074 764.531 462.385 764.176 463.007C763.821 463.626 763.643 464.503 763.643 465.636C763.643 466.392 763.723 467.034 763.882 467.562C764.041 468.091 764.27 468.493 764.568 468.768C764.869 469.044 765.231 469.182 765.655 469.182Z"
    fill="currentColor"
  ></path>
  <path
    d="M439.099 148.528L447.827 148.528L447.827 149.585L440.207 149.585L440.207 149.636L441.622 151.767L440.548 151.767L439.099 149.585L439.099 148.528ZM447.946 143.172C447.946 143.814 447.771 144.361 447.422 144.812C447.07 145.264 446.56 145.609 445.892 145.848C445.222 146.087 444.412 146.206 443.463 146.206C442.52 146.206 441.714 146.087 441.047 145.848C440.376 145.607 439.865 145.26 439.513 144.808C439.158 144.354 438.98 143.808 438.98 143.172C438.98 142.536 439.158 141.991 439.513 141.54C439.865 141.085 440.376 140.739 441.047 140.5C441.714 140.259 442.52 140.138 443.463 140.138C444.412 140.138 445.222 140.257 445.892 140.496C446.56 140.734 447.07 141.08 447.422 141.531C447.771 141.983 447.946 142.53 447.946 143.172ZM447.008 143.172C447.008 142.536 446.702 142.041 446.088 141.689C445.474 141.337 444.599 141.161 443.463 141.161C442.707 141.161 442.064 141.241 441.533 141.403C441.001 141.562 440.597 141.793 440.318 142.094C440.04 142.392 439.901 142.751 439.901 143.172C439.901 143.803 440.212 144.295 440.834 144.651C441.453 145.006 442.33 145.183 443.463 145.183C444.219 145.183 444.861 145.104 445.389 144.945C445.918 144.786 446.32 144.557 446.595 144.259C446.871 143.957 447.008 143.595 447.008 143.172Z"
    fill="currentColor"
  ></path>
  <path
    d="M112.997 465.168V466.105H109.179V465.168H112.997ZM117.818 461.273V470H116.761V462.381H116.71L114.579 463.795V462.722L116.761 461.273H117.818ZM123.174 470.119C122.532 470.119 121.985 469.945 121.534 469.595C121.082 469.243 120.737 468.733 120.498 468.065C120.26 467.395 120.14 466.585 120.14 465.636C120.14 464.693 120.26 463.888 120.498 463.22C120.74 462.55 121.086 462.038 121.538 461.686C121.992 461.331 122.538 461.153 123.174 461.153C123.811 461.153 124.355 461.331 124.806 461.686C125.261 462.038 125.608 462.55 125.846 463.22C126.088 463.888 126.208 464.693 126.208 465.636C126.208 466.585 126.089 467.395 125.85 468.065C125.612 468.733 125.267 469.243 124.815 469.595C124.363 469.945 123.816 470.119 123.174 470.119ZM123.174 469.182C123.811 469.182 124.305 468.875 124.657 468.261C125.01 467.648 125.186 466.773 125.186 465.636C125.186 464.881 125.105 464.237 124.943 463.706C124.784 463.175 124.554 462.77 124.252 462.491C123.954 462.213 123.595 462.074 123.174 462.074C122.544 462.074 122.051 462.385 121.696 463.007C121.341 463.626 121.163 464.503 121.163 465.636C121.163 466.392 121.242 467.034 121.402 467.562C121.561 468.091 121.789 468.493 122.088 468.768C122.389 469.044 122.751 469.182 123.174 469.182Z"
    fill="currentColor"
  ></path>
  <path
    d="M442.994 795.83L443.932 795.83L443.932 799.648L442.994 799.648L442.994 795.83ZM439.099 791.009L447.827 791.009L447.827 792.066L440.207 792.066L440.207 792.117L441.622 794.248L440.548 794.248L439.099 792.066L439.099 791.009ZM447.946 785.652C447.946 786.294 447.771 786.841 447.422 787.293C447.07 787.745 446.56 788.09 445.892 788.328C445.222 788.567 444.412 788.686 443.463 788.686C442.52 788.686 441.714 788.567 441.047 788.328C440.376 788.087 439.865 787.74 439.513 787.289C439.158 786.834 438.98 786.289 438.98 785.652C438.98 785.016 439.158 784.472 439.513 784.02C439.865 783.566 440.376 783.219 441.047 782.98C441.714 782.739 442.52 782.618 443.463 782.618C444.412 782.618 445.222 782.738 445.892 782.976C446.56 783.215 447.07 783.56 447.422 784.012C447.771 784.463 447.946 785.01 447.946 785.652ZM447.008 785.652C447.008 785.016 446.702 784.522 446.088 784.169C445.474 783.817 444.599 783.641 443.463 783.641C442.707 783.641 442.064 783.722 441.533 783.884C441.001 784.043 440.597 784.273 440.318 784.574C440.04 784.873 439.901 785.232 439.901 785.652C439.901 786.283 440.212 786.776 440.834 787.131C441.453 787.486 442.33 787.664 443.463 787.664C444.219 787.664 444.861 787.584 445.389 787.425C445.918 787.266 446.32 787.037 446.595 786.739C446.871 786.438 447.008 786.076 447.008 785.652Z"
    fill="currentColor"
  ></path>
</svg>
